
<svg width="16" height="16" viewBox="0 0 16 16" fill="none" xmlns="http://www.w3.org/2000/svg">
<g id="Shape">
<g id="stroke">
<path id="Subtract" fill-rule="evenodd" clip-rule="evenodd" d="M14.6654 8.00016C14.6654 11.6821 11.6806 14.6668 7.9987 14.6668C4.3168 14.6668 1.33203 11.6821 1.33203 8.00016C1.33203 4.31826 4.3168 1.3335 7.9987 1.3335C11.6806 1.3335 14.6654 4.31826 14.6654 8.00016ZM7.9987 6.00016C8.36689 6.00016 8.66536 6.29864 8.66536 6.66683V11.3335C8.66536 11.7017 8.36689 12.0002 7.9987 12.0002C7.63051 12.0002 7.33203 11.7017 7.33203 11.3335V6.66683C7.33203 6.29864 7.63051 6.00016 7.9987 6.00016ZM7.9987 4.00016C7.63051 4.00016 7.33203 4.29864 7.33203 4.66683C7.33203 5.03502 7.63051 5.3335 7.9987 5.3335C8.36689 5.3335 8.66536 5.03502 8.66536 4.66683C8.66536 4.29864 8.36689 4.00016 7.9987 4.00016Z" fill="#C4C5CA"/>
</g>
</g>
</svg>
