
<svg viewBox="0 0 25 24" fill="none" xmlns="http://www.w3.org/2000/svg">
<rect x="0.898438" width="24" height="24" rx="6" fill="url(#paint0_radial_6161_138812)"/>
<g clip-path="url(#clip0_6161_138812)">
<path d="M12.6568 6.05182C14.5157 6.05182 14.7339 6.06011 15.4686 6.09325C16.1481 6.12363 16.5154 6.23688 16.7612 6.33355C17.0872 6.4606 17.3192 6.60976 17.5622 6.85282C17.8053 7.09588 17.9572 7.32789 18.0815 7.65381C18.1754 7.89963 18.2914 8.26698 18.3218 8.94645C18.3549 9.68115 18.3632 9.89935 18.3632 11.7582C18.3632 13.6171 18.3549 13.8353 18.3218 14.57C18.2914 15.2494 18.1782 15.6168 18.0815 15.8626C17.9544 16.1885 17.8053 16.4206 17.5622 16.6636C17.3192 16.9067 17.0872 17.0586 16.7612 17.1829C16.5154 17.2768 16.1481 17.3928 15.4686 17.4232C14.7339 17.4563 14.5157 17.4646 12.6568 17.4646C10.798 17.4646 10.5798 17.4563 9.84506 17.4232C9.16559 17.3928 8.79824 17.2795 8.55242 17.1829C8.2265 17.0558 7.99448 16.9067 7.75142 16.6636C7.50836 16.4206 7.35645 16.1885 7.23216 15.8626C7.13825 15.6168 7.02224 15.2494 6.99186 14.57C6.95871 13.8353 6.95043 13.6171 6.95043 11.7582C6.95043 9.89935 6.95871 9.68115 6.99186 8.94645C7.02224 8.26698 7.13549 7.89963 7.23216 7.65381C7.35921 7.32789 7.50836 7.09588 7.75142 6.85282C7.99448 6.60976 8.2265 6.45784 8.55242 6.33355C8.79824 6.23964 9.16559 6.12363 9.84506 6.09325C10.5798 6.05735 10.8007 6.05182 12.6568 6.05182ZM12.6568 4.79785C10.7676 4.79785 10.53 4.80614 9.78705 4.83928C9.04682 4.87243 8.54137 4.99119 8.09944 5.16244C7.64094 5.33921 7.25425 5.57951 6.86757 5.9662C6.48088 6.35288 6.24334 6.74233 6.06381 7.19807C5.89256 7.64 5.77379 8.14545 5.74065 8.88845C5.7075 9.62867 5.69922 9.86621 5.69922 11.7555C5.69922 13.6447 5.7075 13.8822 5.74065 14.6252C5.77379 15.3654 5.89256 15.8709 6.06381 16.3156C6.24058 16.7741 6.48088 17.1608 6.86757 17.5475C7.25425 17.9342 7.6437 18.1717 8.09944 18.3512C8.54137 18.5225 9.04682 18.6412 9.78982 18.6744C10.5328 18.7075 10.7676 18.7158 12.6596 18.7158C14.5516 18.7158 14.7864 18.7075 15.5294 18.6744C16.2696 18.6412 16.775 18.5225 17.2197 18.3512C17.6782 18.1745 18.0649 17.9342 18.4516 17.5475C18.8383 17.1608 19.0758 16.7713 19.2554 16.3156C19.4266 15.8737 19.5454 15.3682 19.5785 14.6252C19.6117 13.8822 19.62 13.6475 19.62 11.7555C19.62 9.86345 19.6117 9.62867 19.5785 8.88568C19.5454 8.14545 19.4266 7.64 19.2554 7.19531C19.0786 6.73681 18.8383 6.35012 18.4516 5.96344C18.0649 5.57675 17.6755 5.33921 17.2197 5.15968C16.7778 4.98843 16.2724 4.86966 15.5294 4.83652C14.7836 4.80614 14.5461 4.79785 12.6568 4.79785Z" fill="url(#paint1_linear_6161_138812)"/>
<path d="M12.6561 8.18408C10.684 8.18408 9.08203 9.78331 9.08203 11.7582C9.08203 13.733 10.6813 15.3323 12.6561 15.3323C14.631 15.3323 16.2302 13.733 16.2302 11.7582C16.2302 9.78331 14.631 8.18408 12.6561 8.18408ZM12.6561 14.0755C11.3745 14.0755 10.336 13.037 10.336 11.7554C10.336 10.4738 11.3745 9.43529 12.6561 9.43529C13.9377 9.43529 14.9762 10.4738 14.9762 11.7554C14.9762 13.037 13.9377 14.0755 12.6561 14.0755Z" fill="url(#paint2_linear_6161_138812)"/>
<path d="M16.3732 8.87482C16.8339 8.87482 17.2073 8.50136 17.2073 8.04068C17.2073 7.58 16.8339 7.20654 16.3732 7.20654C15.9125 7.20654 15.5391 7.58 15.5391 8.04068C15.5391 8.50136 15.9125 8.87482 16.3732 8.87482Z" fill="url(#paint3_linear_6161_138812)"/>
</g>
<defs>
<radialGradient id="paint0_radial_6161_138812" cx="0" cy="0" r="1" gradientUnits="userSpaceOnUse" gradientTransform="translate(3.46644 1.464) rotate(49.0472) scale(28.854)">
<stop stop-color="#7817ED"/>
<stop offset="0.501419" stop-color="#FB2BB2" stop-opacity="0.966572"/>
<stop offset="1" stop-color="#F7C610" stop-opacity="0.933333"/>
</radialGradient>
<linearGradient id="paint1_linear_6161_138812" x1="12.6596" y1="11.7568" x2="18.183" y2="18.7169" gradientUnits="userSpaceOnUse">
<stop stop-color="#F5D9FF"/>
<stop offset="1" stop-color="#FBE8FE"/>
</linearGradient>
<linearGradient id="paint2_linear_6161_138812" x1="12.6561" y1="11.7582" x2="15.4931" y2="15.3323" gradientUnits="userSpaceOnUse">
<stop stop-color="#F5D9FF"/>
<stop offset="1" stop-color="#FBE8FE"/>
</linearGradient>
<linearGradient id="paint3_linear_6161_138812" x1="16.3732" ys1="8.04068" x2="17.0353" y2="8.87482" gradientUnits="userSpaceOnUse">
<stop stop-color="#F5D9FF"/>
<stop offset="1" stop-color="#FBE8FE"/>
</linearGradient>
<clipPath id="clip0_6161_138812">
<rect width="13.9152" height="13.9152" fill="white" transform="translate(5.69922 4.79736)"/>
</clipPath>
</defs>
</svg>
