
<svg viewBox="0 0 17 16" fill="none" xmlns="http://www.w3.org/2000/svg">
<g filter="url(#filter0_ii_6170_22820)">
<circle cx="8.89844" cy="8" r="8" fill="#F3B30E"/>
</g>
<g filter="url(#filter1_i_6170_22820)">
<circle cx="8.89556" cy="8.00103" r="5.47368" fill="#F3B30E"/>
</g>
<path d="M9.84106 6.97541C9.67713 6.41803 9.22631 6.07377 8.57877 6.07377C7.66073 6.07377 7.03778 6.77869 7.03778 8.02459C7.03778 9.27869 7.64434 9.9918 8.58696 9.9918C9.43532 9.9918 9.93942 9.51229 9.95581 8.76229H8.66893V7.83607H11.1443V8.57377C11.1443 10.1311 10.0788 11.082 8.57877 11.082C6.91483 11.082 5.78368 9.91803 5.78368 8.04098C5.78368 6.11475 6.9886 4.98361 8.55418 4.98361C9.89024 4.98361 10.923 5.80328 11.087 6.97541H9.84106Z" fill="white"/>
<defs>
<filter id="filter0_ii_6170_22820" x="-0.413038" y="-0.52459" width="17.8361" height="18.0984" filterUnits="userSpaceOnUse" color-interpolation-filters="sRGB">
<feFlood flood-opacity="0" result="BackgroundImageFix"/>
<feBlend mode="normal" in="SourceGraphic" in2="BackgroundImageFix" result="shape"/>
<feColorMatrix in="SourceAlpha" type="matrix" values="0 0 0 0 0 0 0 0 0 0 0 0 0 0 0 0 0 0 127 0" result="hardAlpha"/>
<feOffset dx="-1.31148" dy="1.57377"/>
<feGaussianBlur stdDeviation="2.09836"/>
<feComposite in2="hardAlpha" operator="arithmetic" k2="-1" k3="1"/>
<feColorMatrix type="matrix" values="0 0 0 0 1 0 0 0 0 1 0 0 0 0 1 0 0 0 0.8 0"/>
<feBlend mode="normal" in2="shape" result="effect1_innerShadow_6170_22820"/>
<feColorMatrix in="SourceAlpha" type="matrix" values="0 0 0 0 0 0 0 0 0 0 0 0 0 0 0 0 0 0 127 0" result="hardAlpha"/>
<feOffset dx="0.52459" dy="-1.04918"/>
<feGaussianBlur stdDeviation="0.262295"/>
<feComposite in2="hardAlpha" operator="arithmetic" k2="-1" k3="1"/>
<feColorMatrix type="matrix" values="0 0 0 0 0 0 0 0 0 0 0 0 0 0 0 0 0 0 0.25 0"/>
<feBlend mode="normal" in2="effect1_innerShadow_6170_22820" result="effect2_innerShadow_6170_22820"/>
</filter>
<filter id="filter1_i_6170_22820" x="2.1104" y="2.52734" width="12.2607" height="12.521" filterUnits="userSpaceOnUse" color-interpolation-filters="sRGB">
<feFlood flood-opacity="0" result="BackgroundImageFix"/>
<feBlend mode="normal" in="SourceGraphic" in2="BackgroundImageFix" result="shape"/>
<feColorMatrix in="SourceAlpha" type="matrix" values="0 0 0 0 0 0 0 0 0 0 0 0 0 0 0 0 0 0 127 0" result="hardAlpha"/>
<feOffset dx="-1.31148" dy="1.57377"/>
<feGaussianBlur stdDeviation="1.04918"/>
<feComposite in2="hardAlpha" operator="arithmetic" k2="-1" k3="1"/>
<feColorMatrix type="matrix" values="0 0 0 0 0 0 0 0 0 0 0 0 0 0 0 0 0 0 0.4 0"/>
<feBlend mode="normal" in2="shape" result="effect1_innerShadow_6170_22820"/>
</filter>
</defs>
</svg>
