<svg xmlns="http://www.w3.org/2000/svg" viewBox="0 0 24 24" fill="none">
  <rect width="24" height="24" rx="6.00234" fill="url(#paint0_linear_1842_78107)"/>
  <path fill-rule="evenodd" clip-rule="evenodd" d="M17.0443 5.18347H6.95755C5.52991 5.18347 4.36719 6.34541 4.36719 7.76121V14.0005C4.36719 15.4212 5.53481 16.5783 6.95755 16.5783H10.5193L11.1326 17.6328L11.736 18.6727C11.8439 18.8631 12.1187 18.8631 12.2315 18.6727L12.8349 17.6328L13.4482 16.5783H17.0492C18.4768 16.5783 19.6396 15.4163 19.6396 14.0005V7.76609C19.6396 6.34541 18.4719 5.18347 17.0443 5.18347ZM12.7045 9.75408C11.9245 9.75408 11.2916 10.3741 11.2916 11.1406C11.2916 11.9071 11.9245 12.5271 12.7045 12.5271C13.4846 12.5271 14.1175 11.9071 14.1175 11.1406C14.1175 10.3741 13.4895 9.75408 12.7045 9.75408ZM12.7045 11.8046C12.3317 11.8046 12.0275 11.5067 12.0275 11.1406C12.0275 10.7744 12.3317 10.4766 12.7045 10.4766C13.0774 10.4766 13.3816 10.7744 13.3816 11.1406C13.3816 11.5067 13.0823 11.8046 12.7045 11.8046ZM7.42652 10.0719C7.64729 9.87178 7.93184 9.75461 8.23601 9.75461C8.94247 9.75461 9.50666 10.3795 9.50666 11.146C9.50666 11.9125 8.93757 12.5325 8.23601 12.5325C7.92693 12.5325 7.64729 12.4105 7.42652 12.2152V12.4642H6.64156V8.92465H7.42652V10.0719ZM7.43143 11.4145C7.53936 11.6635 7.78957 11.8344 8.07902 11.8344C8.4715 11.8344 8.78548 11.5268 8.78548 11.1411C8.78548 10.7554 8.4715 10.4479 8.07902 10.4479C7.78957 10.4479 7.53936 10.6187 7.43143 10.8677C7.39218 10.9507 7.37256 11.0435 7.37256 11.1411C7.37256 11.2388 7.39709 11.3315 7.43143 11.4145ZM16.5664 9.81334V10.033C16.3457 9.86216 16.0709 9.75964 15.7766 9.75964C15.0554 9.75964 14.4716 10.3601 14.4716 11.0973C14.4716 11.8345 15.0554 12.435 15.7766 12.435C16.0758 12.435 16.3506 12.3325 16.5664 12.1616V12.5327C16.5664 12.5327 16.4879 12.8988 15.9385 12.8988V13.5872C15.9385 13.5872 16.5321 13.6555 17.0619 13.1283C17.0619 13.1283 17.3072 12.8695 17.3612 12.5278V9.81334H16.5664ZM15.9237 11.7759C15.5264 11.7759 15.2075 11.4684 15.2075 11.0924C15.2075 10.7165 15.5313 10.409 15.9237 10.409C16.2034 10.409 16.4487 10.5652 16.5664 10.7898C16.6155 10.8825 16.64 10.985 16.64 11.0924C16.64 11.1999 16.6106 11.3073 16.5664 11.3951C16.4487 11.6246 16.2034 11.7759 15.9237 11.7759ZM9.59469 9.56317V8.85527C9.59469 8.85527 10.1149 8.78692 10.5763 9.32883C10.5763 9.32883 10.7873 9.59246 10.8364 9.94397V9.9635V12.4631H10.0266V9.9635C9.95787 9.61199 9.59469 9.56317 9.59469 9.56317Z" fill="url(#paint1_linear_1842_78107)"/>
  <defs>
    <linearGradient id="paint0_linear_1842_78107" x1="1.584" y1="1.584" x2="21.48" y2="23.256" gradientUnits="userSpaceOnUse">
      <stop offset="1" stop-color="#06CD28" stop-opacity="0.933333"/>
    </linearGradient>
    <linearGradient id="paint1_linear_1842_78107" x1="5.08719" y1="5.73547" x2="18.0472" y2="17.9755" gradientUnits="userSpaceOnUse">
      <stop stop-color="#F1F5F2"/>
      <stop offset="1" stop-color="#EEEEEE"/>
    </linearGradient>
  </defs>
</svg>
