
<svg  viewBox="0 0 16 17" fill="none" xmlns="http://www.w3.org/2000/svg">
<g clip-path="url(#clip0_6161_138776)">
<path fill-rule="evenodd" clip-rule="evenodd" d="M7.69871 3.29109C7.77827 3.21153 7.88618 3.16683 7.9987 3.16683C8.11121 3.16683 8.21912 3.21153 8.29868 3.29109C8.37824 3.37065 8.42294 3.47856 8.42294 3.59107V3.64016L8.42295 3.64282C8.42416 3.94836 8.5147 4.24687 8.6834 4.50161C8.85145 4.75536 9.08975 4.95465 9.36918 5.07516C9.6547 5.20039 9.97113 5.23759 10.278 5.18195C10.586 5.12611 10.8702 4.9793 11.094 4.7604L11.1322 4.72221C11.1716 4.68277 11.2184 4.65148 11.2699 4.63013C11.3214 4.60878 11.3766 4.59779 11.4323 4.59779C11.4881 4.59779 11.5433 4.60878 11.5948 4.63013C11.6463 4.65148 11.6931 4.68277 11.7325 4.72221L11.733 4.72274C11.7725 4.76214 11.8037 4.80893 11.8251 4.86043C11.8464 4.91193 11.8574 4.96714 11.8574 5.02289C11.8574 5.07864 11.8464 5.13385 11.8251 5.18535C11.8037 5.23685 11.7722 5.2839 11.7327 5.32331L11.7 5.356L11.6948 5.36126C11.476 5.58504 11.3291 5.86925 11.2733 6.17727C11.2255 6.44066 11.2462 6.71112 11.3322 6.96303C11.3406 7.01912 11.3562 7.07404 11.3787 7.12642C11.499 7.40725 11.6989 7.64676 11.9536 7.81546C12.2084 7.98416 12.5069 8.0747 12.8124 8.07591L12.8151 8.07592H12.9078C13.0203 8.07592 13.1282 8.12062 13.2078 8.20018C13.2873 8.27974 13.332 8.38765 13.332 8.50016C13.332 8.61268 13.2873 8.72059 13.2078 8.80015C13.1282 8.87971 13.0203 8.92441 12.9078 8.92441L12.8587 8.9244L12.856 8.92441C12.5505 8.92563 12.252 9.01616 11.9973 9.18486C11.7435 9.35291 11.5442 9.59122 11.4237 9.87064C11.2985 10.1562 11.2613 10.4726 11.3169 10.7794C11.3728 11.0874 11.5196 11.3717 11.7385 11.5955L11.7766 11.6336C11.8161 11.673 11.8474 11.7198 11.8687 11.7713C11.8901 11.8228 11.9011 11.878 11.9011 11.9338C11.9011 11.9896 11.8901 12.0448 11.8687 12.0963C11.8474 12.1478 11.8161 12.1946 11.7766 12.234L11.7761 12.2345C11.7367 12.2739 11.6899 12.3052 11.6384 12.3266C11.5869 12.3479 11.5317 12.3589 11.476 12.3589C11.4202 12.3589 11.365 12.3479 11.3135 12.3266C11.262 12.3052 11.215 12.2737 11.1756 12.2342L11.1429 12.2015L11.1376 12.1963C10.9138 11.9774 10.6296 11.8306 10.3216 11.7747C10.0148 11.7191 9.69834 11.7563 9.41282 11.8815C9.13339 12.002 8.89508 12.2013 8.72704 12.4551C8.55833 12.7098 8.4678 13.0083 8.46658 13.3139L8.46658 13.3165V13.4093C8.46658 13.5218 8.42188 13.6297 8.34232 13.7092C8.26276 13.7888 8.15485 13.8335 8.04233 13.8335C7.92982 13.8335 7.82191 13.7888 7.74235 13.7092C7.66279 13.6297 7.61809 13.5218 7.61809 13.4093V13.3602L7.61791 13.3446C7.61056 13.0303 7.50883 12.7255 7.32595 12.4698C7.14716 12.2198 6.89888 12.0281 6.61217 11.9182C6.33087 11.7986 6.02053 11.7638 5.71944 11.8184C5.41143 11.8742 5.12718 12.021 4.9034 12.2399L4.86521 12.2781C4.82581 12.3176 4.77903 12.3488 4.72752 12.3702C4.67602 12.3915 4.62081 12.4025 4.56506 12.4025C4.50931 12.4025 4.4541 12.3915 4.4026 12.3702C4.3511 12.3488 4.30431 12.3176 4.26491 12.2781L4.26439 12.2776C4.22494 12.2382 4.19365 12.1914 4.1723 12.1399C4.15095 12.0884 4.13996 12.0332 4.13996 11.9774C4.13996 11.9217 4.15095 11.8665 4.1723 11.815C4.19365 11.7635 4.2252 11.7164 4.26465 11.677L4.2974 11.6443L4.30255 11.6391C4.52144 11.4153 4.66828 11.1311 4.72413 10.8231C4.77976 10.5162 4.74256 10.1998 4.61733 9.91428C4.49682 9.63485 4.29753 9.39655 4.04378 9.2285C3.78904 9.0598 3.49053 8.96926 3.18499 8.96804H3.08961C2.97709 8.96804 2.86918 8.92335 2.78962 8.84378C2.71006 8.76422 2.66536 8.65631 2.66536 8.5438C2.66536 8.43128 2.71006 8.32338 2.78962 8.24381C2.86918 8.16425 2.97709 8.11956 3.08961 8.11956H3.1387L3.15429 8.11937C3.46857 8.11202 3.77336 8.0103 4.02906 7.82741C4.27904 7.64862 4.47078 7.40035 4.58062 7.11364C4.70028 6.83234 4.73508 6.522 4.68049 6.2209C4.62464 5.91289 4.47783 5.62864 4.25894 5.40487L4.22075 5.36668C4.1813 5.32728 4.15001 5.28049 4.12866 5.22899C4.10731 5.17748 4.09632 5.12228 4.09632 5.06653C4.09632 5.01077 4.10731 4.95557 4.12866 4.90407C4.15001 4.85256 4.1813 4.80578 4.22075 4.76638L4.22127 4.76585C4.26067 4.72641 4.30746 4.69511 4.35897 4.67376C4.41047 4.65242 4.46567 4.64143 4.52143 4.64143C4.57718 4.64143 4.63238 4.65242 4.68388 4.67376C4.73539 4.69511 4.78244 4.72667 4.82184 4.76611L4.85454 4.79887L4.85979 4.80401C5.08357 5.0229 5.36779 5.16974 5.6758 5.22559C5.93919 5.27335 6.20965 5.2527 6.46157 5.16668C6.51765 5.15823 6.57257 5.14265 6.62496 5.1202C6.90579 4.99984 7.14529 4.79998 7.314 4.54524C7.4827 4.2905 7.57324 3.99199 7.57446 3.68646V3.59107C7.57446 3.47856 7.61915 3.37065 7.69871 3.29109ZM7.9987 1.8335C7.53256 1.8335 7.08551 2.01867 6.7559 2.34828C6.42629 2.67789 6.24112 3.12493 6.24112 3.59107V3.68201C6.24077 3.72721 6.2273 3.77135 6.20234 3.80904C6.18925 3.8288 6.17331 3.84634 6.15513 3.86115C6.11906 3.87027 6.08373 3.88243 6.04952 3.89753C6.00687 3.91635 5.95955 3.92197 5.91368 3.91365C5.86862 3.90548 5.82698 3.88423 5.79393 3.85258L5.76491 3.82357C5.60168 3.66015 5.40784 3.53052 5.19447 3.44207C4.98111 3.35362 4.7524 3.30809 4.52143 3.30809C4.29045 3.30809 4.06175 3.35362 3.84838 3.44207C3.63513 3.53047 3.44138 3.66001 3.2782 3.8233C3.11491 3.98648 2.98537 4.18023 2.89697 4.39348C2.80852 4.60685 2.76299 4.83555 2.76299 5.06653C2.76299 5.2975 2.80852 5.52621 2.89697 5.73957C2.98541 5.95294 3.11505 6.14678 3.27846 6.31001L3.30748 6.33903C3.33913 6.37208 3.36038 6.41372 3.36855 6.45878C3.37687 6.50466 3.37125 6.55197 3.35243 6.59462C3.34676 6.60747 3.34149 6.6205 3.33664 6.63368C3.32048 6.67762 3.29147 6.71568 3.25339 6.74292C3.21674 6.76914 3.17331 6.78416 3.12836 6.78622H3.08961C2.62347 6.78622 2.17642 6.9714 1.84681 7.301C1.5172 7.63061 1.33203 8.07766 1.33203 8.5438C1.33203 9.00994 1.5172 9.45698 1.84681 9.78659C2.17642 10.1162 2.62347 10.3014 3.08961 10.3014H3.18062C3.2258 10.3017 3.2699 10.3152 3.30758 10.3402C3.34552 10.3653 3.37525 10.401 3.39318 10.4428L3.39606 10.4493C3.41489 10.492 3.4205 10.5393 3.41218 10.5852C3.40401 10.6302 3.38277 10.6719 3.35113 10.7049L3.32184 10.7342C3.15855 10.8974 3.029 11.0911 2.9406 11.3044C2.85215 11.5178 2.80663 11.7465 2.80663 11.9774C2.80663 12.2084 2.85215 12.4371 2.9406 12.6505C3.02896 12.8636 3.15841 13.0573 3.32158 13.2204C3.48481 13.3838 3.67865 13.5134 3.89201 13.6019C4.10538 13.6903 4.33409 13.7359 4.56506 13.7359C4.79604 13.7359 5.02474 13.6903 5.23811 13.6019C5.45136 13.5135 5.64537 13.3837 5.80855 13.2204L5.83756 13.1914C5.87061 13.1597 5.91225 13.1385 5.95732 13.1303C6.00319 13.122 6.05051 13.1276 6.09316 13.1464C6.10601 13.1521 6.11903 13.1574 6.13221 13.1622C6.17616 13.1784 6.21422 13.2074 6.24146 13.2455C6.26767 13.2821 6.28269 13.3256 6.28476 13.3705V13.4093C6.28476 13.8754 6.46993 14.3224 6.79954 14.652C7.12915 14.9817 7.5762 15.1668 8.04233 15.1668C8.50847 15.1668 8.95552 14.9817 9.28513 14.652C9.61474 14.3224 9.79991 13.8754 9.79991 13.4093V13.3182C9.80027 13.2731 9.81374 13.229 9.8387 13.1913C9.86382 13.1533 9.89951 13.1236 9.94133 13.1057L9.94788 13.1028C9.99053 13.084 10.0378 13.0784 10.0837 13.0867C10.1288 13.0948 10.1704 13.1161 10.2035 13.1477L10.2325 13.1768C10.3957 13.3402 10.5896 13.4698 10.8029 13.5583C11.0163 13.6467 11.245 13.6922 11.476 13.6922C11.7069 13.6922 11.9357 13.6467 12.149 13.5583C12.3624 13.4698 12.5562 13.3402 12.7195 13.1768C12.7193 13.1769 12.7191 13.1771 12.7189 13.1773L12.2481 12.7059L12.7195 13.1768C12.8826 13.0136 13.0121 12.82 13.1004 12.6068C13.1889 12.3935 13.2344 12.1648 13.2344 11.9338C13.2344 11.7028 13.1889 11.4741 13.1004 11.2608C13.012 11.0474 12.8823 10.8535 12.7189 10.6903L12.6899 10.6613C12.6583 10.6282 12.637 10.5866 12.6288 10.5415C12.6205 10.4957 12.6262 10.4484 12.645 10.4057L12.6478 10.3991C12.6657 10.3573 12.6955 10.3217 12.7335 10.2965C12.7711 10.2716 12.8152 10.2581 12.8604 10.2577H12.9078C13.3739 10.2577 13.821 10.0726 14.1506 9.74296C14.4802 9.41335 14.6654 8.9663 14.6654 8.50016C14.6654 8.03402 14.4802 7.58698 14.1506 7.25737C13.821 6.92776 13.3739 6.74259 12.9078 6.74259H12.8169C12.7716 6.74224 12.7275 6.72877 12.6898 6.7038C12.6701 6.69072 12.6525 6.67477 12.6377 6.65659C12.6286 6.62052 12.6164 6.5852 12.6013 6.55099C12.5825 6.50833 12.5769 6.46102 12.5852 6.41514C12.5934 6.37008 12.6146 6.32844 12.6463 6.29539L12.6756 6.26611C12.8388 6.10293 12.9684 5.90919 13.0568 5.69594C13.1452 5.48257 13.1908 5.25386 13.1908 5.02289C13.1908 4.79192 13.1452 4.56321 13.0568 4.34984C12.9683 4.13648 12.8387 3.94264 12.6753 3.77941C12.5122 3.61624 12.3185 3.48679 12.1054 3.39843C11.892 3.30998 11.6633 3.26446 11.4323 3.26446C11.2014 3.26446 10.9727 3.30998 10.7593 3.39843C10.546 3.48683 10.352 3.61664 10.1888 3.77993L10.1598 3.80895C10.1268 3.8406 10.0851 3.86184 10.0401 3.87001C9.99421 3.87833 9.94691 3.87268 9.90425 3.85386L9.89768 3.85104C9.85586 3.83311 9.82019 3.80335 9.79506 3.76541C9.77011 3.72773 9.75664 3.68363 9.75627 3.63845V3.59107C9.75627 3.12493 9.5711 2.67789 9.24149 2.34828C8.91188 2.01867 8.46484 1.8335 7.9987 1.8335ZM7.33203 8.50016C7.33203 8.13197 7.63051 7.8335 7.9987 7.8335C8.36689 7.8335 8.66536 8.13197 8.66536 8.50016C8.66536 8.86835 8.36689 9.16683 7.9987 9.16683C7.63051 9.16683 7.33203 8.86835 7.33203 8.50016ZM7.9987 6.50016C6.89413 6.50016 5.9987 7.39559 5.9987 8.50016C5.9987 9.60473 6.89413 10.5002 7.9987 10.5002C9.10327 10.5002 9.9987 9.60473 9.9987 8.50016C9.9987 7.39559 9.10327 6.50016 7.9987 6.50016Z" fill="#C4C5CA"/>
</g>
<defs>
<clipPath id="clip0_6161_138776">
<rect width="16" height="16" fill="white" transform="translate(0 0.5)"/>
</clipPath>
</defs>
</svg>
