
<svg viewBox="0 0 24 24" fill="none" xmlns="http://www.w3.org/2000/svg">
<rect width="24" height="24" rx="6.00234" fill="url(#paint0_linear_1842_91031)"/>
<g clip-path="url(#clip0_1842_91031)">
<path d="M11.0903 11.0092V10.443C10.8941 10.4152 10.698 10.4036 10.4994 10.4012C8.08652 10.4012 6.125 12.3273 6.125 14.6965C6.125 16.0981 6.82217 17.4115 7.99199 18.2144C7.2641 17.4463 6.83162 16.4183 6.83162 15.2882C6.82926 12.9608 8.72225 11.0579 11.0903 11.0092Z" fill="#25F4EE"/>
<path d="M11.1954 17.2651C12.2707 17.2651 13.164 16.4111 13.2042 15.3623L13.2066 6.02228L14.9318 6.00835C14.894 5.81343 14.8751 5.61387 14.8751 5.41663H12.5L12.4952 14.7706C12.4574 15.8519 11.5334 16.6966 10.4345 16.6594C10.1343 16.6502 9.84127 16.5736 9.57422 16.4343C9.93816 16.9263 10.5266 17.2651 11.1954 17.2651Z" fill="#25F4EE"/>
<path d="M18.1797 9.19926V8.66323C17.5393 8.66323 16.913 8.47991 16.3789 8.13647C16.8421 8.65859 17.4684 9.04843 18.1797 9.19926Z" fill="#25F4EE"/>
<path d="M16.3807 8.1362C15.8561 7.54679 15.5678 6.79031 15.5678 6.00598H14.9297C15.0975 6.88081 15.6221 7.65121 16.3807 8.1362Z" fill="#FE2C55"/>
<path d="M10.4993 12.7323C9.39568 12.73 8.5 13.6071 8.5 14.6908C8.5 15.4218 8.91357 16.0947 9.57293 16.4312C8.92775 15.554 9.12863 14.3311 10.0196 13.6953C10.3599 13.454 10.7711 13.324 11.1918 13.324C11.3927 13.324 11.5912 13.3542 11.7826 13.4145V11.0337C11.5864 11.0059 11.3903 10.9919 11.1918 10.9919C11.1563 10.9919 11.1232 10.9943 11.0878 10.9943V12.8251C10.8987 12.7648 10.7002 12.7323 10.4993 12.7323Z" fill="#FE2C55"/>
<path d="M18.1842 9.18237V10.997C16.9978 10.9993 15.8398 10.6327 14.878 9.95278V14.6959C14.878 17.0651 12.9141 18.9911 10.5035 18.9911C9.60549 18.9911 8.73107 18.7196 7.99609 18.2114C8.82088 19.0863 9.98125 19.5828 11.196 19.5828C13.6089 19.5828 15.5704 17.6568 15.5704 15.2876V10.5445C16.5346 11.2244 17.6903 11.5911 18.8766 11.5887V9.25431C18.645 9.25431 18.4134 9.22878 18.1842 9.18237Z" fill="#FE2C55"/>
<path d="M14.8767 14.6962V9.95315C15.841 10.6331 16.9966 10.9997 18.183 10.9974V9.18274C17.4834 9.03423 16.8501 8.66759 16.3822 8.1362C15.6235 7.65121 15.0989 6.88081 14.9311 6.00598H13.1917L13.1894 15.3622C13.1515 16.4436 12.2275 17.2882 11.1262 17.2511C10.507 17.2302 9.93512 16.9286 9.5759 16.4343C8.5975 15.9331 8.21938 14.7473 8.72984 13.7889C9.07488 13.1415 9.75787 12.7331 10.5023 12.7354C10.7032 12.7354 10.9017 12.7656 11.0931 12.8259V10.9951C8.72748 11.0484 6.82031 12.9536 6.82031 15.288C6.82031 16.374 7.23861 17.4205 7.99486 18.2141C8.72985 18.7223 9.60426 18.9938 10.5023 18.9938C12.9129 18.9915 14.8767 17.0655 14.8767 14.6962Z" fill="white"/>
</g>
<defs>
<linearGradient id="paint0_linear_1842_91031" x1="1.584" y1="1.584" x2="21.48" y2="23.256" gradientUnits="userSpaceOnUse">
<stop stop-color="#004F54"/>
<stop offset="1" stop-opacity="0.933333"/>
</linearGradient>
<clipPath id="clip0_1842_91031">
<rect width="17" height="17" fill="white" transform="translate(4 4)"/>
</clipPath>
</defs>
</svg>
