
<svg  viewBox="0 0 24 24" fill="none" xmlns="http://www.w3.org/2000/svg">
<rect width="24" height="24" rx="6.00234" fill="url(#paint0_linear_1842_78105)"/>
<path d="M19.128 8.43754C18.9586 7.83197 18.4611 7.35762 17.8366 7.19613C16.6935 6.90344 12.1315 6.90344 12.1315 6.90344C12.1315 6.90344 7.55896 6.90344 6.42641 7.19613C5.80191 7.35762 5.30443 7.83197 5.13508 8.43754C4.82813 9.52756 4.82812 11.8085 4.82812 11.8085C4.82812 11.8085 4.82813 14.0895 5.13508 15.1795C5.30443 15.7851 5.80191 16.2594 6.42641 16.4209C7.56955 16.7136 12.1315 16.7136 12.1315 16.7136C12.1315 16.7136 16.7041 16.7136 17.8366 16.4209C18.4611 16.2594 18.9586 15.7851 19.128 15.1795C19.4349 14.0895 19.4349 11.8085 19.4349 11.8085C19.4349 11.8085 19.4349 9.52756 19.128 8.43754ZM10.6391 13.8775V9.7395L14.4601 11.8085L10.6391 13.8775Z" fill="url(#paint1_linear_1842_78105)"/>
<defs>
<linearGradient id="paint0_linear_1842_78105" x1="1.584" y1="1.584" x2="21.48" y2="23.256" gradientUnits="userSpaceOnUse">
<stop offset="1" stop-color="#FC4343"/>
</linearGradient>
<linearGradient id="paint1_linear_1842_78105" x1="5.51675" y1="7.30068" x2="14.6223" y2="18.7299" gradientUnits="userSpaceOnUse">
<stop stop-color="#F1F5F2"/>
<stop offset="1" stop-color="#EEEEEE"/>
</linearGradient>
</defs>
</svg>
