<svg width="11" height="10" viewBox="0 0 11 10" fill="none" xmlns="http://www.w3.org/2000/svg">
<path fill-rule="evenodd" clip-rule="evenodd" d="M9.90242 1.70711C10.2929 1.31658 10.2929 0.683417 9.90242 0.292893C9.5119 -0.0976311 8.87873 -0.0976311 8.48821 0.292893L5.19531 3.58579L1.90242 0.292893C1.5119 -0.0976311 0.87873 -0.0976311 0.488206 0.292893C0.0976814 0.683417 0.0976814 1.31658 0.488206 1.70711L3.7811 5L0.488206 8.29289C0.0976814 8.68342 0.0976814 9.31658 0.488206 9.70711C0.87873 10.0976 1.5119 10.0976 1.90242 9.70711L5.19531 6.41421L8.48821 9.70711C8.87873 10.0976 9.5119 10.0976 9.90242 9.70711C10.2929 9.31658 10.2929 8.68342 9.90242 8.29289L6.60953 5L9.90242 1.70711Z" fill="#8E8F98"/>
</svg>
