<svg width="328" height="80" viewBox="0 0 328 80" fill="none" xmlns="http://www.w3.org/2000/svg">
<rect width="328" height="80" fill="url(#paint0_linear_5448_154055)"/>
<g opacity="0.1" filter="url(#filter0_f_5448_154055)">
<path d="M44.352 30.296C41.5787 30.6373 38.2507 31.4693 34.368 32.792C30.528 34.1573 28.608 35.096 28.608 35.608C28.608 35.7787 28.736 35.8213 28.992 35.736C30.8267 35.4373 33.0453 35.1813 35.648 34.968C34.368 35.352 33.0027 35.8213 31.552 36.376C30.1013 36.9307 28.5653 37.5707 26.944 38.296C26.3893 38.5093 25.9627 38.616 25.664 38.616C24.5547 38.616 24 37.912 24 36.504C24 34.072 24.4053 32.1307 25.216 30.68C26.0693 29.1867 28.2667 27.6933 31.808 26.2C35.4347 24.664 38.72 23.5973 41.664 23C44.6507 22.36 47.296 22.04 49.6 22.04C54.592 22.04 58.5173 23.3627 61.376 26.008C64.2773 28.6533 65.728 32.3653 65.728 37.144C65.728 41.88 63.8293 46.4667 60.032 50.904C56.192 55.384 51.4987 58.7333 45.952 60.952C40.4907 63.1707 35.584 64.28 31.232 64.28C29.4827 64.28 28.416 64.0453 28.032 63.576C27.648 63.1493 27.456 62.0827 27.456 60.376C27.456 58.7973 28.0107 56.728 29.12 54.168C30.1867 51.864 32.1493 48.4293 35.008 43.864C37.7387 39.5547 40.8533 35.032 44.352 30.296ZM45.248 30.104C45.4187 31 45.504 31.6827 45.504 32.152C45.504 32.6213 45.248 33.2187 44.736 33.944C42.688 37.016 40.896 39.832 39.36 42.392C37.824 44.952 36.4587 47.2773 35.264 49.368C32.9173 53.3787 31.744 55.832 31.744 56.728C31.744 57.7093 32.9173 58.2 35.264 58.2C39.4027 58.2 43.648 57.24 48 55.32C52.352 53.3573 55.8293 50.8827 58.432 47.896C61.0347 44.9093 62.336 41.9227 62.336 38.936C62.336 35.864 61.2267 33.6027 59.008 32.152C56.832 30.6587 53.6107 29.912 49.344 29.912C48.064 29.912 46.6987 29.976 45.248 30.104ZM80.598 53.592C77.3127 57.2613 74.966 59.736 73.558 61.016C72.1927 62.296 71.062 62.936 70.166 62.936C69.3553 62.936 68.3953 61.9973 67.286 60.12C66.262 58.2 65.75 56.472 65.75 54.936C65.75 53.3573 66.2407 51.8213 67.222 50.328C68.1607 48.8773 70.1233 47.064 73.11 44.888C76.0967 42.712 78.614 41.1973 80.662 40.344C82.7527 39.4907 84.5233 39.064 85.974 39.064C86.23 39.064 86.486 39.1707 86.742 39.384C87.0407 39.5973 87.2967 39.8533 87.51 40.152C87.7233 40.4507 87.894 40.7707 88.022 41.112C88.1927 41.4533 88.278 41.752 88.278 42.008C88.278 42.5627 87.638 43.032 86.358 43.416C87.2113 45.208 87.638 46.3173 87.638 46.744C87.638 47.2987 87.0833 48.3227 85.974 49.816C84.8647 51.3093 84.1607 52.3333 83.862 52.888C83.5633 53.4427 83.414 54.1467 83.414 55C83.414 56.5787 84.0327 57.368 85.27 57.368C86.8487 57.368 89.2167 55.9813 92.374 53.208V55.128C87.126 60.9733 83.35 63.896 81.046 63.896C80.1927 63.896 79.5953 63.5973 79.254 63C78.9553 62.4453 78.806 61.5067 78.806 60.184C78.806 58.7333 79.4033 56.536 80.598 53.592ZM84.758 44.12C79.8513 46.296 76.118 48.3013 73.558 50.136C70.998 51.928 69.718 53.8053 69.718 55.768C69.718 57.2613 70.102 58.008 70.87 58.008C71.766 58.008 73.2593 57.1547 75.35 55.448C77.526 53.7413 80.662 49.9653 84.758 44.12ZM105.367 39.128C104.727 39.128 104.215 38.936 103.831 38.552C103.447 38.1253 103.255 37.528 103.255 36.76C103.255 36.0347 103.703 35.1173 104.599 34.008C105.495 32.8987 106.327 32.344 107.095 32.344C108.674 32.344 109.463 33.1547 109.463 34.776C109.463 35.5013 109.036 36.4187 108.183 37.528C107.372 38.5947 106.434 39.128 105.367 39.128ZM107.543 53.144V55.448C103.49 60.696 100.055 63.32 97.239 63.32C95.6177 63.32 94.4017 62.424 93.591 60.632C92.7803 58.968 92.375 57.176 92.375 55.256C92.375 52.3547 93.5697 49.3253 95.959 46.168C98.391 43.0107 100.61 41.432 102.615 41.432C103.895 41.432 104.535 41.9227 104.535 42.904C104.535 43.2453 104.215 44.0987 103.575 45.464C102.935 46.8293 101.783 48.344 100.119 50.008C99.2657 50.8613 98.6043 51.5653 98.135 52.12C97.6657 52.632 97.3457 52.9947 97.175 53.208C96.8763 53.6347 96.727 54.232 96.727 55C96.727 55.7253 97.0043 56.3653 97.559 56.92C98.1137 57.432 98.8603 57.688 99.799 57.688C100.738 57.688 101.804 57.3253 102.999 56.6C104.236 55.832 105.751 54.68 107.543 53.144ZM125.502 48.664C122.771 50.1147 119.422 53.5067 115.454 58.84C114.216 60.3333 113.448 61.2293 113.15 61.528C112.851 61.8267 112.51 61.976 112.126 61.976C111.358 61.976 110.718 61.272 110.206 59.864C109.694 58.456 109.438 57.0267 109.438 55.576C109.438 54.1253 109.566 53.0373 109.822 52.312C109.992 51.928 110.27 51.416 110.654 50.776C111.038 50.0933 111.55 49.2827 112.19 48.344C113.47 46.424 114.536 45.08 115.39 44.312C116.286 43.544 117.139 43.16 117.95 43.16C119.23 43.16 119.976 43.4587 120.19 44.056C120.403 44.6107 120.275 45.1653 119.806 45.72L118.718 46.936C115.432 50.6053 113.79 52.9733 113.79 54.04C113.79 54.6373 113.96 54.936 114.302 54.936C114.643 54.936 115.155 54.5307 115.838 53.72C119.934 48.856 123.219 45.5707 125.694 43.864C128.211 42.1147 129.875 41.24 130.686 41.24C130.984 41.24 131.304 41.752 131.646 42.776C131.816 43.288 131.944 43.736 132.03 44.12C132.158 44.4613 132.2 44.8027 132.158 45.144C132.115 45.4853 131.987 45.848 131.774 46.232C131.56 46.5733 131.24 47 130.814 47.512C128.126 50.3707 126.419 52.7387 125.694 54.616C124.968 56.4507 125.203 57.368 126.398 57.368C127.336 57.368 129.64 55.9173 133.31 53.016V55.192C132.115 56.4293 130.984 57.56 129.918 58.584C128.894 59.5653 127.912 60.44 126.974 61.208C126.078 61.976 125.267 62.5307 124.542 62.872C123.859 63.2133 123.262 63.4053 122.75 63.448C122.238 63.4907 121.79 63.4053 121.406 63.192C121.064 63.0213 120.808 62.7867 120.638 62.488C120.254 61.848 120.062 61.0373 120.062 60.056C120.062 59.0747 120.446 57.7733 121.214 56.152C121.64 55.2987 122.195 54.2533 122.878 53.016C123.603 51.7787 124.478 50.328 125.502 48.664ZM170.89 60.12L159.114 54.36C156.084 58.4133 154.42 61.0373 154.122 62.232C153.994 62.8293 153.759 63.3413 153.418 63.768C153.119 64.1947 152.778 64.5573 152.394 64.856C152.01 65.1973 151.604 65.432 151.178 65.56C150.794 65.7307 150.452 65.816 150.154 65.816C149.343 65.816 148.938 65.4107 148.938 64.6C148.938 64.3867 149.087 63.9173 149.386 63.192C149.727 62.5093 150.196 61.656 150.794 60.632C151.434 59.5653 152.18 58.392 153.034 57.112C153.93 55.7893 154.932 54.4027 156.042 52.952C154.975 52.568 154.271 52.2693 153.93 52.056C153.588 51.8427 153.418 51.5867 153.418 51.288C153.418 50.5627 153.823 49.6027 154.634 48.408C155.444 47.2133 156.191 46.5093 156.874 46.296C157.215 46.168 157.791 46.04 158.602 45.912C159.455 45.784 160.522 45.6347 161.802 45.464C162.911 43.928 164.276 42.072 165.898 39.896C167.519 37.72 169.439 35.16 171.658 32.216C169.098 32.6427 166.964 33.0053 165.258 33.304C163.551 33.56 162.271 33.7947 161.418 34.008C159.754 34.392 158.922 34.7547 158.922 35.096C158.922 35.3947 159.348 35.544 160.202 35.544C162.42 35.544 163.53 35.736 163.53 36.12C163.53 36.248 163.38 36.3333 163.082 36.376C162.911 36.4187 162.399 36.4613 161.546 36.504C160.692 36.504 159.476 36.5467 157.898 36.632C154.74 36.76 153.14 36.824 153.098 36.824C152.671 36.824 152.308 36.6747 152.01 36.376C151.711 36.0773 151.562 35.736 151.562 35.352C151.562 34.2427 152.287 32.6427 153.738 30.552C155.188 28.4187 158.26 26.7973 162.954 25.688C167.604 24.536 172.383 23.96 177.29 23.96C182.154 23.96 186.292 24.664 189.706 26.072C193.119 27.48 194.826 29.8267 194.826 33.112C194.826 34.904 194.356 36.6747 193.418 38.424C192.479 40.1733 191.092 41.7093 189.258 43.032C187.423 44.3547 183.903 45.5493 178.698 46.616C173.62 47.5973 168.01 48.2587 161.866 48.6C168.138 50.904 173.066 52.8667 176.65 54.488C180.276 56.0667 182.73 57.2613 184.01 58.072C185.332 58.8827 186.058 59.5867 186.186 60.184C186.356 60.6533 186.442 61.592 186.442 63C186.442 64.2373 186.356 65.2613 186.186 66.072C186.058 66.8827 185.716 67.288 185.162 67.288C184.65 67.288 183.583 66.7973 181.962 65.816C181.151 65.3467 179.828 64.6213 177.994 63.64C176.202 62.7013 173.834 61.528 170.89 60.12ZM173.642 31.896C173.684 32.0667 173.706 32.216 173.706 32.344C173.748 32.472 173.77 32.6 173.77 32.728C173.77 33.8373 173.044 35.416 171.594 37.464C170.186 39.512 168.33 41.944 166.026 44.76C171.018 43.8213 175.156 42.9467 178.442 42.136C181.727 41.2827 184.223 40.4507 185.93 39.64C189.3 38.0613 190.986 36.5253 190.986 35.032C190.986 33.88 189.919 33.0053 187.786 32.408C185.524 31.8107 183.135 31.512 180.618 31.512C178.015 31.512 175.69 31.64 173.642 31.896ZM200.061 54.296V55.064C200.061 56.3013 200.338 57.2613 200.893 57.944C201.49 58.6267 202.429 58.968 203.709 58.968C205.031 58.968 206.482 58.4773 208.061 57.496C209.682 56.5147 211.581 55.064 213.757 53.144V55.064C208.893 60.9093 204.583 63.832 200.829 63.832C198.909 63.832 197.415 63.0853 196.349 61.592C195.325 60.056 194.812 58.1147 194.812 55.768C194.812 53.336 195.602 50.9467 197.181 48.6C198.759 46.2107 200.85 44.2053 203.453 42.584C206.013 40.92 208.231 40.088 210.109 40.088C211.133 40.088 211.943 40.3227 212.541 40.792C213.138 41.2613 213.437 41.9227 213.437 42.776C213.437 46.7867 208.978 50.6267 200.061 54.296ZM200.381 52.248C203.197 51.1387 205.351 49.7307 206.845 48.024C208.338 46.2747 209.085 45.016 209.085 44.248C209.085 43.7787 208.85 43.544 208.381 43.544C207.399 43.544 205.927 44.44 203.965 46.232C202.002 47.9387 200.807 49.944 200.381 52.248ZM218.358 53.208L217.782 55.832C217.739 56.0453 217.697 56.2373 217.654 56.408C217.654 56.5787 217.654 56.7493 217.654 56.92C217.654 58.072 218.102 58.648 218.998 58.648C219.894 58.648 222.091 56.8987 225.59 53.4C225.59 51.608 226.593 49.2613 228.598 46.36C230.646 43.5013 232.139 42.072 233.078 42.072C233.718 42.072 234.145 42.392 234.358 43.032C234.571 43.6293 234.55 44.4613 234.294 45.528C234.038 46.5947 233.526 47.832 232.758 49.24C232.033 50.648 231.051 52.1413 229.814 53.72C230.07 54.1893 230.326 54.552 230.582 54.808C230.881 55.0213 231.222 55.128 231.606 55.128C231.99 55.0853 232.459 54.9147 233.014 54.616C233.569 54.2747 234.23 53.784 234.998 53.144V55.256C234.102 55.896 233.355 56.408 232.758 56.792C232.203 57.176 231.649 57.432 231.094 57.56C230.582 57.688 230.027 57.688 229.43 57.56C228.875 57.432 228.193 57.176 227.382 56.792C226.145 58.1147 225.057 59.224 224.118 60.12C223.179 60.9733 222.411 61.6347 221.814 62.104C220.619 63.0427 219.659 63.512 218.934 63.512C217.483 63.512 216.246 62.68 215.222 61.016C214.241 59.2667 213.75 57.5173 213.75 55.768C213.75 53.9333 214.177 52.1413 215.03 50.392C215.926 48.6427 217.014 47 218.294 45.464C218.934 44.696 219.467 44.0987 219.894 43.672C220.363 43.2027 220.705 42.8827 220.918 42.712C221.345 42.4133 221.942 42.264 222.71 42.264C223.435 42.264 224.033 42.392 224.502 42.648C225.014 42.8613 225.27 43.1173 225.27 43.416C225.27 44.44 224.609 45.9333 223.286 47.896C221.963 49.8587 220.321 51.6293 218.358 53.208ZM247.992 39.128C247.352 39.128 246.84 38.936 246.456 38.552C246.072 38.1253 245.88 37.528 245.88 36.76C245.88 36.0347 246.328 35.1173 247.224 34.008C248.12 32.8987 248.952 32.344 249.72 32.344C251.299 32.344 252.088 33.1547 252.088 34.776C252.088 35.5013 251.661 36.4187 250.808 37.528C249.997 38.5947 249.059 39.128 247.992 39.128ZM250.168 53.144V55.448C246.115 60.696 242.68 63.32 239.864 63.32C238.243 63.32 237.027 62.424 236.216 60.632C235.405 58.968 235 57.176 235 55.256C235 52.3547 236.195 49.3253 238.584 46.168C241.016 43.0107 243.235 41.432 245.24 41.432C246.52 41.432 247.16 41.9227 247.16 42.904C247.16 43.2453 246.84 44.0987 246.2 45.464C245.56 46.8293 244.408 48.344 242.744 50.008C241.891 50.8613 241.229 51.5653 240.76 52.12C240.291 52.632 239.971 52.9947 239.8 53.208C239.501 53.6347 239.352 54.232 239.352 55C239.352 55.7253 239.629 56.3653 240.184 56.92C240.739 57.432 241.485 57.688 242.424 57.688C243.363 57.688 244.429 57.3253 245.624 56.6C246.861 55.832 248.376 54.68 250.168 53.144ZM257.311 54.296V55.064C257.311 56.3013 257.588 57.2613 258.143 57.944C258.74 58.6267 259.679 58.968 260.959 58.968C262.281 58.968 263.732 58.4773 265.311 57.496C266.932 56.5147 268.831 55.064 271.007 53.144V55.064C266.143 60.9093 261.833 63.832 258.079 63.832C256.159 63.832 254.665 63.0853 253.599 61.592C252.575 60.056 252.062 58.1147 252.062 55.768C252.062 53.336 252.852 50.9467 254.431 48.6C256.009 46.2107 258.1 44.2053 260.703 42.584C263.263 40.92 265.481 40.088 267.359 40.088C268.383 40.088 269.193 40.3227 269.791 40.792C270.388 41.2613 270.687 41.9227 270.687 42.776C270.687 46.7867 266.228 50.6267 257.311 54.296ZM257.631 52.248C260.447 51.1387 262.601 49.7307 264.095 48.024C265.588 46.2747 266.335 45.016 266.335 44.248C266.335 43.7787 266.1 43.544 265.631 43.544C264.649 43.544 263.177 44.44 261.215 46.232C259.252 47.9387 258.057 49.944 257.631 52.248ZM275.8 53.4C275.459 54.5093 275.245 55.384 275.16 56.024C275.075 56.6213 275.053 57.0693 275.096 57.368C275.181 57.624 275.309 57.7947 275.48 57.88C275.651 57.9653 275.821 58.0507 275.992 58.136C276.845 58.136 278.509 56.7707 280.984 54.04C283.459 51.3093 286.637 47.2987 290.52 42.008C290.691 41.7947 291.011 41.688 291.48 41.688C291.992 41.688 292.461 41.816 292.888 42.072C293.315 42.328 293.528 42.6053 293.528 42.904C293.528 43.032 292.973 44.2693 291.864 46.616C289.176 52.2053 287.832 55.6827 287.832 57.048C287.832 57.8587 288.237 58.264 289.048 58.264C289.859 58.264 291.416 56.7067 293.72 53.592C293.677 53.3787 293.635 53.1867 293.592 53.016C293.592 52.8453 293.592 52.7173 293.592 52.632C293.592 51.4373 293.997 50.0507 294.808 48.472C295.235 47.6613 295.704 46.8933 296.216 46.168C296.728 45.4427 297.283 44.7813 297.88 44.184C299.075 42.904 300.013 42.264 300.696 42.264C301.421 42.264 301.784 43.1387 301.784 44.888C301.784 47.5333 300.589 50.3707 298.2 53.4C299.011 54.2533 299.736 54.68 300.376 54.68C301.016 54.68 301.891 54.1253 303 53.016V55.256C301.421 56.9627 299.992 57.816 298.712 57.816C298.029 57.816 297.475 57.7307 297.048 57.56C296.664 57.3893 296.152 57.0693 295.512 56.6C291.672 61.208 288.749 63.512 286.744 63.512C285.08 63.512 284.248 62.424 284.248 60.248C284.248 59.6507 284.291 58.8827 284.376 57.944C284.504 56.9627 284.675 55.8533 284.888 54.616C281.731 58.4133 279.576 60.7813 278.424 61.72C277.315 62.5733 276.483 63 275.928 63C274.904 63 273.816 62.232 272.664 60.696C271.555 59.0747 271 57.2187 271 55.128C271 53.6773 271.341 52.2907 272.024 50.968C272.749 49.6027 273.944 47.832 275.608 45.656C276.461 44.5893 277.229 43.6933 277.912 42.968C278.595 42.2427 279.171 41.7093 279.64 41.368C280.621 40.6427 281.368 40.28 281.88 40.28C282.136 40.28 282.413 40.344 282.712 40.472C283.053 40.5573 283.373 40.6853 283.672 40.856C283.971 40.984 284.205 41.1333 284.376 41.304C284.589 41.4747 284.696 41.624 284.696 41.752C284.696 42.9467 283.907 44.568 282.328 46.616C280.792 48.664 278.616 50.9253 275.8 53.4Z" fill="#A9ABB1"/>
</g>
<path d="M123.251 29.398V40.162C123.359 40.186 123.461 40.21 123.557 40.234C123.665 40.258 123.773 40.288 123.881 40.324C124.673 40.552 125.489 40.666 126.329 40.666C127.169 40.666 127.985 40.552 128.777 40.324V41.224C127.985 41.452 127.169 41.566 126.329 41.566C125.489 41.566 124.673 41.452 123.881 41.224C123.089 40.996 122.273 40.882 121.433 40.882C120.593 40.882 119.777 40.996 118.985 41.224V29.398H118.085V28.498H128.597V29.398H123.251ZM129.731 28.084H133.997V33.862H135.689V34.762H133.997V41.584H129.731V28.084ZM147.128 31.864C147.128 34.336 145.376 35.572 141.872 35.572C138.368 35.572 136.616 34.336 136.616 31.864C136.616 29.392 138.368 28.156 141.872 28.156C145.376 28.156 147.128 29.392 147.128 31.864ZM148.442 28.084H152.708V37.804H148.442V28.084ZM152.888 41.224C151.604 41.536 150.32 41.692 149.036 41.692C147.764 41.692 146.486 41.536 145.202 41.224C143.918 40.912 142.634 40.756 141.35 40.756C140.078 40.756 138.8 40.912 137.516 41.224V36.238H141.782V39.874C142.358 39.898 142.928 39.946 143.492 40.018C144.056 40.09 144.626 40.192 145.202 40.324C146.486 40.636 147.764 40.792 149.036 40.792C150.32 40.792 151.604 40.636 152.888 40.324V41.224ZM140.846 31.864C140.846 32.428 140.87 32.89 140.918 33.25C140.966 33.61 141.032 33.898 141.116 34.114C141.2 34.318 141.302 34.462 141.422 34.546C141.554 34.63 141.704 34.672 141.872 34.672C142.028 34.672 142.172 34.63 142.304 34.546C142.436 34.462 142.544 34.318 142.628 34.114C142.712 33.898 142.778 33.61 142.826 33.25C142.874 32.89 142.898 32.428 142.898 31.864C142.898 31.3 142.874 30.838 142.826 30.478C142.778 30.118 142.712 29.836 142.628 29.632C142.544 29.416 142.436 29.266 142.304 29.182C142.172 29.098 142.028 29.056 141.872 29.056C141.704 29.056 141.554 29.098 141.422 29.182C141.302 29.266 141.2 29.416 141.116 29.632C141.032 29.836 140.966 30.118 140.918 30.478C140.87 30.838 140.846 31.3 140.846 31.864ZM163.644 29.506V30.406H161.52L163.698 41.404H159.954L158.19 32.494L156.426 41.404H155.328L157.506 30.406H155.418V29.506H163.644ZM164.292 34.762H162.942V33.862H164.292V28.084H167.694V41.584H164.292V34.762ZM168.198 28.084H171.6V41.584H168.198V28.084ZM162.294 27.688V28.588H156.768V27.688H162.294ZM185.514 33.43H184.2C184.188 33.814 184.092 34.156 183.912 34.456C183.732 34.744 183.438 34.99 183.03 35.194C182.634 35.398 182.118 35.554 181.482 35.662C180.846 35.77 180.06 35.824 179.124 35.824C178.176 35.824 177.378 35.77 176.73 35.662C176.082 35.542 175.56 35.38 175.164 35.176C174.768 34.96 174.48 34.702 174.3 34.402C174.132 34.09 174.048 33.736 174.048 33.34C174.048 32.944 174.132 32.596 174.3 32.296C174.48 31.984 174.768 31.726 175.164 31.522C175.56 31.306 176.082 31.144 176.73 31.036C177.378 30.916 178.176 30.856 179.124 30.856C180.66 30.856 181.812 31.006 182.58 31.306C183.348 31.594 183.84 32.002 184.056 32.53H185.514V28.084H189.78V36.184H185.514V33.43ZM189.78 41.224C188.496 41.536 187.212 41.692 185.928 41.692C184.656 41.692 183.378 41.536 182.094 41.224C180.81 40.912 179.526 40.756 178.242 40.756C176.97 40.756 175.692 40.912 174.408 41.224V36.778H189.78V41.224ZM182.094 40.324C182.67 40.456 183.246 40.558 183.822 40.63C184.398 40.714 184.974 40.762 185.55 40.774V37.678H178.638V39.874C179.814 39.898 180.966 40.048 182.094 40.324ZM184.56 29.272V30.172H173.688V29.272H184.56ZM182.94 27.688V28.588H175.308V27.688H182.94ZM178.26 33.34C178.26 33.88 178.332 34.282 178.476 34.546C178.632 34.798 178.848 34.924 179.124 34.924C179.4 34.924 179.61 34.798 179.754 34.546C179.91 34.282 179.988 33.88 179.988 33.34C179.988 32.8 179.91 32.404 179.754 32.152C179.61 31.888 179.4 31.756 179.124 31.756C178.848 31.756 178.632 31.888 178.476 32.152C178.332 32.404 178.26 32.8 178.26 33.34ZM203.506 28.084H207.772V32.512H209.464V33.412H207.772V37.804H203.506V28.084ZM202.552 34.384V35.284H192.76V29.398H191.86V28.498H202.372V29.398H197.026V34.384H202.552ZM207.952 41.224C206.716 41.524 205.45 41.674 204.154 41.674C202.858 41.674 201.592 41.524 200.356 41.224C199.12 40.924 197.854 40.774 196.558 40.774C195.262 40.774 193.996 40.924 192.76 41.224V36.238H197.026V39.892C197.59 39.916 198.148 39.958 198.7 40.018C199.264 40.09 199.816 40.192 200.356 40.324C201.592 40.624 202.858 40.774 204.154 40.774C205.45 40.774 206.716 40.624 207.952 40.324V41.224Z" fill="#F0F1F2"/>
<path opacity="0.7" d="M71.5391 50.1406C73.0156 50.1484 74.0781 50.8672 74.0781 51.9609C74.0781 52.9961 73.1562 53.6836 71.8359 53.7656V55.2266H74.7344V55.7422H68.375V55.2266H71.2344V53.7656C69.918 53.6797 69 52.9922 69 51.9609C69 50.8672 70.0625 50.1484 71.5391 50.1406ZM71.5391 50.6484C70.4141 50.6484 69.5938 51.1797 69.5938 51.9609C69.5938 52.7656 70.4141 53.2812 71.5391 53.2891C72.6641 53.2812 73.4844 52.7656 73.4844 51.9609C73.4844 51.1797 72.6641 50.6484 71.5391 50.6484ZM77.7891 50.9766C77.7891 51.9141 78.5312 52.7656 79.5703 53.1016L79.2578 53.5781C78.4492 53.3047 77.8047 52.7305 77.4922 51.9922C77.1875 52.7852 76.5352 53.4102 75.7109 53.7109L75.3906 53.2344C76.4297 52.8672 77.1719 51.9609 77.1719 50.9766V50.6797H75.5469V50.1797H79.3906V50.6797H77.7891V50.9766ZM81.0234 49.6875V53.8906H80.4141V49.6875H81.0234ZM81.0234 54.2578V56.6328H80.4141V54.7656H76.3516V54.2578H81.0234ZM89.5859 49.6875V52.4375H90.75V52.9531H89.5859V56.6484H88.9766V49.6875H89.5859ZM87.7578 50.3672V50.875H85.125V54.3906C86.3828 54.3906 87.2734 54.332 88.3047 54.1406L88.3828 54.6719C87.2969 54.8672 86.3828 54.9062 85.0625 54.9062H84.5156V50.3672H87.7578ZM96.8594 49.6953V54.7734H96.25V49.6953H96.8594ZM97.0781 55.9688V56.4844H92.375V54.2578H92.9844V55.9688H97.0781ZM93.1094 50.1797C94.1484 50.1797 94.9297 50.8828 94.9297 51.8828C94.9297 52.8984 94.1484 53.5938 93.1094 53.5938C92.0703 53.5938 91.2891 52.8984 91.2891 51.8828C91.2891 50.8828 92.0703 50.1797 93.1094 50.1797ZM93.1094 50.7188C92.4062 50.7188 91.8828 51.2031 91.8906 51.8828C91.8828 52.5781 92.4062 53.0547 93.1094 53.0547C93.7969 53.0547 94.3281 52.5781 94.3281 51.8828C94.3281 51.2031 93.7969 50.7188 93.1094 50.7188ZM100.07 51.8281C100.07 52.9453 100.641 54.0859 101.586 54.5938L101.234 55.0547C100.543 54.6797 100.043 53.9609 99.7891 53.125C99.5391 54.0156 99.043 54.7891 98.3516 55.2109L97.9844 54.7422C98.9297 54.1953 99.4844 52.9766 99.4922 51.8281V51.4844H98.1719V50.9766H99.4922V49.9453H100.078V50.9766H101.375V51.4844H100.07V51.8281ZM103.977 49.6875V56.6328H103.391V49.6875H103.977ZM102.57 49.8594V56.2734H101.992V52.9531H100.898V52.4297H101.992V49.8594H102.57ZM110.711 49.6875V53.8984H110.094V52.3125H108.914V51.8047H110.094V49.6875H110.711ZM110.711 54.2734V56.5391H106.172V54.2734H110.711ZM106.781 54.7656V56.0391H110.109V54.7656H106.781ZM109.016 50.4219V50.9219H104.961V50.4219H106.688V49.625H107.289V50.4219H109.016ZM106.984 51.2812C107.93 51.2812 108.594 51.7891 108.602 52.5156C108.594 53.2656 107.93 53.7578 106.984 53.7578C106.039 53.7578 105.375 53.2656 105.375 52.5156C105.375 51.7891 106.039 51.2812 106.984 51.2812ZM106.984 51.7578C106.383 51.7578 105.961 52.0703 105.961 52.5156C105.961 52.9766 106.383 53.2812 106.984 53.2891C107.586 53.2812 108.008 52.9766 108.008 52.5156C108.008 52.0703 107.586 51.7578 106.984 51.7578ZM117.297 49.6875V51.7578H118.352V52.2734H117.297V54.7188H116.688V49.6875H117.297ZM115.289 50.2891V50.8047H112.805V52.9688C114.199 52.9688 114.992 52.9336 115.922 52.7422L116 53.25C115.023 53.4375 114.195 53.4844 112.734 53.4844H112.195V50.2891H115.289ZM117.617 55.9688V56.4844H112.953V54.2109H113.555V55.9688H117.617ZM124.734 49.6875V56.6328H124.141V49.6875H124.734ZM123.336 49.8359V56.2812H122.75V52.9062H121.859C121.793 54.2578 121.219 55.1016 120.359 55.1016C119.453 55.1016 118.867 54.1641 118.867 52.6875C118.867 51.2109 119.453 50.2734 120.359 50.2734C121.203 50.2734 121.773 51.0898 121.852 52.3984H122.75V49.8359H123.336ZM120.359 50.8516C119.797 50.8516 119.438 51.5547 119.445 52.6875C119.438 53.8125 119.797 54.5234 120.359 54.5156C120.922 54.5234 121.281 53.8125 121.281 52.6875C121.281 51.5547 120.922 50.8516 120.359 50.8516ZM128.141 51.5547C128.141 52.8125 128.945 54.0781 129.953 54.5391L129.586 55.0391C128.797 54.6328 128.145 53.8008 127.836 52.8125C127.527 53.8516 126.875 54.7422 126.086 55.1641L125.688 54.6719C126.703 54.1719 127.516 52.8359 127.516 51.5547V50.2891H128.141V51.5547ZM131.453 49.6875V56.6484H130.844V52.5625H129.195V52.0625H130.844V49.6875H131.453ZM136.117 50.3203V53.5156H132.906V50.3203H136.117ZM133.508 50.8203V53.0234H135.523V50.8203H133.508ZM138.039 49.6875V51.8047H139.086V52.3203H138.039V54.7812H137.43V49.6875H138.039ZM138.359 55.9688V56.4844H133.695V54.2969H134.297V55.9688H138.359ZM145.039 50.3203V53.5156H141.828V50.3203H145.039ZM142.43 50.8203V53.0234H144.445V50.8203H142.43ZM146.961 49.6875V51.8047H148.008V52.3203H146.961V54.7812H146.352V49.6875H146.961ZM147.281 55.9688V56.4844H142.617V54.2969H143.219V55.9688H147.281ZM154.945 52.4609V52.9766H153.82V56.6328H153.211V49.6875H153.82V52.4609H154.945ZM149.344 50.375V54.3516C150.359 54.3477 151.395 54.2695 152.539 54.0312L152.617 54.5547C151.422 54.7969 150.344 54.8672 149.289 54.8672H148.734V50.375H149.344ZM156.812 49.8047V50.4688H160.25V49.8047H160.859V52.0859H158.812V52.7734H161.688V53.2734H155.359V52.7734H158.211V52.0859H156.203V49.8047H156.812ZM156.812 51.6094H160.25V50.9375H156.812V51.6094ZM160.875 53.8516V55.3906H156.75V56.0703H161.086V56.5547H156.141V54.9375H160.273V54.3203H156.125V53.8516H160.875ZM167.766 50.3359C167.766 51.3125 169.047 52.1641 170.297 52.3359L170.047 52.8359C168.969 52.6562 167.902 52.0586 167.453 51.2031C167.008 52.0625 165.938 52.6562 164.859 52.8359L164.609 52.3359C165.859 52.1641 167.133 51.3281 167.133 50.3359V49.9375H167.766V50.3359ZM170.609 53.6016V54.1172H167.734V56.6328H167.133V54.1172H164.281V53.6016H170.609ZM175.555 54.3516C175.555 54.9648 175.883 55.6172 176.547 55.9922C177.203 55.582 177.555 54.8906 177.555 54.3516V53.9688H178.156V54.3516C178.156 55.0625 178.68 55.7812 179.57 56.0859L179.266 56.5391C178.57 56.293 178.082 55.8086 177.844 55.2266C177.629 55.7891 177.203 56.3203 176.562 56.5938C175.887 56.3359 175.457 55.8242 175.25 55.2422C175.004 55.8047 174.523 56.2891 173.859 56.5391L173.547 56.0859C174.422 55.7578 174.953 55.0156 174.961 54.3516V53.9688H175.555V54.3516ZM178.938 49.6953V53.6641H178.328V49.6953H178.938ZM175.188 50.1016C176.242 50.1016 177.008 50.7578 177.008 51.7266C177.008 52.6797 176.242 53.3359 175.188 53.3359C174.133 53.3359 173.367 52.6797 173.367 51.7266C173.367 50.7578 174.133 50.1016 175.188 50.1016ZM175.188 50.625C174.477 50.6172 173.961 51.0781 173.969 51.7266C173.961 52.3672 174.477 52.8203 175.188 52.8281C175.891 52.8203 176.406 52.3672 176.406 51.7266C176.406 51.0781 175.891 50.6172 175.188 50.625ZM185.734 51.7969V52.2891H180.977V49.9453H181.586V51.7969H185.734ZM186.469 53.2344V53.7344H180.109V53.2344H186.469ZM185.773 55.9531V56.4609H180.938V54.4453H181.547V55.9531H185.773ZM195.398 55.2188V55.7422H189.039V55.2188H195.398ZM194.789 50.3906V50.8984H193.688V53.3281H194.773V53.8281H189.617V53.3281H190.703V50.8984H189.602V50.3906H194.789ZM191.312 53.3281H193.086V50.8984H191.312V53.3281ZM201.688 49.6875V56.6484H201.078V49.6875H201.688ZM199.578 50.3359V52.8047H196.984V54.4453C198.137 54.4453 199.164 54.3945 200.406 54.1953L200.469 54.7109C199.188 54.9141 198.133 54.9609 196.938 54.9609H196.359V52.3047H198.961V50.8438H196.344V50.3359H199.578ZM206.484 50.375V54.8906H203.273V50.375H206.484ZM203.875 50.8672V54.3906H205.883V50.8672H203.875ZM208.594 49.6875V56.6484H207.977V49.6875H208.594ZM211.695 50.0938C212.625 50.0859 213.332 50.6406 213.469 51.4531H214.922V49.6875H215.539V53.6797H214.922V51.9609H213.477C213.359 52.8086 212.641 53.3672 211.695 53.3672C210.648 53.3672 209.891 52.7031 209.891 51.7266C209.891 50.7656 210.648 50.0859 211.695 50.0938ZM211.695 50.6094C210.984 50.6094 210.477 51.0703 210.477 51.7266C210.477 52.3906 210.984 52.8438 211.695 52.8516C212.383 52.8438 212.898 52.3906 212.898 51.7266C212.898 51.0703 212.383 50.6094 211.695 50.6094ZM215.539 54.0391V56.5391H211V54.0391H215.539ZM211.609 54.5391V56.0391H214.938V54.5391H211.609ZM219.859 49.8125C221.406 49.8125 222.312 50.2344 222.312 51.0078C222.312 51.7969 221.406 52.2188 219.859 52.2266C218.312 52.2188 217.398 51.7969 217.398 51.0078C217.398 50.2344 218.312 49.8125 219.859 49.8125ZM219.859 50.2734C218.703 50.2734 218.031 50.5547 218.039 51.0078C218.031 51.4922 218.703 51.7578 219.859 51.7578C221.008 51.7578 221.688 51.4922 221.688 51.0078C221.688 50.5547 221.008 50.2734 219.859 50.2734ZM223.023 52.6953V53.1953H216.695V52.6953H223.023ZM222.211 53.7969V55.3516H218.086V56.0703H222.422V56.5547H217.477V54.8984H221.609V54.2656H217.461V53.7969H222.211ZM229.125 50.3203V53.5156H225.914V50.3203H229.125ZM226.516 50.8203V53.0234H228.531V50.8203H226.516ZM231.047 49.6875V51.8047H232.094V52.3203H231.047V54.7812H230.438V49.6875H231.047ZM231.367 55.9688V56.4844H226.703V54.2969H227.305V55.9688H231.367ZM239.031 52.4609V52.9766H237.906V56.6328H237.297V49.6875H237.906V52.4609H239.031ZM233.43 50.375V54.3516C234.445 54.3477 235.48 54.2695 236.625 54.0312L236.703 54.5547C235.508 54.7969 234.43 54.8672 233.375 54.8672H232.82V50.375H233.43ZM245.805 55.2344V55.7422H239.445V55.2344H242.305V53.7344H240.195V50.1797H240.812V51.4375H244.422V50.1797H245.023V53.7344H242.906V55.2344H245.805ZM240.812 53.2344H244.422V51.9375H240.812V53.2344ZM248.422 51.6641C248.422 52.7656 248.961 53.9609 249.883 54.5078L249.531 54.9844C248.863 54.5781 248.383 53.8359 248.141 52.9922C247.883 53.9141 247.367 54.707 246.672 55.1328L246.281 54.6719C247.242 54.1094 247.828 52.875 247.828 51.6875V50.3438H248.422V51.6641ZM252.312 49.6875V56.6328H251.719V49.6875H252.312ZM250.875 49.8359V56.2812H250.297V52.7031H249.117V52.1797H250.297V49.8359H250.875ZM259.633 55.2266V55.7422H253.273V55.2266H254.852V53.3516C254.258 53.043 253.898 52.543 253.898 51.9141C253.898 50.8359 254.953 50.1328 256.438 50.125C257.922 50.1328 258.977 50.8359 258.977 51.9141C258.977 52.5312 258.629 53.0273 258.055 53.3359V55.2266H259.633ZM256.438 50.6328C255.297 50.625 254.492 51.1406 254.492 51.9141C254.492 52.6875 255.297 53.2109 256.438 53.2109C257.57 53.2109 258.383 52.6875 258.383 51.9141C258.383 51.1406 257.57 50.625 256.438 50.6328ZM255.453 55.2266H257.438V53.5703C257.137 53.6523 256.801 53.6953 256.438 53.6953C256.082 53.6953 255.75 53.6562 255.453 53.5781V55.2266Z" fill="#F0F1F2"/>
<defs>
<filter id="filter0_f_5448_154055" x="22" y="20.0391" width="283" height="49.25" filterUnits="userSpaceOnUse" color-interpolation-filters="sRGB">
<feFlood flood-opacity="0" result="BackgroundImageFix"/>
<feBlend mode="normal" in="SourceGraphic" in2="BackgroundImageFix" result="shape"/>
<feGaussianBlur stdDeviation="1" result="effect1_foregroundBlur_5448_154055"/>
</filter>
<linearGradient id="paint0_linear_5448_154055" x1="0" y1="40" x2="328" y2="40" gradientUnits="userSpaceOnUse">
<stop/>
<stop offset="1" stop-color="#3C3C3C"/>
</linearGradient>
</defs>
</svg>
