<svg width="24" height="24" viewBox="0 0 24 24" fill="none" xmlns="http://www.w3.org/2000/svg">
<g clip-path="url(#clip0_6488_57191)">
<path fill-rule="evenodd" clip-rule="evenodd" d="M12 20C16.4183 20 20 16.4183 20 12C20 7.58172 16.4183 4 12 4C7.58172 4 4 7.58172 4 12C4 16.4183 7.58172 20 12 20ZM15.7657 8.23431C16.0781 8.54673 16.0781 9.05327 15.7657 9.36569L13.1314 12L15.7657 14.6343C16.0781 14.9467 16.0781 15.4533 15.7657 15.7657C15.4533 16.0781 14.9467 16.0781 14.6343 15.7657L12 13.1314L9.36569 15.7657C9.05327 16.0781 8.54673 16.0781 8.23431 15.7657C7.9219 15.4533 7.9219 14.9467 8.23431 14.6343L10.8686 12L8.23431 9.36569C7.9219 9.05327 7.9219 8.54673 8.23431 8.23431C8.54673 7.9219 9.05327 7.9219 9.36569 8.23431L12 10.8686L14.6343 8.23431C14.9467 7.9219 15.4533 7.9219 15.7657 8.23431Z" fill="#A9ABB1"/>
</g>
<defs>
<clipPath id="clip0_6488_57191">
<rect width="24" height="24" fill="white"/>
</clipPath>
</defs>
</svg>
