<svg width="24" height="24" viewBox="0 0 24 24" fill="none" xmlns="http://www.w3.org/2000/svg">
<path d="M9.51132 9.0945C9.51132 9.1783 9.51132 9.2621 9.51161 9.3459C9.51189 9.55681 9.50833 9.76773 9.51602 9.97865C9.51959 10.0251 9.52201 10.0721 9.5337 10.1175C9.54666 10.1696 9.57203 10.2195 9.61008 10.258C9.64589 10.2956 9.69288 10.3205 9.74405 10.3292C9.78309 10.3542 9.81658 10.3867 9.84922 10.4194L9.88841 10.4593V12.9747H11.1763L11.1511 10.1108C11.1251 10.0602 11.0998 10.0093 11.0753 9.95799C11.0285 9.86108 10.9819 9.76389 10.9252 9.67239C10.7969 9.46874 10.6116 9.30736 10.3922 9.20837C10.3573 9.19269 10.3224 9.17773 10.2864 9.16462C10.1531 9.11559 10.0134 9.08681 9.87345 9.06415C9.82642 9.05645 9.77939 9.04961 9.73236 9.04177L9.51132 9.00586V9.0945ZM6.64482 9.242L6.65052 10.5015C6.6528 10.9472 6.65522 11.3927 6.65821 11.8383C6.66007 12.1134 6.6622 12.3884 6.66391 12.6636L6.66605 12.95L6.86813 12.955L6.88125 12.9553L6.93255 12.9567L6.93911 12.9569L6.99682 12.9586C7.17952 12.964 7.36223 12.9703 7.54507 12.9714H7.55163C7.57272 12.9714 7.59395 12.9704 7.61519 12.9696C7.66407 12.9671 7.71338 12.9597 7.7587 12.9406C7.77751 12.9328 7.79547 12.9231 7.81214 12.9116C7.87128 12.9458 7.93328 12.9756 7.99855 12.9961C8.04344 13.0108 8.08918 13.0229 8.13536 13.0318C8.27645 13.0594 8.42181 13.0601 8.56361 13.0388C8.69587 13.0186 8.82487 12.981 8.94726 12.927C9.00939 12.9003 9.06953 12.8685 9.12654 12.832C9.28781 12.7277 9.42604 12.5915 9.5327 12.4317C9.55336 12.4012 9.57317 12.3703 9.59042 12.3377C9.6363 12.2517 9.66766 12.1581 9.68447 12.0622C9.72381 11.8517 9.72951 11.6361 9.71155 11.423C9.70612 11.3524 9.69708 11.2821 9.68447 11.2124C9.66181 11.091 9.62462 10.9713 9.56619 10.8618C9.54688 10.8266 9.52625 10.792 9.50434 10.7583C9.41199 10.6153 9.29926 10.4843 9.16516 10.3788C9.14283 10.3609 9.11952 10.3442 9.09533 10.3288C8.98958 10.2617 8.87158 10.2155 8.75073 10.1839C8.55818 10.1322 8.35667 10.1233 8.1603 10.1576C8.08078 10.172 8.00254 10.1943 7.92758 10.2246V9.16619H6.64453L6.64482 9.242ZM15.6694 10.1337C15.5827 10.1351 15.4962 10.1445 15.4109 10.1608C15.2467 10.192 15.0887 10.2502 14.9435 10.3329C14.7618 10.4389 14.6106 10.5901 14.5045 10.7717C14.4718 10.8276 14.4437 10.886 14.4199 10.9463C14.371 11.0686 14.3389 11.1971 14.3206 11.3274C14.2821 11.1579 14.212 10.9972 14.1139 10.8537C14.0235 10.7207 13.9123 10.603 13.7847 10.5051C13.5096 10.296 13.1771 10.176 12.8319 10.1612C12.771 10.1592 12.7101 10.1606 12.6495 10.1655C12.3572 10.19 12.077 10.2929 11.8383 10.4633C11.7069 10.5571 11.5916 10.6715 11.4968 10.8022C11.4061 10.9264 11.3385 11.0659 11.2973 11.2141C11.2808 11.2752 11.2695 11.3379 11.2638 11.4011C11.2538 11.5175 11.2446 11.6344 11.2496 11.7512C11.2507 11.783 11.2533 11.8148 11.2582 11.8463C11.2714 11.9308 11.2986 12.0125 11.3321 12.091C11.3517 12.1376 11.3735 12.1832 11.3961 12.2285C11.5176 12.4504 11.6857 12.6433 11.8889 12.794C12.0088 12.8809 12.1426 12.9468 12.2846 12.9888C12.4281 13.0324 12.5778 13.0544 12.7276 13.0592C12.7857 13.0608 12.844 13.0592 12.902 13.0554C13.0801 13.0443 13.2554 13.0051 13.4212 12.9391C13.4458 12.9294 13.4699 12.9185 13.4936 12.9066C13.5976 12.8533 13.6952 12.788 13.7859 12.7142C13.8684 12.6472 13.945 12.5731 14.0164 12.4943C14.0622 12.4434 14.1038 12.3887 14.1409 12.331C14.2211 12.2059 14.28 12.0684 14.3151 11.924C14.3313 12.0697 14.365 12.2145 14.4253 12.3486C14.4631 12.4327 14.5115 12.5124 14.5707 12.5832C14.6505 12.678 14.7447 12.7597 14.8499 12.8252C14.9585 12.8946 15.0757 12.9495 15.1954 12.9971C15.2473 13.0173 15.3012 13.0321 15.3558 13.0424V14.2359L15.5571 14.2274L15.5774 14.2265L15.5976 14.2257L15.6042 14.2254L15.6476 14.2238C15.8352 14.2167 16.0227 14.2114 16.21 14.1995C16.3381 14.1901 16.4657 14.1608 16.5817 14.1048C16.6136 14.0892 16.6455 14.073 16.6764 14.0554C16.7968 13.9858 16.9068 13.8998 17.0034 13.7999C17.0161 13.7873 17.0277 13.7741 17.039 13.7602C17.1174 13.6673 17.1864 13.5653 17.2342 13.4531C17.2556 13.4032 17.2723 13.3512 17.2845 13.2983C17.3173 13.1608 17.3307 13.0197 17.3378 12.8789C17.3416 12.8072 17.344 12.7356 17.3465 12.6639C17.3568 12.2078 17.354 11.7517 17.3541 11.2955C17.3541 11.1837 17.3544 11.072 17.3542 10.9603V10.1843H16.1101V10.2171C15.9703 10.1599 15.8204 10.1315 15.6694 10.1337ZM12.8523 11.3532C12.8669 11.3538 12.8822 11.3545 12.8959 11.3603C12.9007 11.3635 12.9046 11.3679 12.9091 11.3714C12.959 11.4153 13.0063 11.4626 13.0476 11.5147C13.0532 11.5246 13.0542 11.5363 13.0552 11.5474C13.0572 11.5764 13.0545 11.6052 13.0522 11.6338C13.0418 11.7078 13.0037 11.7752 12.9456 11.8222C12.917 11.8453 12.8835 11.8624 12.8477 11.8708C12.8018 11.8836 12.7522 11.8793 12.7076 11.8631C12.6506 11.8427 12.602 11.804 12.5694 11.7531C12.5573 11.7333 12.5478 11.7119 12.5413 11.6897C12.5246 11.6289 12.5304 11.5641 12.5577 11.5072C12.5677 11.4864 12.5803 11.4671 12.595 11.4494C12.6204 11.4129 12.656 11.3827 12.6982 11.3679C12.7119 11.363 12.7263 11.3607 12.7405 11.3589C12.7724 11.3546 12.8046 11.3527 12.8367 11.3532C12.8418 11.3529 12.847 11.353 12.8523 11.3532ZM15.8768 11.356C15.9005 11.356 15.924 11.3593 15.9464 11.3667C16.0113 11.3878 16.0669 11.4371 16.0948 11.4996C16.1038 11.5181 16.1112 11.537 16.1161 11.557C16.1279 11.6044 16.1276 11.6556 16.1112 11.7019C16.1047 11.7202 16.0954 11.7375 16.0837 11.7532L16.08 11.7581C16.0496 11.7963 16.0101 11.8263 15.9652 11.8456C15.9338 11.8596 15.9008 11.8696 15.867 11.8755C15.8446 11.8749 15.8226 11.8701 15.802 11.8612C15.7785 11.8519 15.7555 11.8415 15.733 11.8299C15.6943 11.8042 15.6646 11.7672 15.6478 11.7239C15.625 11.6683 15.6203 11.607 15.6344 11.5486C15.6412 11.5211 15.6529 11.4948 15.6692 11.4716C15.7068 11.4118 15.7708 11.369 15.8407 11.3585C15.8527 11.3566 15.8648 11.3558 15.8768 11.356ZM8.20918 11.3974C8.23512 11.3975 8.26106 11.4024 8.28486 11.4125C8.33944 11.4353 8.38461 11.4806 8.40599 11.5359C8.41725 11.5657 8.42095 11.5979 8.41896 11.6294C8.41606 11.6759 8.40022 11.7207 8.37321 11.7586C8.34331 11.7897 8.3062 11.8128 8.26519 11.826C8.21859 11.8419 8.16856 11.8476 8.11954 11.8429C8.08131 11.8372 8.04678 11.8169 8.0232 11.7863C7.99291 11.75 7.97455 11.7052 7.97061 11.658C7.96485 11.6047 7.9757 11.5508 8.00168 11.5038C8.01807 11.4753 8.04144 11.4504 8.07023 11.434C8.11199 11.4093 8.16073 11.3968 8.20918 11.3974Z" fill="white"/>
<path d="M11.8712 18.9997C11.807 18.9393 11.5847 18.4567 11.166 17.4725L10.5552 16.0283H8.73772C7.68569 16.0283 6.8336 16.0133 6.71674 15.9907C6.41504 15.9341 6.00774 15.7192 5.78898 15.5004C5.56666 15.2781 5.35175 14.8896 5.29133 14.603C5.26126 14.4674 5.25 13.419 5.25 11.2661C5.25 8.56618 5.25741 8.09489 5.30644 7.90264C5.48743 7.20874 6.06432 6.67702 6.75821 6.56772C7.0974 6.51128 16.905 6.51128 17.2406 6.56772C17.9156 6.67332 18.4736 7.15601 18.6734 7.79703C18.7451 8.0346 18.749 8.14391 18.749 11.2547C18.749 13.2795 18.7337 14.5239 18.7074 14.6294C18.6056 15.0782 18.221 15.5758 17.8138 15.7946C17.3952 16.017 17.2933 16.0283 15.2949 16.0283H13.4813L12.8705 17.4725C12.531 18.2643 12.2294 18.9393 12.1954 18.9732C12.0824 19.0863 11.9768 19.0939 11.8712 18.9997ZM16.5618 13.8602C16.675 13.7961 16.8221 13.6754 16.8899 13.5849C17.1123 13.2909 17.1275 13.1816 17.1275 11.7223V10.41H16.3357V10.6476L16.2527 10.5722C16.0452 10.3836 15.7663 10.3195 15.4458 10.3836C14.8424 10.5081 14.5257 10.938 14.5257 11.6318C14.5257 12.2125 14.6841 12.5028 15.1139 12.714C15.3063 12.8082 15.4043 12.8346 15.5739 12.8346C15.8454 12.8309 16.0717 12.7705 16.2037 12.665L16.3091 12.5819L16.2828 12.7479C16.2301 13.076 16.0566 13.2382 15.7549 13.2382H15.5815V13.9998L15.9698 13.9847C16.3093 13.9733 16.3771 13.9583 16.5618 13.8602ZM8.89235 12.7026C9.10725 12.6046 9.31461 12.3934 9.41266 12.186C9.51826 11.9484 9.52211 11.3867 9.42021 11.0925C9.34482 10.8702 9.11481 10.591 8.92997 10.4931C8.54547 10.2931 8.05522 10.3271 7.78759 10.5722L7.70079 10.6477V9.39204H6.87137L6.87878 11.0623L6.89018 12.729L7.29734 12.7404C7.68198 12.7518 7.70079 12.7479 7.70079 12.6724C7.70079 12.5782 7.7122 12.5782 7.88563 12.6914C8.14957 12.8685 8.53407 12.8723 8.89235 12.7028V12.7026ZM13.3078 12.7404C13.5378 12.6574 13.8508 12.3898 13.9752 12.1672C14.3862 11.4508 13.9186 10.5836 13.0288 10.41C12.4707 10.3007 11.8673 10.5722 11.6035 11.0549C11.5204 11.2132 11.4904 11.3188 11.479 11.5451C11.464 11.7977 11.4753 11.8579 11.5657 12.0616C11.6751 12.3067 11.9239 12.5745 12.1502 12.6914C12.4783 12.8609 12.9307 12.8799 13.3078 12.7404ZM10.936 11.4545L10.9247 10.165L10.8003 9.91235C10.6269 9.56177 10.3515 9.37308 9.89906 9.2977L9.73702 9.27133V9.68989C9.73702 10.048 9.74457 10.1085 9.7973 10.1085C9.83122 10.1085 9.91416 10.165 9.98585 10.2367L10.1141 10.3648V12.7479H10.9472L10.936 11.4545Z" fill="#42D31A"/>
<path d="M15.6682 12.0507C15.4193 11.9451 15.3213 11.6058 15.4684 11.3644C15.6722 11.0289 16.1472 11.059 16.3055 11.4171C16.4223 11.685 16.3055 11.9601 16.0227 12.0658C15.8831 12.1186 15.8151 12.1149 15.6682 12.0507ZM7.93471 12.0092C7.65566 11.8169 7.68574 11.3644 7.98743 11.2212C8.40215 11.0251 8.79819 11.4361 8.58699 11.8434C8.48138 12.0507 8.12311 12.1412 7.93471 12.0092ZM12.5386 12.0319C12.4824 11.9983 12.4337 11.9536 12.3955 11.9004C12.3572 11.8473 12.3302 11.787 12.3161 11.7231C12.302 11.6592 12.3011 11.5931 12.3134 11.5288C12.3257 11.4645 12.351 11.4034 12.3878 11.3493C12.4971 11.1872 12.614 11.127 12.8252 11.127C12.9647 11.127 13.0099 11.1458 13.1344 11.2739C13.2588 11.3984 13.2814 11.4436 13.2814 11.5831C13.2814 11.9866 12.8705 12.2354 12.5386 12.0319Z" fill="#42D31A"/>
</svg>
