<svg width="24" height="24" viewBox="0 0 24 24" fill="none" xmlns="http://www.w3.org/2000/svg">
<path fill-rule="evenodd" clip-rule="evenodd" d="M12.0004 1C12.2656 1.00001 12.5199 1.10538 12.7074 1.29292L16.7071 5.29292C17.0976 5.68346 17.0976 6.31663 16.7071 6.70713C16.3165 7.09764 15.6834 7.09762 15.2929 6.70708L13 4.41404V15C13 15.5523 12.5523 16 12 16C11.4477 16 11 15.5523 11 15V4.41439L8.70708 6.70713C8.31654 7.09764 7.68337 7.09762 7.29287 6.70708C6.90236 6.31654 6.90238 5.68337 7.29292 5.29287L11.2932 1.29287C11.4808 1.10534 11.7351 0.99999 12.0004 1ZM8 9C8.55228 9 9 9.44771 9 10C9 10.5523 8.55228 11 8 11H5C4.44772 11 4 11.4477 4 12V19C4 19.5523 4.44772 20 5 20H19C19.5523 20 20 19.5523 20 19V12C20 11.4477 19.5523 11 19 11H16C15.4477 11 15 10.5523 15 10C15 9.44771 15.4477 9 16 9H19C20.6569 9 22 10.3431 22 12V19C22 20.6569 20.6569 22 19 22H5C3.34315 22 2 20.6569 2 19V12C2 10.3431 3.34315 9 5 9H8Z" fill="black"/>
</svg>
