
<svg width="28" height="28" viewBox="0 0 28 28" fill="none" xmlns="http://www.w3.org/2000/svg">
<path d="M0 14C0 6.26801 6.26801 0 14 0C21.732 0 28 6.26801 28 14C28 21.732 21.732 28 14 28C6.26801 28 0 21.732 0 14Z" fill="#19191B"/>
<g clipPath="url(#clip0_5787_23439)">
<mask id="mask0_5787_23439" style="mask-type:alpha" maskUnits="userSpaceOnUse" x="6" y="6" width="16" height="16">
<g clipPath="url(#clip1_5787_23439)">
<path fill-rule="evenodd" clip-rule="evenodd" d="M11.6323 8.29111C11.7565 8.10897 11.9627 8 12.1831 8H15.8195C16.0399 8 16.2461 8.10897 16.3703 8.29111L17.3839 9.77778H19.4558C19.9494 9.77778 20.4256 9.96933 20.779 10.3149C21.133 10.661 21.3346 11.1336 21.3346 11.6296V18.1481C21.3346 18.6442 21.133 19.1168 20.779 19.4629C20.4256 19.8085 19.9494 20 19.4558 20H8.54676C8.05324 20 7.57701 19.8085 7.22358 19.4629C6.86964 19.1168 6.66797 18.6442 6.66797 18.1481V11.6296C6.66797 11.1336 6.86964 10.661 7.22358 10.3149C7.57701 9.96933 8.05325 9.77778 8.54676 9.77778H10.6187L11.6323 8.29111ZM12.5355 9.33333L11.5218 10.82C11.3976 11.0021 11.1914 11.1111 10.971 11.1111H8.54676C8.39732 11.1111 8.25694 11.1693 8.15574 11.2682C8.05504 11.3667 8.0013 11.497 8.0013 11.6296V18.1481C8.0013 18.2808 8.05504 18.4111 8.15574 18.5095C8.25694 18.6085 8.39732 18.6667 8.54676 18.6667H19.4558C19.6053 18.6667 19.7457 18.6085 19.8469 18.5095C19.9476 18.4111 20.0013 18.2808 20.0013 18.1481V11.6296C20.0013 11.497 19.9476 11.3667 19.8469 11.2682C19.7457 11.1693 19.6053 11.1111 19.4558 11.1111H17.0316C16.8112 11.1111 16.605 11.0021 16.4808 10.82L15.4671 9.33333H12.5355Z" fill="#19191B"/>
<path fill-rule="evenodd" clip-rule="evenodd" d="M14.0026 13.3333C13.2662 13.3333 12.6693 13.9303 12.6693 14.6667C12.6693 15.403 13.2662 16 14.0026 16C14.739 16 15.3359 15.403 15.3359 14.6667C15.3359 13.9303 14.739 13.3333 14.0026 13.3333ZM11.3359 14.6667C11.3359 13.1939 12.5298 12 14.0026 12C15.4754 12 16.6693 13.1939 16.6693 14.6667C16.6693 16.1394 15.4754 17.3333 14.0026 17.3333C12.5298 17.3333 11.3359 16.1394 11.3359 14.6667Z" fill="#19191B"/>
</g>
</mask>
<g mask="url(#mask0_5787_23439)">
<rect x="6" y="6" width="16" height="16" fill="white"/>
</g>
</g>
<defs>
<clipPath id="clip0_5787_23439">
<rect width="16" height="16" fill="white" transform="translate(6 6)"/>
</clipPath>
<clipPath id="clip1_5787_23439">
<rect width="16" height="16" fill="white" transform="translate(6 6)"/>
</clipPath>
</defs>
</svg>
