<svg
    width="49"
    height="48"
    viewBox="0 0 49 48"
    fill="none"
    xmlns="http://www.w3.org/2000/svg">
    <path
    d="M0.5 24C0.5 10.7452 11.2452 0 24.5 0C37.7548 0 48.5 10.7452 48.5 24C48.5 37.2548 37.7548 48 24.5 48C11.2452 48 0.5 37.2548 0.5 24Z"
    fill="#F2F2F2"
    />
    <path
    d="M34.81 24C34.81 23.22 34.74 22.47 34.61 21.75H24.25V26.005H30.17C29.915 27.38 29.14 28.545 27.975 29.325V32.085H31.53C33.61 30.17 34.81 27.35 34.81 24Z"
    fill="#4285F4"
    />
    <path
    d="M24.2519 34.7498C27.2219 34.7498 29.7119 33.7648 31.5319 32.0848L27.9769 29.3248C26.9919 29.9848 25.7319 30.3748 24.2519 30.3748C21.3869 30.3748 18.9619 28.4398 18.0969 25.8398H14.4219V28.6898C16.2319 32.2848 19.9519 34.7498 24.2519 34.7498Z"
    fill="#34A853"
    />
    <path
    d="M18.095 25.8405C17.875 25.1805 17.75 24.4755 17.75 23.7505C17.75 23.0255 17.875 22.3205 18.095 21.6605V18.8105H14.42C13.65 20.3434 13.2493 22.0352 13.25 23.7505C13.25 25.5255 13.675 27.2055 14.42 28.6905L18.095 25.8405Z"
    fill="#FBBC05"
    />
    <path
    d="M24.2519 17.125C25.8669 17.125 27.3169 17.68 28.4569 18.77L31.6119 15.615C29.7069 13.84 27.2169 12.75 24.2519 12.75C19.9519 12.75 16.2319 15.215 14.4219 18.81L18.0969 21.66C18.9619 19.06 21.3869 17.125 24.2519 17.125Z"
    fill="#EA4335"
    />
</svg>
