
<svg width="20" height="20" viewBox="0 0 20 20" fill="none" xmlns="http://www.w3.org/2000/svg">
<g clip-path="url(#clip0_5977_27634)">
<mask id="mask0_5977_27634" style="mask-type:alpha" maskUnits="userSpaceOnUse" x="0" y="0" width="20" height="20">
<g clip-path="url(#clip1_5977_27634)">
<path fill-rule="evenodd" clip-rule="evenodd" d="M18.3346 9.99984C18.3346 14.6022 14.6037 18.3332 10.0013 18.3332C5.39893 18.3332 1.66797 14.6022 1.66797 9.99984C1.66797 5.39746 5.39893 1.6665 10.0013 1.6665C14.6037 1.6665 18.3346 5.39746 18.3346 9.99984ZM10.0013 12.4998C9.54106 12.4998 9.16797 12.1267 9.16797 11.6665L9.16797 5.83317C9.16797 5.37293 9.54106 4.99984 10.0013 4.99984C10.4615 4.99984 10.8346 5.37293 10.8346 5.83317L10.8346 11.6665C10.8346 12.1267 10.4615 12.4998 10.0013 12.4998ZM10.0013 14.9998C10.4615 14.9998 10.8346 14.6267 10.8346 14.1665C10.8346 13.7063 10.4615 13.3332 10.0013 13.3332C9.54107 13.3332 9.16797 13.7063 9.16797 14.1665C9.16797 14.6267 9.54107 14.9998 10.0013 14.9998Z" fill="#19191B"/>
</g>
</mask>
<g mask="url(#mask0_5977_27634)">
<rect width="20" height="20" fill="#FC5454"/>
</g>
</g>
<defs>
<clipPath id="clip0_5977_27634">
<rect width="20" height="20" fill="white"/>
</clipPath>
<clipPath id="clip1_5977_27634">
<rect width="20" height="20" fill="white"/>
</clipPath>
</defs>
</svg>
