<svg
      width="49"
      height="48"
      viewBox="0 0 49 48"
      fill="none"
      xmlns="http://www.w3.org/2000/svg">
      <path
        d="M0.5 24C0.5 10.7452 11.2452 0 24.5 0C37.7548 0 48.5 10.7452 48.5 24C48.5 37.2548 37.7548 48 24.5 48C11.2452 48 0.5 37.2548 0.5 24Z"
        fill="#FFE812"
      />
      <path
        d="M24.7573 13.5C17.5762 13.5 11.75 18.0904 11.75 23.7527C11.75 27.411 14.1889 30.6262 17.8471 32.4405C17.648 33.1274 16.5668 36.8602 16.5248 37.1529C16.5248 37.1529 16.499 37.3738 16.6413 37.4578C16.689 37.4819 16.7411 37.496 16.7945 37.4992C16.8479 37.5026 16.9013 37.4949 16.9515 37.4767C17.358 37.4198 21.6938 34.3739 22.4458 33.8455C23.2089 33.9531 23.9786 34.007 24.7491 34.0068C31.9303 34.0068 37.7564 29.4163 37.7564 23.754C37.7564 18.0918 31.9384 13.5 24.7573 13.5Z"
        fill="#3C1E1E"
      />
      <path
        d="M17.5659 27.3339C17.3713 27.3382 17.183 27.2653 17.0422 27.1309C16.9014 26.9965 16.8198 26.8117 16.8152 26.6171V22.1554H15.6445C15.4498 22.1554 15.263 22.078 15.1253 21.9402C14.9875 21.8025 14.9102 21.6158 14.9102 21.421C14.9102 21.2263 14.9875 21.0394 15.1253 20.9018C15.263 20.764 15.4498 20.6866 15.6445 20.6866H19.4858C19.6805 20.6866 19.8673 20.764 20.005 20.9018C20.1428 21.0394 20.2202 21.2263 20.2202 21.421C20.2202 21.6158 20.1428 21.8025 20.005 21.9402C19.8673 22.078 19.6805 22.1554 19.4858 22.1554H18.3151V26.6117C18.3135 26.7085 18.2928 26.8038 18.2543 26.8925C18.2157 26.9812 18.1601 27.0614 18.0905 27.1285C18.0209 27.1956 17.9386 27.2483 17.8486 27.2835C17.7585 27.3187 17.6625 27.3359 17.5659 27.3339ZM24.144 27.3244C24.0183 27.3401 23.8909 27.3167 23.7792 27.2572C23.6674 27.1979 23.5767 27.1053 23.5194 26.9925L23.1482 26.0197H20.8611L20.4898 26.9925C20.4322 27.105 20.3414 27.1973 20.2297 27.2564C20.1179 27.3156 19.9906 27.3389 19.8652 27.3231C19.7006 27.3231 19.5378 27.2874 19.3882 27.2187C19.1809 27.1239 18.9818 26.861 19.2107 26.1538L21.0047 21.4305C21.0696 21.2159 21.2018 21.0278 21.3819 20.8941C21.562 20.7603 21.7802 20.6882 22.0046 20.6882C22.2288 20.6882 22.4471 20.7603 22.6272 20.8941C22.8073 21.0278 22.9395 21.2159 23.0045 21.4305L24.7985 26.151C25.0274 26.8597 24.8283 27.1225 24.621 27.2174C24.4713 27.2861 24.3087 27.3217 24.144 27.3217V27.3244ZM22.7539 24.6918L22.0046 22.5632L21.2553 24.6918H22.7539ZM26.0057 27.2255C25.819 27.2296 25.6384 27.1592 25.5036 27.0303C25.3686 26.9013 25.2904 26.7239 25.2862 26.5372V21.4413C25.2862 21.2383 25.3669 21.0435 25.5103 20.9C25.654 20.7564 25.8487 20.6758 26.0518 20.6758C26.2547 20.6758 26.4494 20.7564 26.5931 20.9C26.7366 21.0435 26.8173 21.2383 26.8173 21.4413V25.8489H28.4107C28.5035 25.8448 28.5963 25.8596 28.6833 25.8923C28.7703 25.9249 28.8498 25.9749 28.917 26.0393C28.9841 26.1035 29.0376 26.1806 29.0741 26.2661C29.1107 26.3516 29.1295 26.4436 29.1295 26.5365C29.1295 26.6295 29.1107 26.7215 29.0741 26.807C29.0376 26.8925 28.9841 26.9697 28.917 27.0339C28.8498 27.0981 28.7703 27.1481 28.6833 27.1808C28.5963 27.2136 28.5035 27.2283 28.4107 27.2241L26.0057 27.2255ZM30.1735 27.3258C29.9743 27.3258 29.7834 27.2466 29.6426 27.1059C29.5018 26.9652 29.4228 26.7743 29.4228 26.5751V21.4427C29.431 21.2493 29.5136 21.0665 29.6533 20.9327C29.7931 20.7987 29.9792 20.7239 30.1728 20.7239C30.3663 20.7239 30.5523 20.7987 30.6921 20.9327C30.8318 21.0665 30.9145 21.2493 30.9227 21.4427V23.055L33.0161 20.9617C33.071 20.9079 33.136 20.8655 33.2074 20.8369C33.2788 20.8083 33.3551 20.7941 33.4321 20.795C33.6193 20.8002 33.798 20.8741 33.9341 21.0029C34.0701 21.1317 34.1538 21.3062 34.1691 21.4928C34.1758 21.5764 34.1645 21.6603 34.1361 21.739C34.1075 21.8178 34.0624 21.8897 34.0038 21.9494L32.2939 23.658L34.1407 26.105C34.2527 26.2643 34.2987 26.4609 34.2685 26.6534C34.2384 26.8458 34.1346 27.0191 33.979 27.1365C33.8235 27.2538 33.6285 27.3061 33.4352 27.2823C33.2418 27.2584 33.0653 27.1603 32.9429 27.0087L31.1815 24.6769L30.9214 24.937V26.5738C30.921 26.7728 30.8417 26.9635 30.7011 27.1042C30.5604 27.2449 30.3697 27.324 30.1708 27.3244L30.1735 27.3258Z"
        fill="#FFE812"
      />
    </svg>
