
<svg viewBox="0 0 40 41" fill="none" xmlns="http://www.w3.org/2000/svg">
<path d="M20 35.5C28.2843 35.5 35 28.7843 35 20.5C35 12.2157 28.2843 5.5 20 5.5C11.7157 5.5 5 12.2157 5 20.5C5 28.7843 11.7157 35.5 20 35.5Z" fill="#F9C23C"/>
<circle cx="20" cy="20.5" r="12.5" fill="#D3883E"/>
<path d="M19.4167 13V19.7321H21.0333C22.6167 19.7321 23.4167 19.3929 23.4167 18.5893C23.4167 17.7857 22.6167 17.4643 21.0333 17.4643H19.5833L20.0833 13H22.1333C27.2 13 28.75 15.3393 28.75 18.6786C28.75 22.0357 27.2 24.375 22.1333 24.375H19.4167V28H13.75V13H19.4167Z" fill="#F9C23C"/>
</svg>
