
<svg width="40" height="40" viewBox="0 0 40 40" fill="none" xmlns="http://www.w3.org/2000/svg">
<g clipPath="url(#clip0_5874_26194)">
<rect width="40" height="40" rx="6.00234" fill="#C4C5CA"/>
<path fill-rule="evenodd" clip-rule="evenodd" d="M28.4058 8.63916H11.5946C9.21521 8.63916 7.27734 10.5757 7.27734 12.9354V23.3342C7.27734 25.702 9.22339 27.6305 11.5946 27.6305H17.5309L18.553 29.388L19.5587 31.1212C19.7386 31.4385 20.1965 31.4385 20.3845 31.1212L21.3903 29.388L22.4123 27.6305H28.414C30.7934 27.6305 32.7313 25.6939 32.7313 23.3342V12.9435C32.7313 10.5757 30.7852 8.63916 28.4058 8.63916ZM21.1729 16.2568C19.8729 16.2568 18.8181 17.2902 18.8181 18.5677C18.8181 19.8452 19.8729 20.8785 21.1729 20.8785C22.473 20.8785 23.5278 19.8452 23.5278 18.5677C23.5278 17.2902 22.4812 16.2568 21.1729 16.2568ZM21.1729 19.6743C20.5515 19.6743 20.0446 19.1779 20.0446 18.5677C20.0446 17.9574 20.5515 17.4611 21.1729 17.4611C21.7944 17.4611 22.3013 17.9574 22.3013 18.5677C22.3013 19.1779 21.8025 19.6743 21.1729 19.6743ZM12.3762 16.7866C12.7442 16.453 13.2184 16.2577 13.7254 16.2577C14.9028 16.2577 15.8431 17.2992 15.8431 18.5767C15.8431 19.8542 14.8946 20.8876 13.7254 20.8876C13.2103 20.8876 12.7442 20.6842 12.3762 20.3587V20.7737H11.068V14.8745H12.3762V16.7866ZM12.3844 19.0242C12.5643 19.4392 12.9813 19.724 13.4637 19.724C14.1179 19.724 14.6412 19.2114 14.6412 18.5686C14.6412 17.9258 14.1179 17.4132 13.4637 17.4132C12.9813 17.4132 12.5643 17.6979 12.3844 18.1129C12.319 18.2512 12.2863 18.4058 12.2863 18.5686C12.2863 18.7313 12.3272 18.8859 12.3844 19.0242ZM27.6094 16.3556V16.7218C27.2415 16.437 26.7836 16.2661 26.293 16.2661C25.091 16.2661 24.118 17.2669 24.118 18.4956C24.118 19.7242 25.091 20.7251 26.293 20.7251C26.7917 20.7251 27.2496 20.5542 27.6094 20.2694V20.8878C27.6094 20.8878 27.4786 21.4981 26.5628 21.4981V22.6454C26.5628 22.6454 27.5522 22.7593 28.4352 21.8805C28.4352 21.8805 28.8441 21.4493 28.934 20.8797V16.3556H27.6094ZM26.5383 19.6266C25.8759 19.6266 25.3445 19.114 25.3445 18.4875C25.3445 17.8609 25.8841 17.3483 26.5383 17.3483C27.0043 17.3483 27.4132 17.6087 27.6094 17.983C27.6912 18.1376 27.7321 18.3084 27.7321 18.4875C27.7321 18.6665 27.683 18.8455 27.6094 18.9919C27.4132 19.3744 27.0043 19.6266 26.5383 19.6266ZM15.9898 15.9387V14.7588C15.9898 14.7588 16.8569 14.6449 17.6258 15.5481C17.6258 15.5481 17.9775 15.9875 18.0593 16.5733V16.6059V20.7719H16.7097V16.6059C16.5952 16.02 15.9898 15.9387 15.9898 15.9387Z" fill="white"/>
</g>
<defs>
<clipPath id="clip0_5874_26194">
<path d="M0 20C0 8.95431 8.95431 0 20 0C31.0457 0 40 8.95431 40 20C40 31.0457 31.0457 40 20 40C8.95431 40 0 31.0457 0 20Z" fill="white"/>
</clipPath>
</defs>
</svg>
