
<svg width="40" height="40" viewBox="0 0 40 40" fill="none" xmlns="http://www.w3.org/2000/svg">
<g clip-path="url(#clip0_4113_162095)">
<rect width="40" height="40" rx="6" fill="url(#paint0_radial_4113_162095)"/>
<g clip-path="url(#clip1_4113_162095)">
<path d="M19.596 10.0863C22.6941 10.0863 23.0578 10.1001 24.2823 10.1553C25.4147 10.206 26.027 10.3947 26.4367 10.5558C26.9799 10.7676 27.3666 11.0162 27.7717 11.4213C28.1768 11.8264 28.43 12.2131 28.6371 12.7563C28.7936 13.166 28.987 13.7782 29.0376 14.9107C29.0929 16.1352 29.1067 16.4988 29.1067 19.5969C29.1067 22.695 29.0929 23.0587 29.0376 24.2832C28.987 25.4157 28.7982 26.0279 28.6371 26.4376C28.4254 26.9808 28.1768 27.3675 27.7717 27.7726C27.3666 28.1777 26.9799 28.4309 26.4367 28.638C26.027 28.7946 25.4147 28.9879 24.2823 29.0385C23.0578 29.0938 22.6941 29.1076 19.596 29.1076C16.4979 29.1076 16.1342 29.0938 14.9097 29.0385C13.7773 28.9879 13.165 28.7992 12.7553 28.638C12.2121 28.4263 11.8254 28.1777 11.4203 27.7726C11.0152 27.3675 10.7621 26.9808 10.5549 26.4376C10.3984 26.0279 10.205 25.4157 10.1544 24.2832C10.0992 23.0587 10.0853 22.695 10.0853 19.5969C10.0853 16.4988 10.0992 16.1352 10.1544 14.9107C10.205 13.7782 10.3938 13.166 10.5549 12.7563C10.7667 12.2131 11.0152 11.8264 11.4203 11.4213C11.8254 11.0162 12.2121 10.763 12.7553 10.5558C13.165 10.3993 13.7773 10.206 14.9097 10.1553C16.1342 10.0955 16.5025 10.0863 19.596 10.0863ZM19.596 7.99634C16.4473 7.99634 16.0514 8.01015 14.8131 8.06539C13.5793 8.12063 12.7369 8.31858 12.0004 8.60399C11.2362 8.89861 10.5917 9.2991 9.94725 9.94358C9.30277 10.5881 8.90687 11.2371 8.60765 11.9967C8.32224 12.7333 8.12429 13.5757 8.06905 14.814C8.01381 16.0477 8 16.4436 8 19.5923C8 22.7411 8.01381 23.137 8.06905 24.3753C8.12429 25.609 8.32224 26.4514 8.60765 27.1926C8.90227 27.9567 9.30277 28.6012 9.94725 29.2457C10.5917 29.8902 11.2408 30.2861 12.0004 30.5853C12.7369 30.8707 13.5793 31.0686 14.8177 31.1239C16.056 31.1791 16.4473 31.1929 19.6006 31.1929C22.754 31.1929 23.1452 31.1791 24.3836 31.1239C25.6173 31.0686 26.4597 30.8707 27.2009 30.5853C27.965 30.2907 28.6095 29.8902 29.254 29.2457C29.8985 28.6012 30.2944 27.9521 30.5936 27.1926C30.879 26.456 31.0769 25.6136 31.1322 24.3753C31.1874 23.137 31.2012 22.7457 31.2012 19.5923C31.2012 16.439 31.1874 16.0477 31.1322 14.8094C31.0769 13.5757 30.879 12.7333 30.5936 11.9921C30.299 11.2279 29.8985 10.5835 29.254 9.93898C28.6095 9.2945 27.9604 8.89861 27.2009 8.59939C26.4643 8.31397 25.6219 8.11603 24.3836 8.06079C23.1406 8.01015 22.7447 7.99634 19.596 7.99634Z" fill="url(#paint1_linear_4113_162095)"/>
<path d="M19.5974 13.64C16.3106 13.64 13.6406 16.3054 13.6406 19.5968C13.6406 22.8883 16.306 25.5536 19.5974 25.5536C22.8889 25.5536 25.5543 22.8883 25.5543 19.5968C25.5543 16.3054 22.8889 13.64 19.5974 13.64ZM19.5974 23.4591C17.4615 23.4591 15.7306 21.7282 15.7306 19.5922C15.7306 17.4562 17.4615 15.7254 19.5974 15.7254C21.7334 15.7254 23.4643 17.4562 23.4643 19.5922C23.4643 21.7282 21.7334 23.4591 19.5974 23.4591Z" fill="url(#paint2_linear_4113_162095)"/>
<path d="M25.7887 14.7911C26.5565 14.7911 27.1789 14.1687 27.1789 13.4009C27.1789 12.633 26.5565 12.0106 25.7887 12.0106C25.0209 12.0106 24.3984 12.633 24.3984 13.4009C24.3984 14.1687 25.0209 14.7911 25.7887 14.7911Z" fill="url(#paint3_linear_4113_162095)"/>
</g>
</g>
<defs>
<radialGradient id="paint0_radial_4113_162095" cx="0" cy="0" r="1" gradientUnits="userSpaceOnUse" gradientTransform="translate(4.28 2.44) rotate(49.0472) scale(48.0901)">
<stop stop-color="#7817ED"/>
<stop offset="0.501419" stop-color="#FB2BB2" stop-opacity="0.966572"/>
<stop offset="1" stop-color="#F7C610" stop-opacity="0.933333"/>
</radialGradient>
<linearGradient id="paint1_linear_4113_162095" x1="19.6006" y1="19.5946" x2="28.8063" y2="31.1947" gradientUnits="userSpaceOnUse">
<stop stop-color="#F5D9FF"/>
<stop offset="1" stop-color="#FBE8FE"/>
</linearGradient>
<linearGradient id="paint2_linear_4113_162095" x1="19.5974" y1="19.5968" x2="24.3257" y2="25.5536" gradientUnits="userSpaceOnUse">
<stop stop-color="#F5D9FF"/>
<stop offset="1" stop-color="#FBE8FE"/>
</linearGradient>
<linearGradient id="paint3_linear_4113_162095" x1="25.7887" y1="13.4009" x2="26.8922" y2="14.7911" gradientUnits="userSpaceOnUse">
<stop stop-color="#F5D9FF"/>
<stop offset="1" stop-color="#FBE8FE"/>
</linearGradient>
<clipPath id="clip0_4113_162095">
<path d="M0 20C0 8.95431 8.95431 0 20 0C31.0457 0 40 8.95431 40 20C40 31.0457 31.0457 40 20 40C8.95431 40 0 31.0457 0 20Z" fill="white"/>
</clipPath>
<clipPath id="clip1_4113_162095">
<rect width="23.192" height="23.192" fill="white" transform="translate(8 7.99536)"/>
</clipPath>
</defs>
</svg>
