
<svg width="40" height="40" viewBox="0 0 40 40" fill="none" xmlns="http://www.w3.org/2000/svg">
<g clip-path="url(#clip0_5874_26223)">
<rect width="40" height="40" rx="6.00234" fill="#C4C5CA"/>
<g clip-path="url(#clip1_5874_26223)">
<path d="M31.1689 14.9346V18.7906C31.1689 18.7906 27.8363 18.9722 25.1981 16.7718V25.6053C25.1981 25.9471 25.166 26.2782 25.1019 26.62C24.7815 28.1902 23.4463 32.1636 18.1911 32.6229C17.9241 32.6443 17.657 32.6443 17.39 32.6229C15.8946 32.4947 11.4191 31.6616 10.5326 26.2782C10.4258 25.6587 10.4151 25.0285 10.5112 24.409C10.7782 22.5718 12.6795 17.5195 18.9281 18.1283V21.9629C18.9281 21.9629 16.2471 21.3221 14.944 23.3942C14.2604 24.4837 14.1856 25.851 14.7624 26.9939C15.2003 27.8697 16.0869 28.767 17.8172 28.831C18.5436 28.831 20.8508 28.5747 21.3635 25.7228V9.02783H25.1981C25.1981 9.02783 25.1981 14.5608 31.1796 14.9346H31.1689Z" fill="white"/>
</g>
</g>
<defs>
<clipPath id="clip0_5874_26223">
<path d="M0 20C0 8.95431 8.95431 0 20 0C31.0457 0 40 8.95431 40 20C40 31.0457 31.0457 40 20 40C8.95431 40 0 31.0457 0 20Z" fill="white"/>
</clipPath>
<clipPath id="clip1_5874_26223">
<rect width="28.3333" height="28.3333" fill="white" transform="translate(6.66797 6.6665)"/>
</clipPath>
</defs>
</svg>
