
<svg width="40" height="40" viewBox="0 0 40 40" fill="none" xmlns="http://www.w3.org/2000/svg">
<g clip-path="url(#clip0_4113_162363)">
<g clip-path="url(#clip1_4113_162363)">
<rect width="40" height="40" fill="#FF6676"/>
<path fill-rule="evenodd" clip-rule="evenodd" d="M9.99271 18.3333C9.07224 18.3333 8.32605 19.0795 8.32604 19.9999C8.32604 20.9204 9.07224 21.6666 9.99271 21.6666L18.3293 21.6666V30.0034C18.3293 30.9239 19.0755 31.6701 19.996 31.6701C20.9164 31.6701 21.6626 30.9239 21.6626 30.0034L21.6626 21.6666L29.9995 21.6666C30.92 21.6666 31.6661 20.9204 31.6661 19.9999C31.6661 19.0795 30.92 18.3333 29.9995 18.3333L21.6626 18.3333L21.6626 9.99668C21.6626 9.0762 20.9164 8.33001 19.996 8.33001C19.0755 8.33001 18.3293 9.0762 18.3293 9.99668L18.3293 18.3333L9.99271 18.3333Z" fill="white"/>
</g>
</g>
<defs>
<clipPath id="clip0_4113_162363">
<path d="M0 20C0 8.95431 8.95431 0 20 0C31.0457 0 40 8.95431 40 20C40 31.0457 31.0457 40 20 40C8.95431 40 0 31.0457 0 20Z" fill="white"/>
</clipPath>
<clipPath id="clip1_4113_162363">
<rect width="40" height="40" fill="white"/>
</clipPath>
</defs>
</svg>
