
<svg width="40" height="40" viewBox="0 0 40 40" fill="none" xmlns="http://www.w3.org/2000/svg">
<g clipPath="url(#clip0_5874_26237)">
<g clipPath="url(#clip1_5874_26237)">
<rect width="40" height="40" fill="#C4C5CA"/>
<path fill-rule="evenodd" clip-rule="evenodd" d="M9.99271 18.3334C9.07224 18.3334 8.32604 19.0796 8.32604 20.0001C8.32604 20.9205 9.07224 21.6667 9.99271 21.6667L18.3293 21.6667V30.0036C18.3293 30.924 19.0755 31.6702 19.996 31.6702C20.9164 31.6702 21.6626 30.924 21.6626 30.0036V21.6667L29.9995 21.6667C30.92 21.6667 31.6661 20.9205 31.6661 20.0001C31.6661 19.0796 30.92 18.3334 29.9995 18.3334L21.6626 18.3334L21.6626 9.9968C21.6626 9.07632 20.9164 8.33013 19.996 8.33013C19.0755 8.33013 18.3293 9.07632 18.3293 9.9968L18.3293 18.3334L9.99271 18.3334Z" fill="white"/>
</g>
</g>
<defs>
<clipPath id="clip0_5874_26237">
<path d="M0 20C0 8.95431 8.95431 0 20 0C31.0457 0 40 8.95431 40 20C40 31.0457 31.0457 40 20 40C8.95431 40 0 31.0457 0 20Z" fill="white"/>
</clipPath>
<clipPath id="clip1_5874_26237">
<rect width="40" height="40" fill="white"/>
</clipPath>
</defs>
</svg>
