
<svg width="40" height="40" viewBox="0 0 40 40" fill="none" xmlns="http://www.w3.org/2000/svg">
<g clipPath="url(#clip0_4113_162230)">
<rect width="40" height="40" rx="6.00234" fill="url(#paint0_linear_4113_162230)"/>
<path d="M31.8761 14.0626C31.5938 13.0533 30.7647 12.2627 29.7238 11.9936C27.8186 11.5057 20.2153 11.5057 20.2153 11.5057C20.2153 11.5057 12.5944 11.5057 10.7068 11.9936C9.66595 12.2627 8.83682 13.0533 8.55456 14.0626C8.04297 15.8793 8.04297 19.6809 8.04297 19.6809C8.04297 19.6809 8.04297 23.4825 8.55456 25.2992C8.83682 26.3084 9.66595 27.099 10.7068 27.3682C12.612 27.856 20.2153 27.856 20.2153 27.856C20.2153 27.856 27.8362 27.856 29.7238 27.3682C30.7647 27.099 31.5938 26.3084 31.8761 25.2992C32.3876 23.4825 32.3876 19.6809 32.3876 19.6809C32.3876 19.6809 32.3876 15.8793 31.8761 14.0626ZM17.7279 23.1292V16.2325L24.0963 19.6809L17.7279 23.1292Z" fill="url(#paint1_linear_4113_162230)"/>
</g>
<defs>
<linearGradient id="paint0_linear_4113_162230" x1="2.64" y1="2.64" x2="35.8" y2="38.76" gradientUnits="userSpaceOnUse">
<stop offset="1" stop-color="#FC4343"/>
</linearGradient>
<linearGradient id="paint1_linear_4113_162230" x1="9.19067" y1="12.1678" x2="24.3666" y2="31.2165" gradientUnits="userSpaceOnUse">
<stop stop-color="#F1F5F2"/>
<stop offset="1" stop-color="#EEEEEE"/>
</linearGradient>
<clipPath id="clip0_4113_162230">
<path d="M0 20C0 8.95431 8.95431 0 20 0C31.0457 0 40 8.95431 40 20C40 31.0457 31.0457 40 20 40C8.95431 40 0 31.0457 0 20Z" fill="white"/>
</clipPath>
</defs>
</svg>
