
<svg width="40" height="40" viewBox="0 0 40 40" fill="none" xmlns="http://www.w3.org/2000/svg">
<g clip-path="url(#clip0_5874_26204)">
<rect width="40" height="40" rx="6" fill="#C4C5CA"/>
<g clip-path="url(#clip1_5874_26204)">
<path d="M19.5999 10.0856C22.698 10.0856 23.0617 10.0994 24.2862 10.1546C25.4186 10.2052 26.0309 10.394 26.4406 10.5551C26.9838 10.7669 27.3705 11.0154 27.7756 11.4205C28.1807 11.8256 28.4339 12.2123 28.641 12.7555C28.7975 13.1652 28.9909 13.7775 29.0415 14.9099C29.0968 16.1344 29.1106 16.4981 29.1106 19.5962C29.1106 22.6943 29.0968 23.058 29.0415 24.2825C28.9909 25.4149 28.8021 26.0272 28.641 26.4369C28.4293 26.9801 28.1807 27.3668 27.7756 27.7719C27.3705 28.177 26.9838 28.4302 26.4406 28.6373C26.0309 28.7938 25.4186 28.9872 24.2862 29.0378C23.0617 29.0931 22.698 29.1069 19.5999 29.1069C16.5018 29.1069 16.1381 29.0931 14.9136 29.0378C13.7812 28.9872 13.1689 28.7984 12.7592 28.6373C12.216 28.4256 11.8293 28.177 11.4242 27.7719C11.0191 27.3668 10.766 26.9801 10.5588 26.4369C10.4023 26.0272 10.2089 25.4149 10.1583 24.2825C10.1031 23.058 10.0893 22.6943 10.0893 19.5962C10.0893 16.4981 10.1031 16.1344 10.1583 14.9099C10.2089 13.7775 10.3977 13.1652 10.5588 12.7555C10.7706 12.2123 11.0191 11.8256 11.4242 11.4205C11.8293 11.0154 12.216 10.7623 12.7592 10.5551C13.1689 10.3986 13.7812 10.2052 14.9136 10.1546C16.1381 10.0948 16.5064 10.0856 19.5999 10.0856ZM19.5999 7.99561C16.4512 7.99561 16.0553 8.00942 14.817 8.06466C13.5832 8.1199 12.7408 8.31784 12.0043 8.60326C11.2401 8.89787 10.5956 9.29837 9.95115 9.94285C9.30667 10.5873 8.91078 11.2364 8.61156 11.996C8.32615 12.7325 8.1282 13.5749 8.07296 14.8133C8.01772 16.047 8.00391 16.4429 8.00391 19.5916C8.00391 22.7403 8.01772 23.1362 8.07296 24.3746C8.1282 25.6083 8.32615 26.4507 8.61156 27.1918C8.90618 27.956 9.30667 28.6005 9.95115 29.245C10.5956 29.8894 11.2447 30.2853 12.0043 30.5846C12.7408 30.87 13.5832 31.0679 14.8216 31.1232C16.0599 31.1784 16.4512 31.1922 19.6045 31.1922C22.7579 31.1922 23.1492 31.1784 24.3875 31.1232C25.6212 31.0679 26.4636 30.87 27.2048 30.5846C27.9689 30.2899 28.6134 29.8894 29.2579 29.245C29.9024 28.6005 30.2983 27.9514 30.5975 27.1918C30.8829 26.4553 31.0808 25.6129 31.1361 24.3746C31.1913 23.1362 31.2051 22.7449 31.2051 19.5916C31.2051 16.4383 31.1913 16.047 31.1361 14.8087C31.0808 13.5749 30.8829 12.7325 30.5975 11.9914C30.3029 11.2272 29.9024 10.5827 29.2579 9.93825C28.6134 9.29377 27.9643 8.89787 27.2048 8.59865C26.4682 8.31324 25.6258 8.11529 24.3875 8.06005C23.1445 8.00942 22.7487 7.99561 19.5999 7.99561Z" fill="white"/>
<path d="M19.6013 13.6392C16.3145 13.6392 13.6445 16.3045 13.6445 19.596C13.6445 22.8874 16.3099 25.5528 19.6013 25.5528C22.8928 25.5528 25.5582 22.8874 25.5582 19.596C25.5582 16.3045 22.8928 13.6392 19.6013 13.6392ZM19.6013 23.4582C17.4654 23.4582 15.7345 21.7274 15.7345 19.5914C15.7345 17.4554 17.4654 15.7245 19.6013 15.7245C21.7373 15.7245 23.4682 17.4554 23.4682 19.5914C23.4682 21.7274 21.7373 23.4582 19.6013 23.4582Z" fill="white"/>
<path d="M25.7926 14.7902C26.5604 14.7902 27.1828 14.1678 27.1828 13.4C27.1828 12.6322 26.5604 12.0098 25.7926 12.0098C25.0248 12.0098 24.4023 12.6322 24.4023 13.4C24.4023 14.1678 25.0248 14.7902 25.7926 14.7902Z" fill="white"/>
</g>
</g>
<defs>
<clipPath id="clip0_5874_26204">
<path d="M0 20C0 8.95431 8.95431 0 20 0C31.0457 0 40 8.95431 40 20C40 31.0457 31.0457 40 20 40C8.95431 40 0 31.0457 0 20Z" fill="white"/>
</clipPath>
<clipPath id="clip1_5874_26204">
<rect width="23.192" height="23.192" fill="white" transform="translate(8.00391 7.99561)"/>
</clipPath>
</defs>
</svg>
