<svg  viewBox="0 0 40 40" fill="none" xmlns="http://www.w3.org/2000/svg">
<g clipPath="url(#clip0_4113_159528)">
<rect width="40" height="40" rx="6.00234" fill="url(#paint0_linear_4113_159528)"/>
<path fill-rule="evenodd" clip-rule="evenodd" d="M28.4058 8.63904H11.5946C9.21521 8.63904 7.27734 10.5756 7.27734 12.9353V23.3341C7.27734 25.7019 9.22339 27.6304 11.5946 27.6304H17.5309L18.553 29.3879L19.5587 31.121C19.7386 31.4384 20.1965 31.4384 20.3845 31.121L21.3903 29.3879L22.4123 27.6304H28.414C30.7934 27.6304 32.7313 25.6938 32.7313 23.3341V12.9434C32.7313 10.5756 30.7852 8.63904 28.4058 8.63904ZM21.1729 16.2567C19.8729 16.2567 18.8181 17.2901 18.8181 18.5676C18.8181 19.845 19.8729 20.8784 21.1729 20.8784C22.473 20.8784 23.5278 19.845 23.5278 18.5676C23.5278 17.2901 22.4812 16.2567 21.1729 16.2567ZM21.1729 19.6742C20.5515 19.6742 20.0446 19.1778 20.0446 18.5676C20.0446 17.9573 20.5515 17.461 21.1729 17.461C21.7944 17.461 22.3013 17.9573 22.3013 18.5676C22.3013 19.1778 21.8025 19.6742 21.1729 19.6742ZM12.3762 16.7865C12.7442 16.4529 13.2184 16.2576 13.7254 16.2576C14.9028 16.2576 15.8431 17.2991 15.8431 18.5766C15.8431 19.8541 14.8946 20.8875 13.7254 20.8875C13.2103 20.8875 12.7442 20.684 12.3762 20.3586V20.7735H11.068V14.8743H12.3762V16.7865ZM12.3844 19.0241C12.5643 19.4391 12.9813 19.7239 13.4637 19.7239C14.1179 19.7239 14.6412 19.2113 14.6412 18.5685C14.6412 17.9257 14.1179 17.413 13.4637 17.413C12.9813 17.413 12.5643 17.6978 12.3844 18.1128C12.319 18.2511 12.2863 18.4057 12.2863 18.5685C12.2863 18.7312 12.3272 18.8858 12.3844 19.0241ZM27.6094 16.3555V16.7216C27.2415 16.4369 26.7836 16.266 26.293 16.266C25.091 16.266 24.118 17.2668 24.118 18.4955C24.118 19.7241 25.091 20.725 26.293 20.725C26.7917 20.725 27.2496 20.5541 27.6094 20.2693V20.8877C27.6094 20.8877 27.4786 21.498 26.5628 21.498V22.6452C26.5628 22.6452 27.5522 22.7592 28.4352 21.8804C28.4352 21.8804 28.8441 21.4491 28.934 20.8796V16.3555H27.6094ZM26.5383 19.6265C25.8759 19.6265 25.3445 19.1139 25.3445 18.4873C25.3445 17.8608 25.8841 17.3482 26.5383 17.3482C27.0043 17.3482 27.4132 17.6086 27.6094 17.9829C27.6912 18.1374 27.7321 18.3083 27.7321 18.4873C27.7321 18.6663 27.683 18.8454 27.6094 18.9918C27.4132 19.3742 27.0043 19.6265 26.5383 19.6265ZM15.9898 15.9385V14.7587C15.9898 14.7587 16.8569 14.6448 17.6258 15.548C17.6258 15.548 17.9775 15.9874 18.0593 16.5732V16.6057V20.7718H16.7097V16.6057C16.5952 16.0199 15.9898 15.9385 15.9898 15.9385Z" fill="url(#paint1_linear_4113_159528)"/>
</g>
<defs>
<linearGradient id="paint0_linear_4113_159528" x1="2.64" y1="2.64" x2="35.8" y2="38.76" gradientUnits="userSpaceOnUse">
<stop offset="1" stop-color="#06CD28" stop-opacity="0.933333"/>
</linearGradient>
<linearGradient id="paint1_linear_4113_159528" x1="8.47734" y1="9.55904" x2="30.0773" y2="29.959" gradientUnits="userSpaceOnUse">
<stop stop-color="#F1F5F2"/>
<stop offset="1" stop-color="#EEEEEE"/>
</linearGradient>
<clipPath id="clip0_4113_159528">
<path d="M0 20C0 8.95431 8.95431 0 20 0C31.0457 0 40 8.95431 40 20C40 31.0457 31.0457 40 20 40C8.95431 40 0 31.0457 0 20Z" fill="white"/>
</clipPath>
</defs>
</svg>
