
<svg width="40" height="40" viewBox="0 0 40 40" fill="none" xmlns="http://www.w3.org/2000/svg">
<g clip-path="url(#clip0_5874_26215)">
<rect width="40" height="40" rx="6.00234" fill="#C4C5CA"/>
<path d="M31.8761 14.0627C31.5938 13.0534 30.7647 12.2628 29.7238 11.9937C27.8186 11.5059 20.2153 11.5059 20.2153 11.5059C20.2153 11.5059 12.5944 11.5059 10.7068 11.9937C9.66595 12.2628 8.83682 13.0534 8.55456 14.0627C8.04297 15.8794 8.04297 19.681 8.04297 19.681C8.04297 19.681 8.04297 23.4826 8.55456 25.2993C8.83682 26.3086 9.66595 27.0992 10.7068 27.3683C12.612 27.8561 20.2153 27.8561 20.2153 27.8561C20.2153 27.8561 27.8362 27.8561 29.7238 27.3683C30.7647 27.0992 31.5938 26.3086 31.8761 25.2993C32.3876 23.4826 32.3876 19.681 32.3876 19.681C32.3876 19.681 32.3876 15.8794 31.8761 14.0627ZM17.7279 23.1293V16.2326L24.0963 19.681L17.7279 23.1293Z" fill="white"/>
</g>
<defs>
<clipPath id="clip0_5874_26215">
<path d="M0 20C0 8.95431 8.95431 0 20 0C31.0457 0 40 8.95431 40 20C40 31.0457 31.0457 40 20 40C8.95431 40 0 31.0457 0 20Z" fill="white"/>
</clipPath>
</defs>
</svg>
