
<svg width="40" height="40" viewBox="0 0 40 40" fill="none" xmlns="http://www.w3.org/2000/svg">
<g clipPath="url(#clip0_4113_162153)">
<rect width="40" height="40" rx="6.00234" fill="url(#paint0_linear_4113_162153)"/>
<g clipPath="url(#clip1_4113_162153)">
<path d="M18.4864 18.3487V17.4051C18.1594 17.3587 17.8325 17.3393 17.5017 17.3354C13.4801 17.3354 10.2109 20.5455 10.2109 24.4942C10.2109 26.8302 11.3729 29.0192 13.3226 30.3573C12.1094 29.0772 11.3886 27.3639 11.3886 25.4804C11.3847 21.6013 14.5397 18.43 18.4864 18.3487Z" fill="#25F4EE"/>
<path d="M18.6591 28.7751C20.4512 28.7751 21.9401 27.3519 22.007 25.6038L22.011 10.0371L24.8863 10.0139C24.8233 9.68905 24.7918 9.35645 24.7918 9.02771H20.8333L20.8254 24.6176C20.7624 26.4198 19.2223 27.8276 17.3908 27.7657C16.8905 27.7503 16.4021 27.6226 15.957 27.3906C16.5636 28.2105 17.5444 28.7751 18.6591 28.7751Z" fill="#25F4EE"/>
<path d="M30.3061 15.3322V14.4388C29.2386 14.4388 28.1949 14.1333 27.3047 13.5609C28.0767 14.4311 29.1205 15.0808 30.3061 15.3322Z" fill="#25F4EE"/>
<path d="M27.3051 13.5604C26.4307 12.578 25.9502 11.3172 25.9502 10.01H24.8867C25.1664 11.4681 26.0408 12.7521 27.3051 13.5604Z" fill="#FE2C55"/>
<path d="M17.5041 21.2206C15.6647 21.2167 14.1719 22.6786 14.1719 24.4847C14.1719 25.703 14.8612 26.8246 15.9601 27.3854C14.8848 25.9234 15.2196 23.8853 16.7045 22.8256C17.2717 22.4234 17.9571 22.2068 18.6582 22.2068C18.993 22.2068 19.3238 22.2571 19.6429 22.3576V18.3896C19.316 18.3432 18.989 18.3199 18.6582 18.3199C18.5991 18.3199 18.5439 18.3238 18.4849 18.3238V21.3753C18.1698 21.2747 17.8389 21.2206 17.5041 21.2206Z" fill="#FE2C55"/>
<path d="M30.3083 15.3041V18.3285C28.331 18.3323 26.401 17.7213 24.7979 16.5881V24.4932C24.7979 28.442 21.5248 31.652 17.5072 31.652C16.0104 31.652 14.5531 31.1995 13.3281 30.3525C14.7028 31.8106 16.6367 32.6382 18.6613 32.6382C22.6828 32.6382 25.952 29.4282 25.952 25.4795V17.5743C27.559 18.7075 29.4851 19.3185 31.4624 19.3147V15.424C31.0764 15.424 30.6904 15.3814 30.3083 15.3041Z" fill="#FE2C55"/>
<path d="M24.7946 24.4938V16.5886C26.4016 17.7218 28.3277 18.3329 30.305 18.329V15.3046C29.1391 15.0571 28.0835 14.446 27.3036 13.5604C26.0392 12.7521 25.1648 11.4681 24.8852 10.01H21.9862L21.9823 25.6038C21.9192 27.406 20.3792 28.8138 18.5437 28.7519C17.5117 28.7171 16.5585 28.2143 15.9598 27.3905C14.3292 26.5552 13.699 24.5789 14.5497 22.9816C15.1248 21.9026 16.2631 21.2219 17.5038 21.2257C17.8386 21.2257 18.1695 21.276 18.4885 21.3766V18.3251C14.5458 18.4141 11.3672 21.5893 11.3672 25.48C11.3672 27.29 12.0644 29.0342 13.3248 30.3569C14.5497 31.2039 16.0071 31.6564 17.5038 31.6564C21.5214 31.6525 24.7946 28.4425 24.7946 24.4938Z" fill="white"/>
</g>
</g>
<defs>
<linearGradient id="paint0_linear_4113_162153" x1="2.64" y1="2.64" x2="35.8" y2="38.76" gradientUnits="userSpaceOnUse">
<stop stop-color="#004F54"/>
<stop offset="1" stop-opacity="0.933333"/>
</linearGradient>
<clipPath id="clip0_4113_162153">
<path d="M0 20C0 8.95431 8.95431 0 20 0C31.0457 0 40 8.95431 40 20C40 31.0457 31.0457 40 20 40C8.95431 40 0 31.0457 0 20Z" fill="white"/>
</clipPath>
<clipPath id="clip1_4113_162153">
<rect width="28.3333" height="28.3333" fill="white" transform="translate(6.66797 6.66663)"/>
</clipPath>
</defs>
</svg>
