 <svg
      width="21"
      height="20"
      viewBox="0 0 21 20"
      fill="none"
      xmlns="http://www.w3.org/2000/svg">
      <g id="Icon/Googleicon">
        <path
          id="Vector"
          d="M16.9 9.73473C16.9 9.262 16.8576 8.80746 16.7788 8.37109H10.5V10.9499H14.0879C13.9333 11.7832 13.4636 12.4893 12.7576 12.962V14.6347H14.9121C16.1727 13.4741 16.9 11.765 16.9 9.73473Z"
          fill="#4285F4"
        />
        <path
          id="Vector_2"
          d="M10.5005 16.2496C12.3005 16.2496 13.8096 15.6526 14.9127 14.6345L12.7581 12.9617C12.1612 13.3617 11.3975 13.5981 10.5005 13.5981C8.76418 13.5981 7.29448 12.4254 6.77024 10.8496H4.54297V12.5769C5.63994 14.7557 7.89448 16.2496 10.5005 16.2496Z"
          fill="#34A853"
        />
        <path
          id="Vector_3"
          d="M6.7684 10.8505C6.63506 10.4504 6.5593 10.0232 6.5593 9.58378C6.5593 9.14439 6.63506 8.71712 6.7684 8.31712V6.58984H4.54112C4.07446 7.51885 3.83162 8.54415 3.83203 9.58378C3.83203 10.6595 4.08961 11.6777 4.54112 12.5777L6.7684 10.8505Z"
          fill="#FBBC05"
        />
        <path
          id="Vector_4"
          d="M10.5005 5.56753C11.4793 5.56753 12.3581 5.90389 13.049 6.5645L14.9612 4.65238C13.8066 3.57662 12.2975 2.91602 10.5005 2.91602C7.89448 2.91602 5.63994 4.40995 4.54297 6.58874L6.77024 8.31602C7.29448 6.74026 8.76418 5.56753 10.5005 5.56753Z"
          fill="#EA4335"
        />
      </g>
    </svg>
