<svg width="24" height="24" viewBox="0 0 24 24" fill="none" xmlns="http://www.w3.org/2000/svg">
<g clip-path="url(#clip0_3468_204697)">
<mask id="mask0_3468_204697" style="mask-type:alpha" maskUnits="userSpaceOnUse" x="0" y="0" width="24" height="24">
<g clip-path="url(#clip1_3468_204697)">
<path fill-rule="evenodd" clip-rule="evenodd" d="M15.7968 3.81818C15.0284 3.81818 14.3015 4.10655 13.7735 4.60454L5.17751 12.7116C4.30027 13.5389 3.81818 14.6493 3.81818 15.795C3.81818 16.9407 4.30027 18.0511 5.17751 18.8784C6.05655 19.7075 7.25959 20.1818 8.52436 20.1818C9.78914 20.1818 10.9922 19.7075 11.8712 18.8784L20.4672 10.7714C20.8324 10.4269 21.4078 10.4437 21.7523 10.809C22.0967 11.1742 22.0799 11.7496 21.7146 12.0941L13.1187 20.2011C11.8916 21.3584 10.2381 22 8.52436 22C6.81061 22 5.15711 21.3584 3.93002 20.2011C2.70113 19.0421 2 17.4584 2 15.795C2 14.1316 2.70113 12.5479 3.93002 11.3889L12.526 3.28182C13.402 2.45558 14.5794 2 15.7968 2C17.0141 2 18.1915 2.45558 19.0676 3.28182C19.9455 4.10977 20.4494 5.24447 20.4494 6.43969C20.4494 7.63492 19.9455 8.76962 19.0676 9.59756L10.4623 17.7046C9.93724 18.1998 9.23592 18.4694 8.51501 18.4694C7.7941 18.4694 7.09278 18.1998 6.56774 17.7046C6.04088 17.2077 5.73416 16.522 5.73416 15.795C5.73416 15.068 6.04088 14.3823 6.56774 13.8854L14.5093 6.4043C14.8748 6.06004 15.4501 6.07722 15.7944 6.44268C16.1387 6.80814 16.1215 7.38348 15.756 7.72775L7.81522 15.2081C7.81521 15.2081 7.81523 15.2081 7.81522 15.2081C7.64004 15.3733 7.55234 15.5857 7.55234 15.795C7.55234 16.0043 7.64003 16.2167 7.81522 16.3819C7.99222 16.5488 8.24308 16.6512 8.51501 16.6512C8.78694 16.6512 9.0378 16.5488 9.2148 16.3819L17.8201 8.27485C17.82 8.27496 17.8202 8.27474 17.8201 8.27485C18.3461 7.7786 18.6312 7.11706 18.6312 6.43969C18.6312 5.76217 18.3463 5.10083 17.8201 4.60454C17.2921 4.10655 16.5651 3.81818 15.7968 3.81818Z" fill="#19191B"/>
</g>
</mask>
<g mask="url(#mask0_3468_204697)">
<g filter="url(#filter0_d_3468_204697)">
<rect width="24" height="24" fill="#A9ABB1"/>
</g>
</g>
</g>
<defs>
<filter id="filter0_d_3468_204697" x="-4" y="0" width="32" height="32" filterUnits="userSpaceOnUse" color-interpolation-filters="sRGB">
<feFlood flood-opacity="0" result="BackgroundImageFix"/>
<feColorMatrix in="SourceAlpha" type="matrix" values="0 0 0 0 0 0 0 0 0 0 0 0 0 0 0 0 0 0 127 0" result="hardAlpha"/>
<feOffset dy="4"/>
<feGaussianBlur stdDeviation="2"/>
<feComposite in2="hardAlpha" operator="out"/>
<feColorMatrix type="matrix" values="0 0 0 0 0 0 0 0 0 0 0 0 0 0 0 0 0 0 0.25 0"/>
<feBlend mode="normal" in2="BackgroundImageFix" result="effect1_dropShadow_3468_204697"/>
<feBlend mode="normal" in="SourceGraphic" in2="effect1_dropShadow_3468_204697" result="shape"/>
</filter>
<clipPath id="clip0_3468_204697">
<rect width="24" height="24" fill="white"/>
</clipPath>
<clipPath id="clip1_3468_204697">
<rect width="24" height="24" fill="white"/>
</clipPath>
</defs>
</svg>
