<svg width="16" height="16" viewBox="0 0 16 16" fill="none" xmlns="http://www.w3.org/2000/svg">
<path d="M8 14C11.3137 14 14 11.3137 14 8C14 4.68629 11.3137 2 8 2C4.68629 2 2 4.68629 2 8C2 11.3137 4.68629 14 8 14Z" fill="#F9C23C"/>
<circle cx="8" cy="8" r="5" fill="#D3883E"/>
<path d="M7.76667 5V7.69286H8.41333C9.04667 7.69286 9.36667 7.55714 9.36667 7.23571C9.36667 6.91429 9.04667 6.78571 8.41333 6.78571H7.83333L8.03333 5H8.85333C10.88 5 11.5 5.93571 11.5 7.27143C11.5 8.61429 10.88 9.55 8.85333 9.55H7.76667V11H5.5V5H7.76667Z" fill="#F9C23C"/>
</svg>
