<svg width="24" height="24" viewBox="0 0 24 24" fill="none" xmlns="http://www.w3.org/2000/svg">
<rect width="24" height="24" rx="6" fill="url(#paint0_radial_5289_34650)"/>
<g clip-path="url(#clip0_5289_34650)">
<path d="M11.7584 6.05085C13.6172 6.05085 13.8355 6.05913 14.5702 6.09228C15.2496 6.12266 15.617 6.2359 15.8628 6.33257C16.1887 6.45963 16.4207 6.60878 16.6638 6.85184C16.9069 7.0949 17.0588 7.32691 17.1831 7.65283C17.277 7.89866 17.393 8.26601 17.4234 8.94547C17.4565 9.68018 17.4648 9.89838 17.4648 11.7572C17.4648 13.6161 17.4565 13.8343 17.4234 14.569C17.393 15.2485 17.2797 15.6158 17.1831 15.8616C17.056 16.1876 16.9069 16.4196 16.6638 16.6626C16.4207 16.9057 16.1887 17.0576 15.8628 17.1819C15.617 17.2758 15.2496 17.3918 14.5702 17.4222C13.8355 17.4553 13.6172 17.4636 11.7584 17.4636C9.89953 17.4636 9.68133 17.4553 8.94662 17.4222C8.26716 17.3918 7.8998 17.2786 7.65398 17.1819C7.32806 17.0548 7.09605 16.9057 6.85299 16.6626C6.60992 16.4196 6.45801 16.1876 6.33372 15.8616C6.23981 15.6158 6.1238 15.2485 6.09342 14.569C6.06028 13.8343 6.05199 13.6161 6.05199 11.7572C6.05199 9.89838 6.06028 9.68018 6.09342 8.94547C6.1238 8.26601 6.23705 7.89866 6.33372 7.65283C6.46077 7.32691 6.60992 7.0949 6.85299 6.85184C7.09605 6.60878 7.32806 6.45687 7.65398 6.33257C7.8998 6.23866 8.26716 6.12266 8.94662 6.09228C9.68133 6.05637 9.90229 6.05085 11.7584 6.05085ZM11.7584 4.79688C9.86914 4.79688 9.63161 4.80516 8.88862 4.83831C8.14839 4.87145 7.64293 4.99022 7.201 5.16147C6.7425 5.33824 6.35582 5.57853 5.96913 5.96522C5.58244 6.35191 5.34491 6.74136 5.16537 7.1971C4.99412 7.63902 4.87536 8.14448 4.84221 8.88747C4.80907 9.6277 4.80078 9.86523 4.80078 11.7545C4.80078 13.6437 4.80907 13.8813 4.84221 14.6242C4.87536 15.3645 4.99412 15.8699 5.16537 16.3146C5.34214 16.7731 5.58244 17.1598 5.96913 17.5465C6.35582 17.9332 6.74527 18.1707 7.201 18.3502C7.64293 18.5215 8.14839 18.6403 8.89138 18.6734C9.63437 18.7066 9.86914 18.7148 11.7611 18.7148C13.6532 18.7148 13.8879 18.7066 14.6309 18.6734C15.3712 18.6403 15.8766 18.5215 16.3213 18.3502C16.7798 18.1735 17.1665 17.9332 17.5532 17.5465C17.9399 17.1598 18.1774 16.7704 18.3569 16.3146C18.5282 15.8727 18.6469 15.3672 18.6801 14.6242C18.7132 13.8813 18.7215 13.6465 18.7215 11.7545C18.7215 9.86247 18.7132 9.6277 18.6801 8.88471C18.6469 8.14448 18.5282 7.63902 18.3569 7.19433C18.1802 6.73583 17.9399 6.34915 17.5532 5.96246C17.1665 5.57577 16.777 5.33824 16.3213 5.1587C15.8794 4.98746 15.3739 4.86869 14.6309 4.83554C13.8852 4.80516 13.6476 4.79688 11.7584 4.79688Z" fill="url(#paint1_linear_5289_34650)"/>
<path d="M11.7577 8.18359C9.78558 8.18359 8.18359 9.78282 8.18359 11.7577C8.18359 13.7325 9.78282 15.3318 11.7577 15.3318C13.7325 15.3318 15.3318 13.7325 15.3318 11.7577C15.3318 9.78282 13.7325 8.18359 11.7577 8.18359ZM11.7577 14.075C10.4761 14.075 9.43756 13.0365 9.43756 11.7549C9.43756 10.4733 10.4761 9.4348 11.7577 9.4348C13.0393 9.4348 14.0778 10.4733 14.0778 11.7549C14.0778 13.0365 13.0393 14.075 11.7577 14.075Z" fill="url(#paint2_linear_5289_34650)"/>
<path d="M15.4748 8.87531C15.9354 8.87531 16.3089 8.50185 16.3089 8.04117C16.3089 7.58049 15.9354 7.20703 15.4748 7.20703C15.0141 7.20703 14.6406 7.58049 14.6406 8.04117C14.6406 8.50185 15.0141 8.87531 15.4748 8.87531Z" fill="url(#paint3_linear_5289_34650)"/>
</g>
<defs>
<radialGradient id="paint0_radial_5289_34650" cx="0" cy="0" r="1" gradientUnits="userSpaceOnUse" gradientTransform="translate(2.568 1.464) rotate(49.0472) scale(28.854)">
<stop stop-color="#7817ED"/>
<stop offset="0.501419" stop-color="#FB2BB2" stop-opacity="0.966572"/>
<stop offset="1" stop-color="#F7C610" stop-opacity="0.933333"/>
</radialGradient>
<linearGradient id="paint1_linear_5289_34650" x1="11.7612" y1="11.7559" x2="17.2846" y2="18.7159" gradientUnits="userSpaceOnUse">
<stop stop-color="#F5D9FF"/>
<stop offset="1" stop-color="#FBE8FE"/>
</linearGradient>
<linearGradient id="paint2_linear_5289_34650" x1="11.7577" y1="11.7577" x2="14.5946" y2="15.3318" gradientUnits="userSpaceOnUse">
<stop stop-color="#F5D9FF"/>
<stop offset="1" stop-color="#FBE8FE"/>
</linearGradient>
<linearGradient id="paint3_linear_5289_34650" x1="15.4748" y1="8.04117" x2="16.1369" y2="8.87531" gradientUnits="userSpaceOnUse">
<stop stop-color="#F5D9FF"/>
<stop offset="1" stop-color="#FBE8FE"/>
</linearGradient>
<clipPath id="clip0_5289_34650">
<rect width="13.9152" height="13.9152" fill="white" transform="translate(4.80078 4.79688)"/>
</clipPath>
</defs>
</svg>
