<svg width="145" height="28" viewBox="0 0 145 28" fill="none" xmlns="http://www.w3.org/2000/svg">
<path d="M21.14 2.616H10.088V24.396C10.628 24.504 11.24 24.648 11.888 24.828C13.508 25.296 15.092 25.512 16.676 25.512C18.296 25.512 19.88 25.296 21.5 24.828V26.268C19.88 26.736 18.296 26.952 16.676 26.952C15.092 26.952 13.508 26.736 11.888 26.268C10.304 25.8 8.72 25.584 7.1 25.584C5.48 25.584 3.896 25.8 2.276 26.268V2.616H0.476V1.176H21.14V2.616ZM24.128 26.988V0.348H31.94V11.904H35.324V13.344H31.94V26.988H24.128ZM58.2031 7.728C58.2031 12.552 54.7471 14.964 47.8711 14.964C40.9951 14.964 37.5391 12.552 37.5391 7.728C37.5391 2.904 40.9951 0.491998 47.8711 0.491998C54.7471 0.491998 58.2031 2.904 58.2031 7.728ZM61.5511 19.428V0.348H69.3631V19.428H61.5511ZM69.7231 24.828V26.268C64.5751 27.528 59.6791 27.528 54.5311 26.268C49.3831 25.008 44.4871 25.008 39.3391 26.268V16.656H47.1511V23.892C49.5991 23.928 52.0471 24.216 54.5311 24.828C59.6791 26.088 64.5751 26.088 69.7231 24.828ZM45.2791 7.728C45.2791 12.408 46.4671 13.524 47.8711 13.524C49.2751 13.524 50.4631 12.408 50.4631 7.728C50.4631 3.048 49.2751 1.932 47.8711 1.932C46.4671 1.932 45.2791 3.048 45.2791 7.728ZM75.6823 1.176H94.5463V14.172H83.4943V24.396C84.0343 24.504 84.6463 24.648 85.2943 24.828C86.9143 25.296 88.4983 25.512 90.0823 25.512C91.7023 25.512 93.2863 25.296 94.9062 24.828V26.268C93.2863 26.736 91.7023 26.952 90.0823 26.952C88.4983 26.952 86.9143 26.736 85.2943 26.268C83.7103 25.8 82.1263 25.584 80.5063 25.584C78.8863 25.584 77.3023 25.8 75.6823 26.268V12.732H86.7343V2.616H75.6823V1.176ZM98.2543 26.988V0.348H106.066V26.988H98.2543ZM111.917 1.176H121.529V6.108H133.409V1.176H141.221V14.28H113.717V2.616H111.917V1.176ZM130.781 26.304V18.852H124.193V26.304H116.381V18.852H110.837V17.412H144.101V18.852H138.593V26.304H130.781ZM133.409 12.84V7.548H121.529V12.84H133.409Z" fill="#19191B"/>
</svg>
