<svg width="24" height="24" viewBox="0 0 24 24" fill="none" xmlns="http://www.w3.org/2000/svg">
<rect width="24" height="24" rx="6.00234" fill="url(#paint0_linear_5289_45431)"/>
<path fill-rule="evenodd" clip-rule="evenodd" d="M17.0443 5.18359H6.95755C5.52991 5.18359 4.36719 6.34553 4.36719 7.76133V14.0006C4.36719 15.4213 5.53481 16.5784 6.95755 16.5784H10.5193L11.1326 17.6329L11.736 18.6728C11.8439 18.8632 12.1187 18.8632 12.2315 18.6728L12.8349 17.6329L13.4482 16.5784H17.0492C18.4768 16.5784 19.6396 15.4164 19.6396 14.0006V7.76622C19.6396 6.34553 18.4719 5.18359 17.0443 5.18359ZM12.7045 9.7542C11.9245 9.7542 11.2916 10.3742 11.2916 11.1407C11.2916 11.9072 11.9245 12.5272 12.7045 12.5272C13.4846 12.5272 14.1175 11.9072 14.1175 11.1407C14.1175 10.3742 13.4895 9.7542 12.7045 9.7542ZM12.7045 11.8047C12.3317 11.8047 12.0275 11.5069 12.0275 11.1407C12.0275 10.7746 12.3317 10.4767 12.7045 10.4767C13.0774 10.4767 13.3816 10.7746 13.3816 11.1407C13.3816 11.5069 13.0823 11.8047 12.7045 11.8047ZM7.42652 10.0721C7.64729 9.8719 7.93184 9.75473 8.23601 9.75473C8.94247 9.75473 9.50666 10.3796 9.50666 11.1461C9.50666 11.9126 8.93757 12.5326 8.23601 12.5326C7.92693 12.5326 7.64729 12.4106 7.42652 12.2153V12.4643H6.64156V8.92477H7.42652V10.0721ZM7.43143 11.4146C7.53936 11.6636 7.78957 11.8345 8.07902 11.8345C8.4715 11.8345 8.78548 11.5269 8.78548 11.1412C8.78548 10.7556 8.4715 10.448 8.07902 10.448C7.78957 10.448 7.53936 10.6189 7.43143 10.8678C7.39218 10.9508 7.37256 11.0436 7.37256 11.1412C7.37256 11.2389 7.39709 11.3316 7.43143 11.4146ZM16.5664 9.81346V10.0332C16.3457 9.86228 16.0709 9.75976 15.7766 9.75976C15.0554 9.75976 14.4716 10.3603 14.4716 11.0975C14.4716 11.8346 15.0554 12.4351 15.7766 12.4351C16.0758 12.4351 16.3506 12.3326 16.5664 12.1617V12.5328C16.5664 12.5328 16.4879 12.8989 15.9385 12.8989V13.5873C15.9385 13.5873 16.5321 13.6557 17.0619 13.1284C17.0619 13.1284 17.3072 12.8696 17.3612 12.5279V9.81346H16.5664ZM15.9237 11.7761C15.5264 11.7761 15.2075 11.4685 15.2075 11.0926C15.2075 10.7167 15.5313 10.4091 15.9237 10.4091C16.2034 10.4091 16.4487 10.5653 16.5664 10.7899C16.6155 10.8826 16.64 10.9852 16.64 11.0926C16.64 11.2 16.6106 11.3074 16.5664 11.3953C16.4487 11.6247 16.2034 11.7761 15.9237 11.7761ZM9.59469 9.56329V8.85539C9.59469 8.85539 10.1149 8.78704 10.5763 9.32895C10.5763 9.32895 10.7873 9.59258 10.8364 9.94409V9.96362V12.4632H10.0266V9.96362C9.95787 9.61211 9.59469 9.56329 9.59469 9.56329Z" fill="url(#paint1_linear_5289_45431)"/>
<defs>
<linearGradient id="paint0_linear_5289_45431" x1="1.584" y1="1.584" x2="21.48" y2="23.256" gradientUnits="userSpaceOnUse">
<stop offset="1" stop-color="#06CD28" stop-opacity="0.933333"/>
</linearGradient>
<linearGradient id="paint1_linear_5289_45431" x1="5.08719" y1="5.73559" x2="18.0472" y2="17.9756" gradientUnits="userSpaceOnUse">
<stop stop-color="#F1F5F2"/>
<stop offset="1" stop-color="#EEEEEE"/>
</linearGradient>
</defs>
</svg>
