<svg width="24" height="24" viewBox="0 0 24 24" fill="none" xmlns="http://www.w3.org/2000/svg">
<g clip-path="url(#clip0_5782_51156)">
<path d="M7 9C7 6.23858 9.23858 4 12 4V2C8.13401 2 5 5.13401 5 9H7ZM7 10.8583V9H5V10.8583H7ZM6 17C5.44772 17 5 16.5523 5 16H3C3 17.6569 4.34315 19 6 19V17ZM18 17H6V19H18V17ZM19 16C19 16.5523 18.5523 17 18 17V19C19.6569 19 21 17.6569 21 16H19ZM17 9V10.8583H19V9H17ZM12 4C14.7614 4 17 6.23858 17 9H19C19 5.13401 15.866 2 12 2V4ZM21 16C21 14.8065 20.3216 13.7051 19.8624 12.9229C19.3216 12.0018 19 11.3999 19 10.8583H17C17 12.0518 17.6784 13.1532 18.1376 13.9354C18.6784 14.8565 19 15.4584 19 16H21ZM5 10.8583C5 11.3999 4.6784 12.0018 4.13764 12.9229C3.6784 13.7051 3 14.8065 3 16H5C5 15.4584 5.3216 14.8565 5.86236 13.9354C6.3216 13.1532 7 12.0518 7 10.8583H5Z" fill="#19191B"/>
<path d="M9 21C9 20.4477 9.44772 20 10 20H14C14.5523 20 15 20.4477 15 21C15 21.5523 14.5523 22 14 22H10C9.44772 22 9 21.5523 9 21Z" fill="#19191B"/>
<path fill-rule="evenodd" clip-rule="evenodd" d="M7 9C7 6.23858 9.23858 4 12 4C14.7614 4 17 6.23858 17 9V10.8583C17 12.003 17.624 13.063 18.0802 13.8379L18.1376 13.9354C18.6784 14.8565 19 15.4584 19 16C19 16.5523 18.5523 17 18 17H6C5.44772 17 5 16.5523 5 16C5 15.4584 5.3216 14.8565 5.86236 13.9354L5.91975 13.8379C6.37596 13.063 7 12.003 7 10.8583V9ZM12 2C8.13401 2 5 5.13401 5 9V10.8583C5 11.3999 4.6784 12.0018 4.13764 12.9229L4.08025 13.0204C3.62404 13.7953 3 14.8553 3 16C3 17.6569 4.34315 19 6 19H18C19.6569 19 21 17.6569 21 16C21 14.8553 20.376 13.7953 19.9197 13.0204L19.8624 12.9229C19.3216 12.0018 19 11.3999 19 10.8583V9C19 5.13401 15.866 2 12 2ZM10 20C9.44772 20 9 20.4477 9 21C9 21.5523 9.44772 22 10 22H14C14.5523 22 15 21.5523 15 21C15 20.4477 14.5523 20 14 20H10Z" fill="#19191B"/>
</g>
<defs>
<clipPath id="clip0_5782_51156">
<rect width="24" height="24" fill="white"/>
</clipPath>
</defs>
</svg>
