<svg width="1400" height="281" viewBox="0 0 1400 281" fill="none" xmlns="http://www.w3.org/2000/svg">
<rect width="1400" height="265" fill="url(#paint0_linear_5287_147960)"/>
<path d="M804.045 71.8047C807.066 71.7793 809.364 73.582 809.809 76.2227H814.531V70.4844H816.537V83.459H814.531V77.873H809.834C809.453 80.6279 807.117 82.4434 804.045 82.4434C800.643 82.4434 798.18 80.2852 798.18 77.1113C798.18 73.9883 800.643 71.7793 804.045 71.8047ZM804.045 73.4805C801.734 73.4805 800.084 74.9785 800.084 77.1113C800.084 79.2695 801.734 80.7422 804.045 80.7676C806.279 80.7422 807.955 79.2695 807.955 77.1113C807.955 74.9785 806.279 73.4805 804.045 73.4805ZM816.537 84.627V92.752H801.785V84.627H816.537ZM803.766 86.252V91.127H814.582V86.252H803.766Z" fill="white"/>
<path d="M787.107 72.7188V87.3945H776.672V72.7188H787.107ZM778.627 74.3184V85.7695H785.152V74.3184H778.627ZM793.963 70.4844V93.1074H791.957V70.4844H793.963Z" fill="white"/>
<path d="M771.516 70.4844V93.1074H769.535V70.4844H771.516ZM764.66 72.5918V80.6152H756.23V85.9473C759.976 85.9473 763.314 85.7822 767.352 85.1348L767.555 86.8105C763.391 87.4707 759.963 87.623 756.078 87.623H754.199V78.9902H762.654V74.2422H754.148V72.5918H764.66Z" fill="white"/>
<path d="M751.078 88.4609V90.1621H730.41V88.4609H751.078ZM749.098 72.7695V74.4199H745.518V82.3164H749.047V83.9414H732.289V82.3164H735.818V74.4199H732.238V72.7695H749.098ZM737.799 82.3164H743.562V74.4199H737.799V82.3164Z" fill="white"/>
<path d="M708.801 72.1348C712.355 72.1348 714.869 74.293 714.869 77.4414C714.869 80.5898 712.355 82.748 708.801 82.748C705.246 82.748 702.682 80.5898 702.707 77.4414C702.682 74.293 705.246 72.1348 708.801 72.1348ZM708.801 73.8867C706.389 73.8867 704.637 75.334 704.662 77.4414C704.637 79.5488 706.389 80.9961 708.801 80.9961C711.188 80.9961 712.914 79.5488 712.914 77.4414C712.914 75.334 711.188 73.8867 708.801 73.8867ZM719.922 70.4844V93.1074H717.941V70.4844H719.922ZM701.539 86.4297C705.703 86.4297 711.441 86.4043 716.443 85.668L716.596 87.1406C711.441 88.1055 705.881 88.1309 701.818 88.1309L701.539 86.4297Z" fill="white"/>
<path d="M699.512 81.0469V82.6973H690.193V85.1094C694.459 85.2871 696.973 86.6836 696.998 89.0703C696.973 91.584 694.078 93.0059 689.229 93.0059C684.328 93.0059 681.434 91.584 681.434 89.0703C681.434 86.6836 683.935 85.2871 688.238 85.1094V82.6973H678.945V81.0469H699.512ZM689.229 86.6328C685.598 86.6582 683.439 87.5469 683.465 89.0703C683.439 90.5684 685.598 91.457 689.229 91.457C692.809 91.457 694.992 90.5684 694.992 89.0703C694.992 87.5469 692.809 86.6582 689.229 86.6328ZM697.684 71.5508V73.1758H690.523C690.65 75.7148 694.383 77.6826 698.369 78.1016L697.633 79.6758C693.938 79.2314 690.473 77.5811 689.229 75.0547C687.997 77.5811 684.544 79.2314 680.824 79.6758L680.113 78.1016C684.023 77.6826 687.781 75.7148 687.934 73.1758H680.824V71.5508H697.684Z" fill="white"/>
<path d="M656.17 71.8047C659.191 71.7793 661.489 73.582 661.934 76.2227H666.656V70.4844H668.662V83.459H666.656V77.873H661.959C661.578 80.6279 659.242 82.4434 656.17 82.4434C652.768 82.4434 650.305 80.2852 650.305 77.1113C650.305 73.9883 652.768 71.7793 656.17 71.8047ZM656.17 73.4805C653.859 73.4805 652.209 74.9785 652.209 77.1113C652.209 79.2695 653.859 80.7422 656.17 80.7676C658.404 80.7422 660.08 79.2695 660.08 77.1113C660.08 74.9785 658.404 73.4805 656.17 73.4805ZM668.662 84.627V92.752H653.91V84.627H668.662ZM655.891 86.252V91.127H666.707V86.252H655.891Z" fill="white"/>
<path d="M639.232 72.7188V87.3945H628.797V72.7188H639.232ZM630.752 74.3184V85.7695H637.277V74.3184H630.752ZM646.088 70.4844V93.1074H644.082V70.4844H646.088Z" fill="white"/>
<path d="M623.641 70.4844V93.1074H621.66V70.4844H623.641ZM616.785 72.5918V80.6152H608.355V85.9473C612.101 85.9473 615.439 85.7822 619.477 85.1348L619.68 86.8105C615.516 87.4707 612.088 87.623 608.203 87.623H606.324V78.9902H614.779V74.2422H606.273V72.5918H616.785Z" fill="white"/>
<path d="M603.203 88.4609V90.1621H582.535V88.4609H603.203ZM601.223 72.7695V74.4199H597.643V82.3164H601.172V83.9414H584.414V82.3164H587.943V74.4199H584.363V72.7695H601.223ZM589.924 82.3164H595.688V74.4199H589.924V82.3164Z" fill="white"/>
<path opacity="0.7" d="M891.078 184.453V185.484H878.359V184.453H881.516V180.703C880.328 180.086 879.609 179.086 879.609 177.828C879.609 175.672 881.719 174.266 884.688 174.25C887.656 174.266 889.766 175.672 889.766 177.828C889.766 179.062 889.07 180.055 887.922 180.672V184.453H891.078ZM884.688 175.266C882.406 175.25 880.797 176.281 880.797 177.828C880.797 179.375 882.406 180.422 884.688 180.422C886.953 180.422 888.578 179.375 888.578 177.828C888.578 176.281 886.953 175.25 884.688 175.266ZM882.719 184.453H886.688V181.141C886.086 181.305 885.414 181.391 884.688 181.391C883.977 181.391 883.312 181.312 882.719 181.156V184.453Z" fill="white"/>
<path opacity="0.7" d="M868.656 177.328C868.656 179.531 869.734 181.922 871.578 183.016L870.875 183.969C869.539 183.156 868.578 181.672 868.094 179.984C867.578 181.828 866.547 183.414 865.156 184.266L864.375 183.344C866.297 182.219 867.469 179.75 867.469 177.375V174.688H868.656V177.328ZM876.438 173.375V187.266H875.25V173.375H876.438ZM873.562 173.672V186.562H872.406V179.406H870.047V178.359H872.406V173.672H873.562Z" fill="white"/>
<path opacity="0.7" d="M863.422 184.469V185.484H850.703V184.469H856.422V181.469H852.203V174.359H853.438V176.875H860.656V174.359H861.859V181.469H857.625V184.469H863.422ZM853.438 180.469H860.656V177.875H853.438V180.469Z" fill="white"/>
<path opacity="0.7" d="M849.875 178.922V179.953H847.625V187.266H846.406V173.375H847.625V178.922H849.875ZM838.672 174.75V182.703C840.703 182.695 842.773 182.539 845.062 182.062L845.219 183.109C842.828 183.594 840.672 183.734 838.562 183.734H837.453V174.75H838.672Z" fill="white"/>
<path opacity="0.7" d="M830.062 174.641V181.031H823.641V174.641H830.062ZM824.844 175.641V180.047H828.875V175.641H824.844ZM833.906 173.375V177.609H836V178.641H833.906V183.562H832.688V173.375H833.906ZM834.547 185.938V186.969H825.219V182.594H826.422V185.938H834.547Z" fill="white"/>
<path opacity="0.7" d="M811.531 173.625C814.625 173.625 816.438 174.469 816.438 176.016C816.438 177.594 814.625 178.438 811.531 178.453C808.438 178.438 806.609 177.594 806.609 176.016C806.609 174.469 808.438 173.625 811.531 173.625ZM811.531 174.547C809.219 174.547 807.875 175.109 807.891 176.016C807.875 176.984 809.219 177.516 811.531 177.516C813.828 177.516 815.188 176.984 815.188 176.016C815.188 175.109 813.828 174.547 811.531 174.547ZM817.859 179.391V180.391H805.203V179.391H817.859ZM816.234 181.594V184.703H807.984V186.141H816.656V187.109H806.766V183.797H815.031V182.531H806.734V181.594H816.234Z" fill="white"/>
<path opacity="0.7" d="M795.203 174.188C797.062 174.172 798.477 175.281 798.75 176.906H801.656V173.375H802.891V181.359H801.656V177.922H798.766C798.531 179.617 797.094 180.734 795.203 180.734C793.109 180.734 791.594 179.406 791.594 177.453C791.594 175.531 793.109 174.172 795.203 174.188ZM795.203 175.219C793.781 175.219 792.766 176.141 792.766 177.453C792.766 178.781 793.781 179.688 795.203 179.703C796.578 179.688 797.609 178.781 797.609 177.453C797.609 176.141 796.578 175.219 795.203 175.219ZM802.891 182.078V187.078H793.812V182.078H802.891ZM795.031 183.078V186.078H801.688V183.078H795.031Z" fill="white"/>
<path opacity="0.7" d="M784.781 174.75V183.781H778.359V174.75H784.781ZM779.562 175.734V182.781H783.578V175.734H779.562ZM789 173.375V187.297H787.766V173.375H789Z" fill="white"/>
<path opacity="0.7" d="M775.188 173.375V187.297H773.969V173.375H775.188ZM770.969 174.672V179.609H765.781V182.891C768.086 182.891 770.141 182.789 772.625 182.391L772.75 183.422C770.188 183.828 768.078 183.922 765.688 183.922H764.531V178.609H769.734V175.688H764.5V174.672H770.969Z" fill="white"/>
<path opacity="0.7" d="M762.609 184.438V185.484H749.891V184.438H762.609ZM761.391 174.781V175.797H759.188V180.656H761.359V181.656H751.047V180.656H753.219V175.797H751.016V174.781H761.391ZM754.438 180.656H757.984V175.797H754.438V180.656Z" fill="white"/>
<path opacity="0.7" d="M743.281 177.594V178.578H733.766V173.891H734.984V177.594H743.281ZM744.75 180.469V181.469H732.031V180.469H744.75ZM743.359 185.906V186.922H733.688V182.891H734.906V185.906H743.359Z" fill="white"/>
<path opacity="0.7" d="M722.922 182.703C722.922 183.93 723.578 185.234 724.906 185.984C726.219 185.164 726.922 183.781 726.922 182.703V181.938H728.125V182.703C728.125 184.125 729.172 185.562 730.953 186.172L730.344 187.078C728.953 186.586 727.977 185.617 727.5 184.453C727.07 185.578 726.219 186.641 724.938 187.188C723.586 186.672 722.727 185.648 722.312 184.484C721.82 185.609 720.859 186.578 719.531 187.078L718.906 186.172C720.656 185.516 721.719 184.031 721.734 182.703V181.938H722.922V182.703ZM729.688 173.391V181.328H728.469V173.391H729.688ZM722.188 174.203C724.297 174.203 725.828 175.516 725.828 177.453C725.828 179.359 724.297 180.672 722.188 180.672C720.078 180.672 718.547 179.359 718.547 177.453C718.547 175.516 720.078 174.203 722.188 174.203ZM722.188 175.25C720.766 175.234 719.734 176.156 719.75 177.453C719.734 178.734 720.766 179.641 722.188 179.656C723.594 179.641 724.625 178.734 724.625 177.453C724.625 176.156 723.594 175.234 722.188 175.25Z" fill="white"/>
<path opacity="0.7" d="M707.344 174.672C707.344 176.625 709.906 178.328 712.406 178.672L711.906 179.672C709.75 179.312 707.617 178.117 706.719 176.406C705.828 178.125 703.688 179.312 701.531 179.672L701.031 178.672C703.531 178.328 706.078 176.656 706.078 174.672V173.875H707.344V174.672ZM713.031 181.203V182.234H707.281V187.266H706.078V182.234H700.375V181.203H713.031Z" fill="white"/>
<path opacity="0.7" d="M685.438 173.609V174.938H692.312V173.609H693.531V178.172H689.438V179.547H695.188V180.547H682.531V179.547H688.234V178.172H684.219V173.609H685.438ZM685.438 177.219H692.312V175.875H685.438V177.219ZM693.562 181.703V184.781H685.312V186.141H693.984V187.109H684.094V183.875H692.359V182.641H684.062V181.703H693.562Z" fill="white"/>
<path opacity="0.7" d="M681.703 178.922V179.953H679.453V187.266H678.234V173.375H679.453V178.922H681.703ZM670.5 174.75V182.703C672.531 182.695 674.602 182.539 676.891 182.062L677.047 183.109C674.656 183.594 672.5 183.734 670.391 183.734H669.281V174.75H670.5Z" fill="white"/>
<path opacity="0.7" d="M661.891 174.641V181.031H655.469V174.641H661.891ZM656.672 175.641V180.047H660.703V175.641H656.672ZM665.734 173.375V177.609H667.828V178.641H665.734V183.562H664.516V173.375H665.734ZM666.375 185.938V186.969H657.047V182.594H658.25V185.938H666.375Z" fill="white"/>
<path opacity="0.7" d="M644.047 174.641V181.031H637.625V174.641H644.047ZM638.828 175.641V180.047H642.859V175.641H638.828ZM647.891 173.375V177.609H649.984V178.641H647.891V183.562H646.672V173.375H647.891ZM648.531 185.938V186.969H639.203V182.594H640.406V185.938H648.531Z" fill="white"/>
<path opacity="0.7" d="M628.094 177.109C628.094 179.625 629.703 182.156 631.719 183.078L630.984 184.078C629.406 183.266 628.102 181.602 627.484 179.625C626.867 181.703 625.562 183.484 623.984 184.328L623.188 183.344C625.219 182.344 626.844 179.672 626.844 177.109V174.578H628.094V177.109ZM634.719 173.375V187.297H633.5V179.125H630.203V178.125H633.5V173.375H634.719Z" fill="white"/>
<path opacity="0.7" d="M621.281 173.375V187.266H620.094V173.375H621.281ZM618.484 173.672V186.562H617.312V179.812H615.531C615.398 182.516 614.25 184.203 612.531 184.203C610.719 184.203 609.547 182.328 609.547 179.375C609.547 176.422 610.719 174.547 612.531 174.547C614.219 174.547 615.359 176.18 615.516 178.797H617.312V173.672H618.484ZM612.531 175.703C611.406 175.703 610.688 177.109 610.703 179.375C610.688 181.625 611.406 183.047 612.531 183.031C613.656 183.047 614.375 181.625 614.375 179.375C614.375 177.109 613.656 175.703 612.531 175.703Z" fill="white"/>
<path opacity="0.7" d="M606.406 173.375V177.516H608.516V178.547H606.406V183.438H605.188V173.375H606.406ZM602.391 174.578V175.609H597.422V179.938C600.211 179.938 601.797 179.867 603.656 179.484L603.812 180.5C601.859 180.875 600.203 180.969 597.281 180.969H596.203V174.578H602.391ZM607.047 185.938V186.969H597.719V182.422H598.922V185.938H607.047Z" fill="white"/>
<path opacity="0.7" d="M593.234 173.375V181.797H592V178.625H589.641V177.609H592V173.375H593.234ZM593.234 182.547V187.078H584.156V182.547H593.234ZM585.375 183.531V186.078H592.031V183.531H585.375ZM589.844 174.844V175.844H581.734V174.844H585.188V173.25H586.391V174.844H589.844ZM585.781 176.562C587.672 176.562 589 177.578 589.016 179.031C589 180.531 587.672 181.516 585.781 181.516C583.891 181.516 582.562 180.531 582.562 179.031C582.562 177.578 583.891 176.562 585.781 176.562ZM585.781 177.516C584.578 177.516 583.734 178.141 583.734 179.031C583.734 179.953 584.578 180.562 585.781 180.578C586.984 180.562 587.828 179.953 587.828 179.031C587.828 178.141 586.984 177.516 585.781 177.516Z" fill="white"/>
<path opacity="0.7" d="M571.953 177.656C571.953 179.891 573.094 182.172 574.984 183.188L574.281 184.109C572.898 183.359 571.898 181.922 571.391 180.25C570.891 182.031 569.898 183.578 568.516 184.422L567.781 183.484C569.672 182.391 570.781 179.953 570.797 177.656V176.969H568.156V175.953H570.797V173.891H571.969V175.953H574.562V176.969H571.953V177.656ZM579.766 173.375V187.266H578.594V173.375H579.766ZM576.953 173.719V186.547H575.797V179.906H573.609V178.859H575.797V173.719H576.953Z" fill="white"/>
<path opacity="0.7" d="M565.531 173.391V183.547H564.312V173.391H565.531ZM565.969 185.938V186.969H556.562V182.516H557.781V185.938H565.969ZM558.031 174.359C560.109 174.359 561.672 175.766 561.672 177.766C561.672 179.797 560.109 181.188 558.031 181.188C555.953 181.188 554.391 179.797 554.391 177.766C554.391 175.766 555.953 174.359 558.031 174.359ZM558.031 175.438C556.625 175.438 555.578 176.406 555.594 177.766C555.578 179.156 556.625 180.109 558.031 180.109C559.406 180.109 560.469 179.156 560.469 177.766C560.469 176.406 559.406 175.438 558.031 175.438Z" fill="white"/>
<path opacity="0.7" d="M550.984 173.375V178.875H553.312V179.906H550.984V187.297H549.766V173.375H550.984ZM547.328 174.734V175.75H542.062V182.781C544.578 182.781 546.359 182.664 548.422 182.281L548.578 183.344C546.406 183.734 544.578 183.812 541.938 183.812H540.844V174.734H547.328Z" fill="white"/>
<path opacity="0.7" d="M527.391 175.953C527.391 177.828 528.875 179.531 530.953 180.203L530.328 181.156C528.711 180.609 527.422 179.461 526.797 177.984C526.188 179.57 524.883 180.82 523.234 181.422L522.594 180.469C524.672 179.734 526.156 177.922 526.156 175.953V175.359H522.906V174.359H530.594V175.359H527.391V175.953ZM533.859 173.375V181.781H532.641V173.375H533.859ZM533.859 182.516V187.266H532.641V183.531H524.516V182.516H533.859Z" fill="white"/>
<path opacity="0.7" d="M514.891 174.281C517.844 174.297 519.969 175.734 519.969 177.922C519.969 179.992 518.125 181.367 515.484 181.531V184.453H521.281V185.484H508.562V184.453H514.281V181.531C511.648 181.359 509.812 179.984 509.812 177.922C509.812 175.734 511.938 174.297 514.891 174.281ZM514.891 175.297C512.641 175.297 511 176.359 511 177.922C511 179.531 512.641 180.562 514.891 180.578C517.141 180.562 518.781 179.531 518.781 177.922C518.781 176.359 517.141 175.297 514.891 175.297Z" fill="white"/>
<path d="M787.033 122.551L780.057 129.271L788.377 145.175H779.769L774.329 134.775L773.657 135.415V145.175H766.073V124.151H764.473V122.551H773.657V133.239L784.761 122.551H787.033Z" fill="white"/>
<path d="M762.51 122.551V128.631H754.926V124.151H748.75V142.967C749.284 143.031 749.806 143.105 750.318 143.191C750.83 143.297 751.342 143.425 751.854 143.575C752.793 143.852 753.817 144.055 754.926 144.183V138.871H762.51V145.175C760.782 145.665 759.001 145.911 757.166 145.911C755.353 145.911 753.582 145.665 751.854 145.175C750.126 144.684 748.345 144.439 746.51 144.439C744.676 144.439 742.894 144.684 741.166 145.175V124.151H739.566V122.551H762.51Z" fill="white"/>
<path d="M737.902 145.175C737.219 145.388 736.59 145.548 736.014 145.655C735.438 145.761 734.872 145.815 734.318 145.815C733.784 145.815 733.23 145.761 732.654 145.655C732.078 145.548 731.448 145.388 730.766 145.175C730.083 144.961 729.454 144.801 728.878 144.695C728.302 144.588 727.736 144.535 727.182 144.535C726.627 144.535 726.062 144.588 725.486 144.695C724.91 144.801 724.28 144.961 723.598 145.175V143.575C724.238 143.361 724.824 143.201 725.358 143.095C725.912 143.009 726.446 142.956 726.958 142.935V124.151H723.598V122.551H737.902V124.151H734.542V144.215C735.054 144.193 735.576 144.129 736.11 144.023C736.643 143.916 737.24 143.767 737.902 143.575V145.175Z" fill="white"/>
<path d="M721.049 122.551V136.791H706.969V145.175H699.385V124.151H697.785V122.551H721.049ZM706.969 135.191H713.465V124.151H706.969V135.191Z" fill="white"/>
<path d="M678.633 122.551H685.737L685.097 129.943H679.273L678.633 122.551Z" fill="white"/>
<path d="M663.926 128.536C663.926 132.931 660.812 135.128 654.582 135.128C648.353 135.128 645.238 132.931 645.238 128.536C645.238 124.142 648.353 121.944 654.582 121.944C660.812 121.944 663.926 124.142 663.926 128.536ZM666.262 121.816H673.846V139.096H666.262V121.816ZM674.166 145.176C671.884 145.731 669.601 146.008 667.318 146.008C665.057 146.008 662.785 145.731 660.502 145.176C658.22 144.622 655.937 144.344 653.654 144.344C651.393 144.344 649.121 144.622 646.838 145.176V136.312H654.422V142.776C655.446 142.819 656.46 142.904 657.462 143.032C658.465 143.16 659.478 143.342 660.502 143.576C662.785 144.131 665.057 144.408 667.318 144.408C669.601 144.408 671.884 144.131 674.166 143.576V145.176ZM652.758 128.536C652.758 129.539 652.801 130.36 652.886 131C652.972 131.64 653.089 132.152 653.238 132.536C653.388 132.899 653.569 133.155 653.782 133.304C654.017 133.454 654.284 133.528 654.582 133.528C654.86 133.528 655.116 133.454 655.35 133.304C655.585 133.155 655.777 132.899 655.926 132.536C656.076 132.152 656.193 131.64 656.278 131C656.364 130.36 656.406 129.539 656.406 128.536C656.406 127.534 656.364 126.712 656.278 126.072C656.193 125.432 656.076 124.931 655.926 124.568C655.777 124.184 655.585 123.918 655.35 123.768C655.116 123.619 654.86 123.544 654.582 123.544C654.284 123.544 654.017 123.619 653.782 123.768C653.569 123.918 653.388 124.184 653.238 124.568C653.089 124.931 652.972 125.432 652.886 126.072C652.801 126.712 652.758 127.534 652.758 128.536Z" fill="white"/>
<path d="M621.477 124.152V143.288C621.669 143.331 621.85 143.374 622.021 143.416C622.213 143.459 622.405 143.512 622.597 143.576C624.005 143.982 625.456 144.184 626.949 144.184C628.442 144.184 629.893 143.982 631.301 143.576V145.176C629.893 145.582 628.442 145.784 626.949 145.784C625.456 145.784 624.005 145.582 622.597 145.176C621.189 144.771 619.738 144.568 618.245 144.568C616.752 144.568 615.301 144.771 613.893 145.176V124.152H612.293V122.552H630.981V124.152H621.477ZM632.997 121.816H640.581V132.088H643.589V133.688H640.581V145.816H632.997V121.816Z" fill="white"/>
<path opacity="0.1" d="M947.049 229.085C945.796 233.156 945.013 236.366 944.7 238.714C944.387 240.907 944.308 242.551 944.465 243.647C944.778 244.586 945.248 245.212 945.874 245.526C946.5 245.839 947.127 246.152 947.753 246.465C950.885 246.465 956.991 241.455 966.073 231.434C975.154 221.413 986.819 206.694 1001.07 187.279C1001.69 186.496 1002.87 186.105 1004.59 186.105C1006.47 186.105 1008.19 186.574 1009.76 187.514C1011.32 188.453 1012.11 189.471 1012.11 190.567C1012.11 191.037 1010.07 195.577 1006 204.189C996.135 224.701 991.203 237.462 991.203 242.472C991.203 245.447 992.691 246.935 995.666 246.935C998.641 246.935 1004.36 241.22 1012.81 229.79C1012.65 229.007 1012.5 228.302 1012.34 227.676C1012.34 227.049 1012.34 226.58 1012.34 226.267C1012.34 221.882 1013.83 216.794 1016.8 211C1018.37 208.025 1020.09 205.207 1021.97 202.545C1023.85 199.883 1025.89 197.456 1028.08 195.264C1032.46 190.567 1035.91 188.218 1038.41 188.218C1041.07 188.218 1042.4 191.428 1042.4 197.848C1042.4 207.556 1038.02 217.968 1029.25 229.085C1032.23 232.216 1034.89 233.782 1037.24 233.782C1039.59 233.782 1042.8 231.747 1046.87 227.676V235.896C1041.07 242.159 1035.83 245.291 1031.13 245.291C1028.63 245.291 1026.59 244.978 1025.02 244.351C1023.61 243.725 1021.74 242.551 1019.39 240.828C1005.3 257.739 994.57 266.194 987.211 266.194C981.104 266.194 978.051 262.201 978.051 254.216C978.051 252.024 978.207 249.205 978.52 245.76C978.99 242.159 979.617 238.088 980.399 233.547C968.813 247.483 960.906 256.173 956.678 259.617C952.607 262.749 949.554 264.315 947.518 264.315C943.76 264.315 939.768 261.496 935.54 255.86C931.469 249.91 929.434 243.099 929.434 235.426C929.434 230.103 930.686 225.014 933.191 220.16C935.853 215.15 940.237 208.652 946.344 200.666C949.475 196.752 952.294 193.464 954.799 190.802C957.304 188.14 959.418 186.183 961.14 184.93C964.742 182.268 967.482 180.938 969.361 180.938C970.3 180.938 971.318 181.172 972.414 181.642C973.667 181.955 974.841 182.425 975.937 183.051C977.033 183.521 977.894 184.069 978.52 184.695C979.303 185.322 979.695 185.87 979.695 186.339C979.695 190.724 976.798 196.673 971.005 204.189C965.368 211.705 957.383 220.003 947.049 229.085Z" fill="white"/>
<path opacity="0.1" d="M879.2 232.367V235.185C879.2 239.726 880.218 243.249 882.254 245.754C884.446 248.259 887.89 249.512 892.588 249.512C897.442 249.512 902.765 247.711 908.559 244.11C914.508 240.509 921.476 235.185 929.462 228.139V235.185C911.612 256.636 895.798 267.362 882.019 267.362C874.973 267.362 869.493 264.622 865.578 259.141C861.82 253.505 859.941 246.38 859.941 237.769C859.941 228.844 862.838 220.075 868.631 211.464C874.425 202.695 882.097 195.336 891.648 189.386C901.043 183.28 909.185 180.227 916.074 180.227C919.832 180.227 922.807 181.088 924.999 182.81C927.191 184.532 928.287 186.959 928.287 190.091C928.287 204.809 911.925 218.901 879.2 232.367ZM880.375 224.851C890.709 220.78 898.616 215.613 904.096 209.35C909.576 202.93 912.316 198.311 912.316 195.493C912.316 193.77 911.455 192.909 909.733 192.909C906.132 192.909 900.73 196.197 893.527 202.774C886.325 209.037 881.94 216.396 880.375 224.851Z" fill="white"/>
<path opacity="0.1" d="M845.002 176.708C842.653 176.708 840.774 176.004 839.365 174.594C837.956 173.029 837.251 170.837 837.251 168.018C837.251 165.356 838.895 161.99 842.184 157.919C845.472 153.848 848.525 151.812 851.343 151.812C857.137 151.812 860.033 154.787 860.033 160.737C860.033 163.399 858.468 166.766 855.336 170.837C852.361 174.751 848.916 176.708 845.002 176.708ZM852.987 228.144V236.599C838.113 255.858 825.508 265.487 815.174 265.487C809.224 265.487 804.762 262.199 801.787 255.623C798.812 249.517 797.324 242.94 797.324 235.894C797.324 225.247 801.708 214.13 810.477 202.543C819.402 190.957 827.544 185.163 834.903 185.163C839.6 185.163 841.949 186.964 841.949 190.565C841.949 191.818 840.774 194.949 838.426 199.96C836.077 204.97 831.85 210.529 825.743 216.635C822.611 219.767 820.184 222.35 818.462 224.386C816.74 226.265 815.565 227.596 814.939 228.379C813.843 229.944 813.295 232.137 813.295 234.955C813.295 237.617 814.313 239.965 816.348 242.001C818.384 243.88 821.124 244.819 824.569 244.819C828.013 244.819 831.928 243.488 836.312 240.827C840.853 238.008 846.411 233.781 852.987 228.144Z" fill="white"/>
<path opacity="0.1" d="M736.25 228.386L734.136 238.016C733.98 238.799 733.823 239.503 733.667 240.129C733.667 240.756 733.667 241.382 733.667 242.008C733.667 246.236 735.311 248.35 738.599 248.35C741.887 248.35 749.951 241.93 762.79 229.091C762.79 222.515 766.47 213.903 773.829 203.256C781.344 192.765 786.825 187.52 790.269 187.52C792.618 187.52 794.184 188.694 794.967 191.043C795.749 193.235 795.671 196.288 794.732 200.202C793.792 204.117 791.913 208.657 789.095 213.824C786.433 218.992 782.832 224.472 778.291 230.265C779.231 231.987 780.17 233.318 781.11 234.258C782.206 235.041 783.458 235.432 784.867 235.432C786.277 235.276 787.999 234.649 790.034 233.553C792.07 232.301 794.497 230.5 797.315 228.151V235.902C794.027 238.251 791.287 240.129 789.095 241.539C787.059 242.948 785.024 243.887 782.988 244.357C781.109 244.827 779.074 244.827 776.882 244.357C774.846 243.887 772.341 242.948 769.366 241.539C764.826 246.393 760.833 250.464 757.388 253.752C753.943 256.883 751.125 259.31 748.933 261.032C744.549 264.477 741.026 266.2 738.364 266.2C733.04 266.2 728.5 263.146 724.742 257.04C721.14 250.62 719.34 244.2 719.34 237.781C719.34 231.048 720.906 224.472 724.037 218.052C727.325 211.632 731.318 205.604 736.015 199.967C738.364 197.149 740.321 194.957 741.887 193.391C743.609 191.669 744.862 190.494 745.645 189.868C747.211 188.772 749.403 188.224 752.221 188.224C754.883 188.224 757.075 188.694 758.797 189.633C760.676 190.416 761.616 191.356 761.616 192.452C761.616 196.21 759.189 201.69 754.335 208.892C749.481 216.095 743.453 222.593 736.25 228.386Z" fill="white"/>
<path opacity="0.1" d="M669.107 232.367V235.185C669.107 239.726 670.124 243.249 672.16 245.754C674.352 248.259 677.797 249.512 682.494 249.512C687.348 249.512 692.671 247.711 698.465 244.11C704.415 240.509 711.382 235.185 719.368 228.139V235.185C701.518 256.636 685.704 267.362 671.925 267.362C664.879 267.362 659.399 264.622 655.484 259.141C651.727 253.505 649.848 246.38 649.848 237.769C649.848 228.844 652.744 220.075 658.538 211.464C664.331 202.695 672.003 195.336 681.555 189.386C690.949 183.28 699.091 180.227 705.981 180.227C709.738 180.227 712.713 181.088 714.905 182.81C717.097 184.532 718.194 186.959 718.194 190.091C718.194 204.809 701.831 218.901 669.107 232.367ZM670.281 224.851C680.615 220.78 688.522 215.613 694.002 209.35C699.483 202.93 702.223 198.311 702.223 195.493C702.223 193.77 701.361 192.909 699.639 192.909C696.038 192.909 690.636 196.197 683.433 202.774C676.231 209.037 671.847 216.396 670.281 224.851Z" fill="white"/>
<path opacity="0.1" d="M562.047 253.746L518.832 232.608C507.715 247.483 501.608 257.112 500.512 261.497C500.043 263.689 499.181 265.568 497.929 267.133C496.833 268.699 495.58 270.03 494.171 271.126C492.762 272.379 491.274 273.24 489.709 273.71C488.299 274.336 487.047 274.649 485.951 274.649C482.976 274.649 481.488 273.162 481.488 270.187C481.488 269.404 482.036 267.681 483.132 265.019C484.385 262.514 486.107 259.383 488.299 255.625C490.648 251.71 493.388 247.405 496.52 242.707C499.808 237.853 503.487 232.765 507.558 227.441C503.644 226.032 501.06 224.936 499.808 224.153C498.555 223.37 497.929 222.431 497.929 221.334C497.929 218.673 499.416 215.15 502.391 210.766C505.366 206.381 508.106 203.798 510.612 203.015C511.864 202.545 513.978 202.076 516.953 201.606C520.085 201.136 523.999 200.588 528.696 199.962C532.767 194.325 537.778 187.514 543.728 179.528C549.678 171.543 556.724 162.148 564.866 151.345C555.471 152.91 547.642 154.241 541.379 155.337C535.116 156.277 530.419 157.138 527.287 157.921C521.181 159.33 518.127 160.661 518.127 161.913C518.127 163.01 519.693 163.558 522.825 163.558C530.967 163.558 535.038 164.262 535.038 165.671C535.038 166.141 534.49 166.454 533.394 166.611C532.767 166.767 530.888 166.924 527.757 167.081C524.625 167.081 520.163 167.237 514.369 167.55C502.783 168.02 496.911 168.255 496.755 168.255C495.189 168.255 493.858 167.707 492.762 166.611C491.666 165.515 491.118 164.262 491.118 162.853C491.118 158.782 493.78 152.91 499.103 145.238C504.427 137.409 515.7 131.459 532.924 127.388C549.991 123.161 567.527 121.047 585.534 121.047C603.384 121.047 618.572 123.63 631.098 128.797C643.624 133.964 649.887 142.576 649.887 154.633C649.887 161.209 648.165 167.707 644.72 174.127C641.275 180.546 636.186 186.183 629.454 191.037C622.721 195.891 609.803 200.275 590.701 204.189C572.068 207.791 551.478 210.218 528.931 211.47C551.948 219.925 570.033 227.128 583.185 233.078C596.494 238.871 605.497 243.255 610.195 246.23C615.049 249.205 617.71 251.789 618.18 253.981C618.806 255.703 619.12 259.148 619.12 264.315C619.12 268.856 618.806 272.613 618.18 275.588C617.71 278.563 616.458 280.051 614.422 280.051C612.543 280.051 608.629 278.25 602.679 274.649C599.704 272.927 594.85 270.265 588.117 266.664C581.541 263.219 572.851 258.913 562.047 253.746ZM572.146 150.17C572.303 150.797 572.381 151.345 572.381 151.814C572.538 152.284 572.616 152.754 572.616 153.223C572.616 157.294 569.954 163.088 564.631 170.604C559.464 178.119 552.653 187.044 544.197 197.378C562.517 193.933 577.705 190.724 589.761 187.749C601.818 184.617 610.978 181.564 617.241 178.589C629.61 172.796 635.795 167.159 635.795 161.679C635.795 157.451 631.881 154.241 624.052 152.049C615.753 149.857 606.985 148.761 597.747 148.761C588.196 148.761 579.662 149.231 572.146 150.17Z" fill="white"/>
<path opacity="0.1" d="M395.486 211.705C385.466 217.029 373.174 229.477 358.613 249.049C354.072 254.529 351.253 257.817 350.157 258.913C349.061 260.009 347.809 260.557 346.4 260.557C343.581 260.557 341.232 257.974 339.354 252.807C337.475 247.64 336.535 242.394 336.535 237.071C336.535 231.747 337.005 227.754 337.944 225.093C338.571 223.683 339.588 221.805 340.998 219.456C342.407 216.951 344.286 213.976 346.634 210.531C351.332 203.485 355.246 198.553 358.378 195.734C361.666 192.916 364.797 191.507 367.772 191.507C372.47 191.507 375.21 192.603 375.993 194.795C376.775 196.831 376.306 198.866 374.583 200.902L370.591 205.364C358.534 218.83 352.506 227.52 352.506 231.434C352.506 233.626 353.132 234.722 354.385 234.722C355.638 234.722 357.516 233.235 360.022 230.26C375.053 212.41 387.11 200.354 396.191 194.09C405.429 187.671 411.536 184.461 414.511 184.461C415.607 184.461 416.781 186.34 418.034 190.098C418.66 191.977 419.13 193.621 419.443 195.03C419.912 196.283 420.069 197.535 419.912 198.788C419.756 200.04 419.286 201.371 418.503 202.78C417.72 204.033 416.546 205.599 414.98 207.478C405.116 217.968 398.853 226.658 396.191 233.548C393.529 240.281 394.39 243.647 398.775 243.647C402.219 243.647 410.674 238.323 424.14 227.676V235.662C419.756 240.202 415.607 244.352 411.692 248.11C407.934 251.711 404.333 254.921 400.888 257.739C397.6 260.557 394.625 262.593 391.963 263.846C389.458 265.098 387.266 265.803 385.387 265.959C383.508 266.116 381.864 265.803 380.455 265.02C379.202 264.394 378.263 263.532 377.637 262.436C376.227 260.088 375.523 257.113 375.523 253.511C375.523 249.91 376.932 245.135 379.75 239.185C381.316 236.053 383.352 232.217 385.857 227.676C388.519 223.135 391.729 217.812 395.486 211.705Z" fill="white"/>
<path opacity="0.1" d="M321.6 176.708C319.251 176.708 317.372 176.004 315.963 174.594C314.554 173.029 313.849 170.837 313.849 168.018C313.849 165.356 315.493 161.99 318.781 157.919C322.069 153.848 325.123 151.812 327.941 151.812C333.734 151.812 336.631 154.787 336.631 160.737C336.631 163.399 335.065 166.766 331.934 170.837C328.959 174.751 325.514 176.708 321.6 176.708ZM329.585 228.144V236.599C314.71 255.858 302.106 265.487 291.772 265.487C285.822 265.487 281.359 262.199 278.384 255.623C275.409 249.517 273.922 242.94 273.922 235.894C273.922 225.247 278.306 214.13 287.074 202.543C295.999 190.957 304.141 185.163 311.5 185.163C316.198 185.163 318.546 186.964 318.546 190.565C318.546 191.818 317.372 194.949 315.023 199.96C312.675 204.97 308.447 210.529 302.341 216.635C299.209 219.767 296.782 222.35 295.06 224.386C293.337 226.265 292.163 227.596 291.537 228.379C290.441 229.944 289.893 232.137 289.893 234.955C289.893 237.617 290.91 239.965 292.946 242.001C294.981 243.88 297.722 244.819 301.166 244.819C304.611 244.819 308.525 243.488 312.91 240.827C317.45 238.008 323.009 233.781 329.585 228.144Z" fill="white"/>
<path opacity="0.1" d="M230.704 229.787C218.647 243.253 210.035 252.334 204.868 257.032C199.858 261.729 195.709 264.078 192.421 264.078C189.446 264.078 185.923 260.633 181.852 253.743C178.094 246.697 176.215 240.356 176.215 234.719C176.215 228.926 178.015 223.289 181.617 217.809C185.061 212.485 192.264 205.831 203.224 197.845C214.185 189.86 223.423 184.302 230.939 181.17C238.611 178.038 245.109 176.473 250.432 176.473C251.372 176.473 252.311 176.864 253.251 177.647C254.347 178.43 255.286 179.369 256.069 180.465C256.852 181.561 257.478 182.736 257.948 183.988C258.574 185.241 258.888 186.337 258.888 187.276C258.888 189.312 256.539 191.034 251.842 192.444C254.973 199.02 256.539 203.091 256.539 204.657C256.539 206.692 254.503 210.45 250.432 215.93C246.361 221.41 243.778 225.168 242.682 227.204C241.586 229.239 241.038 231.823 241.038 234.954C241.038 240.748 243.308 243.644 247.849 243.644C253.642 243.644 262.332 238.555 273.919 228.378V235.424C254.66 256.875 240.803 267.601 232.348 267.601C229.216 267.601 227.024 266.504 225.772 264.312C224.675 262.277 224.127 258.832 224.127 253.978C224.127 248.655 226.32 240.591 230.704 229.787ZM245.97 195.027C227.964 203.012 214.263 210.372 204.868 217.104C195.474 223.681 190.777 230.57 190.777 237.773C190.777 243.253 192.186 245.993 195.004 245.993C198.292 245.993 203.772 242.861 211.445 236.598C219.43 230.335 230.939 216.478 245.97 195.027Z" fill="white"/>
<path opacity="0.1" d="M97.6873 144.298C87.5098 145.55 75.2967 148.604 61.0482 153.457C46.9563 158.468 39.9103 161.913 39.9103 163.792C39.9103 164.418 40.3801 164.574 41.3195 164.261C48.0523 163.165 56.1943 162.226 65.7455 161.443C61.0482 162.852 56.0378 164.574 50.7141 166.61C45.3905 168.645 39.7537 170.994 33.8038 173.656C31.7683 174.439 30.2025 174.83 29.1065 174.83C25.0355 174.83 23 172.247 23 167.08C23 158.155 24.4875 151.03 27.4624 145.707C30.594 140.227 38.6577 134.746 51.6536 129.266C64.9627 123.629 77.0191 119.715 87.8229 117.523C98.7833 115.174 108.491 114 116.946 114C135.266 114 149.671 118.854 160.162 128.562C170.809 138.269 176.132 151.892 176.132 169.428C176.132 186.808 169.165 203.64 155.229 219.924C141.137 236.365 123.914 248.656 103.559 256.798C83.517 264.94 65.5107 269.011 49.5398 269.011C43.1202 269.011 39.2057 268.15 37.7965 266.428C36.3873 264.862 35.6827 260.948 35.6827 254.685C35.6827 248.891 37.7182 241.297 41.7893 231.903C45.7037 223.447 52.9062 210.843 63.3969 194.089C73.4178 178.275 84.848 161.678 97.6873 144.298ZM100.975 143.593C101.602 146.881 101.915 149.386 101.915 151.109C101.915 152.831 100.975 155.023 99.0965 157.685C91.5808 168.959 85.0045 179.293 79.3678 188.687C73.731 198.082 68.7205 206.615 64.3364 214.288C55.7246 229.006 51.4187 238.009 51.4187 241.297C51.4187 244.898 55.7246 246.699 64.3364 246.699C79.5243 246.699 95.1038 243.176 111.075 236.13C127.045 228.928 139.807 219.846 149.358 208.886C158.909 197.925 163.685 186.965 163.685 176.005C163.685 164.731 159.614 156.432 151.472 151.109C143.486 145.629 131.665 142.888 116.007 142.888C111.309 142.888 106.299 143.123 100.975 143.593Z" fill="white"/>
<defs>
<linearGradient id="paint0_linear_5287_147960" x1="0" y1="132.5" x2="1400" y2="132.5" gradientUnits="userSpaceOnUse">
<stop/>
<stop offset="1" stop-color="#3C3C3C"/>
</linearGradient>
</defs>
</svg>
