<svg width="24" height="24" viewBox="0 0 24 24" fill="none" xmlns="http://www.w3.org/2000/svg">
<rect width="24" height="24" rx="6.00234" fill="url(#paint0_linear_5289_36643)"/>
<path d="M19.128 8.43644C18.9586 7.83088 18.4611 7.35652 17.8366 7.19503C16.6935 6.90234 12.1315 6.90234 12.1315 6.90234C12.1315 6.90234 7.55896 6.90234 6.42641 7.19503C5.80191 7.35652 5.30443 7.83088 5.13508 8.43644C4.82813 9.52646 4.82812 11.8074 4.82812 11.8074C4.82812 11.8074 4.82813 14.0884 5.13508 15.1784C5.30443 15.784 5.80191 16.2583 6.42641 16.4198C7.56955 16.7125 12.1315 16.7125 12.1315 16.7125C12.1315 16.7125 16.7041 16.7125 17.8366 16.4198C18.4611 16.2583 18.9586 15.784 19.128 15.1784C19.4349 14.0884 19.4349 11.8074 19.4349 11.8074C19.4349 11.8074 19.4349 9.52646 19.128 8.43644ZM10.6391 13.8764V9.73841L14.4601 11.8074L10.6391 13.8764Z" fill="url(#paint1_linear_5289_36643)"/>
<defs>
<linearGradient id="paint0_linear_5289_36643" x1="1.584" y1="1.584" x2="21.48" y2="23.256" gradientUnits="userSpaceOnUse">
<stop offset="1" stop-color="#FC4343"/>
</linearGradient>
<linearGradient id="paint1_linear_5289_36643" x1="5.51675" y1="7.29959" x2="14.6223" y2="18.7288" gradientUnits="userSpaceOnUse">
<stop stop-color="#F1F5F2"/>
<stop offset="1" stop-color="#EEEEEE"/>
</linearGradient>
</defs>
</svg>
